<svg width="507" height="131" viewBox="0 0 507 131" fill="none" xmlns="http://www.w3.org/2000/svg">
<rect width="507" height="131" fill="white"/>
<circle cx="132" cy="109" r="8" fill="#BB6BD9"/>
<path d="M57.743 19V12.48H59.543C60.0163 12.48 60.4463 12.5433 60.833 12.67C61.2196 12.7967 61.5496 12.9933 61.823 13.26C62.0963 13.52 62.3063 13.8533 62.453 14.26C62.6063 14.6667 62.683 15.15 62.683 15.71C62.683 16.27 62.6096 16.7567 62.463 17.17C62.3163 17.5833 62.1063 17.9267 61.833 18.2C61.5663 18.4667 61.2463 18.6667 60.873 18.8C60.4996 18.9333 60.0863 19 59.633 19H57.743ZM59.223 17.81H59.463C59.7163 17.81 59.9463 17.7733 60.153 17.7C60.3663 17.6267 60.5463 17.51 60.693 17.35C60.8463 17.1833 60.963 16.9667 61.043 16.7C61.1296 16.4333 61.173 16.1033 61.173 15.71C61.173 15.3233 61.1296 15 61.043 14.74C60.963 14.4733 60.8463 14.2633 60.693 14.11C60.5463 13.95 60.3663 13.8367 60.153 13.77C59.9463 13.7033 59.7163 13.67 59.463 13.67H59.223V17.81ZM65.8191 19V15.19H63.8291V14.04H67.2891V19H65.8191ZM66.4891 13.26C66.2024 13.26 65.9657 13.18 65.7791 13.02C65.5991 12.86 65.5091 12.6433 65.5091 12.37C65.5091 12.0967 65.5991 11.8767 65.7791 11.71C65.9657 11.5367 66.2024 11.45 66.4891 11.45C66.7757 11.45 67.0091 11.5367 67.1891 11.71C67.3757 11.8767 67.4691 12.0967 67.4691 12.37C67.4691 12.6433 67.3757 12.86 67.1891 13.02C67.0091 13.18 66.7757 13.26 66.4891 13.26ZM71.1652 19V15.19H69.8552V14.1L71.1652 14.04V13.91C71.1652 13.6233 71.2085 13.3567 71.2952 13.11C71.3818 12.8633 71.5152 12.65 71.6952 12.47C71.8752 12.2833 72.1052 12.1367 72.3852 12.03C72.6652 11.9233 72.9985 11.87 73.3852 11.87C73.6718 11.87 73.9385 11.8967 74.1852 11.95C74.4385 12.0033 74.6718 12.0667 74.8852 12.14L74.6052 13.22C74.2785 13.0933 73.9318 13.03 73.5652 13.03C73.2452 13.03 73.0085 13.1 72.8552 13.24C72.7085 13.38 72.6352 13.6 72.6352 13.9V14.04H74.3452V15.19H72.6352V19H71.1652ZM77.1613 19V15.19H75.8513V14.1L77.1613 14.04V13.91C77.1613 13.6233 77.2046 13.3567 77.2913 13.11C77.3779 12.8633 77.5113 12.65 77.6913 12.47C77.8713 12.2833 78.1013 12.1367 78.3813 12.03C78.6613 11.9233 78.9946 11.87 79.3813 11.87C79.6679 11.87 79.9346 11.8967 80.1813 11.95C80.4346 12.0033 80.6679 12.0667 80.8813 12.14L80.6013 13.22C80.2746 13.0933 79.9279 13.03 79.5613 13.03C79.2413 13.03 79.0046 13.1 78.8513 13.24C78.7046 13.38 78.6313 13.6 78.6313 13.9V14.04H80.3413V15.19H78.6313V19H77.1613ZM84.3273 19.12C83.9407 19.12 83.5773 19.0633 83.2373 18.95C82.904 18.83 82.614 18.66 82.3673 18.44C82.1207 18.22 81.9273 17.95 81.7873 17.63C81.6473 17.3033 81.5773 16.9333 81.5773 16.52C81.5773 16.1133 81.6473 15.75 81.7873 15.43C81.934 15.1033 82.1273 14.83 82.3673 14.61C82.6073 14.3833 82.8807 14.2133 83.1873 14.1C83.5007 13.98 83.824 13.92 84.1573 13.92C84.5373 13.92 84.874 13.98 85.1673 14.1C85.4607 14.22 85.704 14.3867 85.8973 14.6C86.0973 14.8133 86.2473 15.0667 86.3473 15.36C86.4473 15.6467 86.4973 15.96 86.4973 16.3C86.4973 16.4333 86.4873 16.5633 86.4673 16.69C86.454 16.81 86.4407 16.9 86.4273 16.96H83.0473C83.1207 17.32 83.284 17.5833 83.5373 17.75C83.7907 17.9167 84.1207 18 84.5273 18C84.754 18 84.9673 17.97 85.1673 17.91C85.374 17.85 85.5873 17.7633 85.8073 17.65L86.2973 18.54C86.0107 18.72 85.694 18.8633 85.3473 18.97C85.0007 19.07 84.6607 19.12 84.3273 19.12ZM84.2073 15.04C83.914 15.04 83.6673 15.1167 83.4673 15.27C83.274 15.4233 83.1407 15.6567 83.0673 15.97H85.1873C85.114 15.35 84.7873 15.04 84.2073 15.04ZM88.1834 19V14.04H89.3834L89.5034 15.12H89.5334C89.7801 14.7133 90.0768 14.4133 90.4234 14.22C90.7701 14.02 91.1434 13.92 91.5434 13.92C91.7634 13.92 91.9401 13.9367 92.0734 13.97C92.2134 14.0033 92.3568 14.0533 92.5034 14.12L92.2034 15.35C92.0501 15.3033 91.9101 15.27 91.7834 15.25C91.6634 15.2233 91.5101 15.21 91.3234 15.21C91.0168 15.21 90.7134 15.3 90.4134 15.48C90.1201 15.66 89.8668 15.9733 89.6534 16.42V19H88.1834ZM96.3195 19.12C95.9329 19.12 95.5695 19.0633 95.2295 18.95C94.8962 18.83 94.6062 18.66 94.3595 18.44C94.1129 18.22 93.9195 17.95 93.7795 17.63C93.6395 17.3033 93.5695 16.9333 93.5695 16.52C93.5695 16.1133 93.6395 15.75 93.7795 15.43C93.9262 15.1033 94.1195 14.83 94.3595 14.61C94.5995 14.3833 94.8729 14.2133 95.1795 14.1C95.4929 13.98 95.8162 13.92 96.1495 13.92C96.5295 13.92 96.8662 13.98 97.1595 14.1C97.4529 14.22 97.6962 14.3867 97.8895 14.6C98.0895 14.8133 98.2395 15.0667 98.3395 15.36C98.4395 15.6467 98.4895 15.96 98.4895 16.3C98.4895 16.4333 98.4795 16.5633 98.4595 16.69C98.4462 16.81 98.4329 16.9 98.4195 16.96H95.0395C95.1129 17.32 95.2762 17.5833 95.5295 17.75C95.7829 17.9167 96.1129 18 96.5195 18C96.7462 18 96.9595 17.97 97.1595 17.91C97.3662 17.85 97.5795 17.7633 97.7995 17.65L98.2895 18.54C98.0029 18.72 97.6862 18.8633 97.3395 18.97C96.9929 19.07 96.6529 19.12 96.3195 19.12ZM96.1995 15.04C95.9062 15.04 95.6595 15.1167 95.4595 15.27C95.2662 15.4233 95.1329 15.6567 95.0595 15.97H97.1795C97.1062 15.35 96.7795 15.04 96.1995 15.04ZM99.7356 19V14.04H100.936L101.046 14.7H101.086C101.299 14.4867 101.542 14.3033 101.816 14.15C102.096 13.9967 102.422 13.92 102.796 13.92C103.356 13.92 103.766 14.1 104.026 14.46C104.286 14.82 104.416 15.3133 104.416 15.94V19H102.946V16.13C102.946 15.7967 102.892 15.5533 102.786 15.4C102.679 15.2467 102.489 15.17 102.216 15.17C102.016 15.17 101.839 15.2133 101.686 15.3C101.539 15.3867 101.379 15.5167 101.206 15.69V19H99.7356ZM108.442 19.12C108.048 19.12 107.685 19.0633 107.352 18.95C107.018 18.83 106.725 18.66 106.472 18.44C106.225 18.22 106.032 17.95 105.892 17.63C105.752 17.3033 105.682 16.9333 105.682 16.52C105.682 16.1067 105.758 15.74 105.912 15.42C106.072 15.0933 106.282 14.82 106.542 14.6C106.808 14.38 107.115 14.2133 107.462 14.1C107.808 13.98 108.172 13.92 108.552 13.92C108.945 13.92 109.298 13.9833 109.612 14.11C109.932 14.2367 110.198 14.3967 110.412 14.59L109.732 15.5C109.365 15.24 108.998 15.11 108.632 15.11C108.205 15.11 107.858 15.2367 107.592 15.49C107.325 15.7433 107.192 16.0867 107.192 16.52C107.192 16.9533 107.318 17.2967 107.572 17.55C107.832 17.8033 108.168 17.93 108.582 17.93C108.842 17.93 109.078 17.8833 109.292 17.79C109.512 17.6967 109.712 17.5867 109.892 17.46L110.482 18.39C110.182 18.6433 109.852 18.83 109.492 18.95C109.132 19.0633 108.782 19.12 108.442 19.12ZM114.308 19.12C113.921 19.12 113.558 19.0633 113.218 18.95C112.884 18.83 112.594 18.66 112.348 18.44C112.101 18.22 111.908 17.95 111.768 17.63C111.628 17.3033 111.558 16.9333 111.558 16.52C111.558 16.1133 111.628 15.75 111.768 15.43C111.914 15.1033 112.108 14.83 112.348 14.61C112.588 14.3833 112.861 14.2133 113.168 14.1C113.481 13.98 113.804 13.92 114.138 13.92C114.518 13.92 114.854 13.98 115.148 14.1C115.441 14.22 115.684 14.3867 115.878 14.6C116.078 14.8133 116.228 15.0667 116.328 15.36C116.428 15.6467 116.478 15.96 116.478 16.3C116.478 16.4333 116.468 16.5633 116.448 16.69C116.434 16.81 116.421 16.9 116.408 16.96H113.028C113.101 17.32 113.264 17.5833 113.518 17.75C113.771 17.9167 114.101 18 114.508 18C114.734 18 114.948 17.97 115.148 17.91C115.354 17.85 115.568 17.7633 115.788 17.65L116.278 18.54C115.991 18.72 115.674 18.8633 115.328 18.97C114.981 19.07 114.641 19.12 114.308 19.12ZM114.188 15.04C113.894 15.04 113.648 15.1167 113.448 15.27C113.254 15.4233 113.121 15.6567 113.048 15.97H115.168C115.094 15.35 114.768 15.04 114.188 15.04ZM119.964 19.12C119.517 19.12 119.081 19.0467 118.654 18.9C118.227 18.7533 117.854 18.5733 117.534 18.36L118.164 17.44C118.471 17.6333 118.791 17.78 119.124 17.88C119.457 17.98 119.804 18.03 120.164 18.03C120.437 18.03 120.637 17.99 120.764 17.91C120.891 17.83 120.954 17.73 120.954 17.61C120.954 17.5433 120.934 17.4833 120.894 17.43C120.861 17.3767 120.797 17.33 120.704 17.29C120.617 17.2433 120.494 17.2 120.334 17.16C120.174 17.12 119.974 17.0733 119.734 17.02C119.061 16.8733 118.577 16.6767 118.284 16.43C117.991 16.1767 117.844 15.8567 117.844 15.47C117.844 15.2433 117.897 15.0333 118.004 14.84C118.111 14.6467 118.261 14.4833 118.454 14.35C118.654 14.2167 118.894 14.1133 119.174 14.04C119.454 13.96 119.771 13.92 120.124 13.92C120.571 13.92 120.974 13.9933 121.334 14.14C121.701 14.28 122.014 14.4333 122.274 14.6L121.614 15.48C121.361 15.3267 121.097 15.21 120.824 15.13C120.551 15.05 120.274 15.01 119.994 15.01C119.761 15.01 119.587 15.0467 119.474 15.12C119.361 15.1933 119.304 15.2867 119.304 15.4C119.304 15.54 119.391 15.64 119.564 15.7C119.737 15.76 120.034 15.8367 120.454 15.93C120.834 16.0167 121.151 16.11 121.404 16.21C121.657 16.31 121.857 16.4233 122.004 16.55C122.151 16.6767 122.254 16.82 122.314 16.98C122.374 17.14 122.404 17.32 122.404 17.52C122.404 17.7467 122.351 17.9567 122.244 18.15C122.137 18.3433 121.981 18.5133 121.774 18.66C121.574 18.8 121.321 18.9133 121.014 19C120.714 19.08 120.364 19.12 119.964 19.12Z" fill="#30394B"/>
<path d="M12.0542 64.12C11.6142 64.12 11.1776 64.0433 10.7442 63.89C10.3176 63.73 9.92755 63.4933 9.57422 63.18L10.4242 62.17C10.6709 62.37 10.9409 62.5333 11.2342 62.66C11.5276 62.7867 11.8342 62.85 12.1542 62.85C12.4742 62.85 12.7076 62.7967 12.8542 62.69C13.0009 62.5833 13.0742 62.4467 13.0742 62.28C13.0742 62.1667 13.0509 62.0733 13.0042 62C12.9576 61.92 12.8909 61.85 12.8042 61.79C12.7176 61.73 12.6109 61.6733 12.4842 61.62C12.3576 61.5667 12.2176 61.5067 12.0642 61.44L11.2242 61.08C11.0442 61.0133 10.8676 60.9267 10.6942 60.82C10.5276 60.7133 10.3809 60.59 10.2542 60.45C10.1276 60.3033 10.0242 60.1367 9.94422 59.95C9.87089 59.7567 9.83422 59.54 9.83422 59.3C9.83422 59.0333 9.89089 58.7833 10.0042 58.55C10.1242 58.31 10.2876 58.1033 10.4942 57.93C10.7076 57.75 10.9609 57.61 11.2542 57.51C11.5476 57.41 11.8709 57.36 12.2242 57.36C12.6242 57.36 13.0109 57.4333 13.3842 57.58C13.7576 57.7267 14.0942 57.94 14.3942 58.22L13.6442 59.15C13.4176 58.9833 13.1909 58.8567 12.9642 58.77C12.7376 58.6767 12.4642 58.63 12.1442 58.63C11.8976 58.63 11.6976 58.68 11.5442 58.78C11.3976 58.88 11.3242 59.0267 11.3242 59.22C11.3242 59.4133 11.4209 59.5633 11.6142 59.67C11.8142 59.77 12.0742 59.8767 12.3942 59.99L13.1842 60.33C13.6176 60.49 13.9576 60.71 14.2042 60.99C14.4576 61.27 14.5842 61.64 14.5842 62.1C14.5842 62.3733 14.5276 62.6333 14.4142 62.88C14.3009 63.12 14.1376 63.3333 13.9242 63.52C13.7109 63.7 13.4476 63.8467 13.1342 63.96C12.8209 64.0667 12.4609 64.12 12.0542 64.12ZM18.8803 65.84V64.35L18.9503 63.55H18.9103C18.7436 63.7167 18.547 63.8533 18.3203 63.96C18.0936 64.0667 17.8636 64.12 17.6303 64.12C17.317 64.12 17.0303 64.06 16.7703 63.94C16.517 63.82 16.297 63.65 16.1103 63.43C15.9303 63.2033 15.7903 62.93 15.6903 62.61C15.5903 62.29 15.5403 61.9267 15.5403 61.52C15.5403 61.1133 15.6003 60.75 15.7203 60.43C15.8403 60.11 15.997 59.84 16.1903 59.62C16.3903 59.3933 16.617 59.22 16.8703 59.1C17.1236 58.98 17.387 58.92 17.6603 58.92C17.9403 58.92 18.187 58.97 18.4003 59.07C18.6203 59.17 18.8336 59.33 19.0403 59.55H19.0803L19.2003 59.04H20.3503V65.84H18.8803ZM18.0103 62.92C18.177 62.92 18.3303 62.8867 18.4703 62.82C18.6103 62.7467 18.747 62.6267 18.8803 62.46V60.45C18.747 60.33 18.6103 60.2467 18.4703 60.2C18.337 60.1467 18.197 60.12 18.0503 60.12C17.777 60.12 17.5403 60.2333 17.3403 60.46C17.147 60.6867 17.0503 61.0333 17.0503 61.5C17.0503 61.9933 17.1336 62.3533 17.3003 62.58C17.467 62.8067 17.7036 62.92 18.0103 62.92ZM23.2964 64.12C22.7297 64.12 22.3197 63.94 22.0664 63.58C21.8131 63.22 21.6864 62.7267 21.6864 62.1V59.04H23.1564V61.91C23.1564 62.2433 23.2064 62.4867 23.3064 62.64C23.4064 62.7933 23.5964 62.87 23.8764 62.87C24.0631 62.87 24.2264 62.83 24.3664 62.75C24.5131 62.67 24.6731 62.52 24.8464 62.3V59.04H26.3164V64H25.1164L25.0064 63.29H24.9664C24.7464 63.5433 24.5031 63.7467 24.2364 63.9C23.9697 64.0467 23.6564 64.12 23.2964 64.12ZM29.3025 64.12C29.0492 64.12 28.8225 64.08 28.6225 64C28.4225 63.9267 28.2525 63.8233 28.1125 63.69C27.9725 63.55 27.8625 63.39 27.7825 63.21C27.7092 63.03 27.6725 62.8333 27.6725 62.62C27.6725 62.34 27.7325 62.0967 27.8525 61.89C27.9725 61.6767 28.1625 61.4967 28.4225 61.35C28.6892 61.2033 29.0292 61.0867 29.4425 61C29.8558 60.9067 30.3558 60.8433 30.9425 60.81C30.9158 60.5833 30.8158 60.4067 30.6425 60.28C30.4758 60.1533 30.2225 60.09 29.8825 60.09C29.6425 60.09 29.3992 60.1333 29.1525 60.22C28.9125 60.3 28.6525 60.41 28.3725 60.55L27.8525 59.59C28.1925 59.3967 28.5558 59.2367 28.9425 59.11C29.3358 58.9833 29.7458 58.92 30.1725 58.92C30.8658 58.92 31.4125 59.1033 31.8125 59.47C32.2125 59.8367 32.4125 60.4 32.4125 61.16V64H31.2125L31.1025 63.44H31.0625C30.8092 63.6333 30.5325 63.7967 30.2325 63.93C29.9325 64.0567 29.6225 64.12 29.3025 64.12ZM29.7725 62.98C29.9925 62.98 30.1992 62.9367 30.3925 62.85C30.5858 62.7567 30.7692 62.6433 30.9425 62.51V61.69C30.5758 61.71 30.2725 61.7433 30.0325 61.79C29.7925 61.8367 29.6025 61.8967 29.4625 61.97C29.3225 62.0367 29.2225 62.1167 29.1625 62.21C29.1092 62.3033 29.0825 62.4033 29.0825 62.51C29.0825 62.67 29.1425 62.79 29.2625 62.87C29.3892 62.9433 29.5592 62.98 29.7725 62.98ZM34.2186 64V59.04H35.4186L35.5386 60.12H35.5686C35.8153 59.7133 36.1119 59.4133 36.4586 59.22C36.8053 59.02 37.1786 58.92 37.5786 58.92C37.7986 58.92 37.9753 58.9367 38.1086 58.97C38.2486 59.0033 38.3919 59.0533 38.5386 59.12L38.2386 60.35C38.0853 60.3033 37.9453 60.27 37.8186 60.25C37.6986 60.2233 37.5453 60.21 37.3586 60.21C37.0519 60.21 36.7486 60.3 36.4486 60.48C36.1553 60.66 35.9019 60.9733 35.6886 61.42V64H34.2186ZM42.3547 64.12C41.968 64.12 41.6047 64.0633 41.2647 63.95C40.9314 63.83 40.6414 63.66 40.3947 63.44C40.148 63.22 39.9547 62.95 39.8147 62.63C39.6747 62.3033 39.6047 61.9333 39.6047 61.52C39.6047 61.1133 39.6747 60.75 39.8147 60.43C39.9614 60.1033 40.1547 59.83 40.3947 59.61C40.6347 59.3833 40.908 59.2133 41.2147 59.1C41.528 58.98 41.8514 58.92 42.1847 58.92C42.5647 58.92 42.9014 58.98 43.1947 59.1C43.488 59.22 43.7314 59.3867 43.9247 59.6C44.1247 59.8133 44.2747 60.0667 44.3747 60.36C44.4747 60.6467 44.5247 60.96 44.5247 61.3C44.5247 61.4333 44.5147 61.5633 44.4947 61.69C44.4814 61.81 44.468 61.9 44.4547 61.96H41.0747C41.148 62.32 41.3114 62.5833 41.5647 62.75C41.818 62.9167 42.148 63 42.5547 63C42.7814 63 42.9947 62.97 43.1947 62.91C43.4014 62.85 43.6147 62.7633 43.8347 62.65L44.3247 63.54C44.038 63.72 43.7214 63.8633 43.3747 63.97C43.028 64.07 42.688 64.12 42.3547 64.12ZM42.2347 60.04C41.9414 60.04 41.6947 60.1167 41.4947 60.27C41.3014 60.4233 41.168 60.6567 41.0947 60.97H43.2147C43.1414 60.35 42.8147 60.04 42.2347 60.04ZM47.6108 64.12C47.2974 64.12 47.0108 64.06 46.7508 63.94C46.4974 63.82 46.2774 63.65 46.0908 63.43C45.9108 63.2033 45.7708 62.93 45.6708 62.61C45.5708 62.29 45.5208 61.9267 45.5208 61.52C45.5208 61.1133 45.5808 60.75 45.7008 60.43C45.8208 60.11 45.9774 59.84 46.1708 59.62C46.3708 59.3933 46.5974 59.22 46.8508 59.1C47.1041 58.98 47.3674 58.92 47.6408 58.92C47.9208 58.92 48.1574 58.9667 48.3508 59.06C48.5441 59.1467 48.7241 59.2767 48.8908 59.45H48.9308L48.8608 58.68V56.99H50.3308V64H49.1308L49.0208 63.49H48.9908C48.8041 63.67 48.5908 63.82 48.3508 63.94C48.1108 64.06 47.8641 64.12 47.6108 64.12ZM47.9908 62.92C48.1574 62.92 48.3108 62.8867 48.4508 62.82C48.5908 62.7467 48.7274 62.6267 48.8608 62.46V60.45C48.7274 60.33 48.5908 60.2467 48.4508 60.2C48.3174 60.1467 48.1774 60.12 48.0308 60.12C47.7574 60.12 47.5208 60.2333 47.3208 60.46C47.1274 60.6867 47.0308 61.0333 47.0308 61.5C47.0308 61.9933 47.1141 62.3533 47.2808 62.58C47.4474 62.8067 47.6841 62.92 47.9908 62.92ZM59.603 64.12C59.2896 64.12 59.003 64.06 58.743 63.94C58.4896 63.82 58.2696 63.65 58.083 63.43C57.903 63.2033 57.763 62.93 57.663 62.61C57.563 62.29 57.513 61.9267 57.513 61.52C57.513 61.1133 57.573 60.75 57.693 60.43C57.813 60.11 57.9696 59.84 58.163 59.62C58.363 59.3933 58.5896 59.22 58.843 59.1C59.0963 58.98 59.3596 58.92 59.633 58.92C59.913 58.92 60.1496 58.9667 60.343 59.06C60.5363 59.1467 60.7163 59.2767 60.883 59.45H60.923L60.853 58.68V56.99H62.323V64H61.123L61.013 63.49H60.983C60.7963 63.67 60.583 63.82 60.343 63.94C60.103 64.06 59.8563 64.12 59.603 64.12ZM59.983 62.92C60.1496 62.92 60.303 62.8867 60.443 62.82C60.583 62.7467 60.7196 62.6267 60.853 62.46V60.45C60.7196 60.33 60.583 60.2467 60.443 60.2C60.3096 60.1467 60.1696 60.12 60.023 60.12C59.7496 60.12 59.513 60.2333 59.313 60.46C59.1196 60.6867 59.023 61.0333 59.023 61.5C59.023 61.9933 59.1063 62.3533 59.273 62.58C59.4396 62.8067 59.6763 62.92 59.983 62.92ZM65.8191 64V60.19H63.8291V59.04H67.2891V64H65.8191ZM66.4891 58.26C66.2024 58.26 65.9657 58.18 65.7791 58.02C65.5991 57.86 65.5091 57.6433 65.5091 57.37C65.5091 57.0967 65.5991 56.8767 65.7791 56.71C65.9657 56.5367 66.2024 56.45 66.4891 56.45C66.7757 56.45 67.0091 56.5367 67.1891 56.71C67.3757 56.8767 67.4691 57.0967 67.4691 57.37C67.4691 57.6433 67.3757 57.86 67.1891 58.02C67.0091 58.18 66.7757 58.26 66.4891 58.26ZM71.1652 64V60.19H69.8552V59.1L71.1652 59.04V58.91C71.1652 58.6233 71.2085 58.3567 71.2952 58.11C71.3818 57.8633 71.5152 57.65 71.6952 57.47C71.8752 57.2833 72.1052 57.1367 72.3852 57.03C72.6652 56.9233 72.9985 56.87 73.3852 56.87C73.6718 56.87 73.9385 56.8967 74.1852 56.95C74.4385 57.0033 74.6718 57.0667 74.8852 57.14L74.6052 58.22C74.2785 58.0933 73.9318 58.03 73.5652 58.03C73.2452 58.03 73.0085 58.1 72.8552 58.24C72.7085 58.38 72.6352 58.6 72.6352 58.9V59.04H74.3452V60.19H72.6352V64H71.1652ZM77.1613 64V60.19H75.8513V59.1L77.1613 59.04V58.91C77.1613 58.6233 77.2046 58.3567 77.2913 58.11C77.3779 57.8633 77.5113 57.65 77.6913 57.47C77.8713 57.2833 78.1013 57.1367 78.3813 57.03C78.6613 56.9233 78.9946 56.87 79.3813 56.87C79.6679 56.87 79.9346 56.8967 80.1813 56.95C80.4346 57.0033 80.6679 57.0667 80.8813 57.14L80.6013 58.22C80.2746 58.0933 79.9279 58.03 79.5613 58.03C79.2413 58.03 79.0046 58.1 78.8513 58.24C78.7046 58.38 78.6313 58.6 78.6313 58.9V59.04H80.3413V60.19H78.6313V64H77.1613ZM84.3273 64.12C83.9407 64.12 83.5773 64.0633 83.2373 63.95C82.904 63.83 82.614 63.66 82.3673 63.44C82.1207 63.22 81.9273 62.95 81.7873 62.63C81.6473 62.3033 81.5773 61.9333 81.5773 61.52C81.5773 61.1133 81.6473 60.75 81.7873 60.43C81.934 60.1033 82.1273 59.83 82.3673 59.61C82.6073 59.3833 82.8807 59.2133 83.1873 59.1C83.5007 58.98 83.824 58.92 84.1573 58.92C84.5373 58.92 84.874 58.98 85.1673 59.1C85.4607 59.22 85.704 59.3867 85.8973 59.6C86.0973 59.8133 86.2473 60.0667 86.3473 60.36C86.4473 60.6467 86.4973 60.96 86.4973 61.3C86.4973 61.4333 86.4873 61.5633 86.4673 61.69C86.454 61.81 86.4407 61.9 86.4273 61.96H83.0473C83.1207 62.32 83.284 62.5833 83.5373 62.75C83.7907 62.9167 84.1207 63 84.5273 63C84.754 63 84.9673 62.97 85.1673 62.91C85.374 62.85 85.5873 62.7633 85.8073 62.65L86.2973 63.54C86.0107 63.72 85.694 63.8633 85.3473 63.97C85.0007 64.07 84.6607 64.12 84.3273 64.12ZM84.2073 60.04C83.914 60.04 83.6673 60.1167 83.4673 60.27C83.274 60.4233 83.1407 60.6567 83.0673 60.97H85.1873C85.114 60.35 84.7873 60.04 84.2073 60.04ZM88.1834 64V59.04H89.3834L89.5034 60.12H89.5334C89.7801 59.7133 90.0768 59.4133 90.4234 59.22C90.7701 59.02 91.1434 58.92 91.5434 58.92C91.7634 58.92 91.9401 58.9367 92.0734 58.97C92.2134 59.0033 92.3568 59.0533 92.5034 59.12L92.2034 60.35C92.0501 60.3033 91.9101 60.27 91.7834 60.25C91.6634 60.2233 91.5101 60.21 91.3234 60.21C91.0168 60.21 90.7134 60.3 90.4134 60.48C90.1201 60.66 89.8668 60.9733 89.6534 61.42V64H88.1834ZM96.3195 64.12C95.9329 64.12 95.5695 64.0633 95.2295 63.95C94.8962 63.83 94.6062 63.66 94.3595 63.44C94.1129 63.22 93.9195 62.95 93.7795 62.63C93.6395 62.3033 93.5695 61.9333 93.5695 61.52C93.5695 61.1133 93.6395 60.75 93.7795 60.43C93.9262 60.1033 94.1195 59.83 94.3595 59.61C94.5995 59.3833 94.8729 59.2133 95.1795 59.1C95.4929 58.98 95.8162 58.92 96.1495 58.92C96.5295 58.92 96.8662 58.98 97.1595 59.1C97.4529 59.22 97.6962 59.3867 97.8895 59.6C98.0895 59.8133 98.2395 60.0667 98.3395 60.36C98.4395 60.6467 98.4895 60.96 98.4895 61.3C98.4895 61.4333 98.4795 61.5633 98.4595 61.69C98.4462 61.81 98.4329 61.9 98.4195 61.96H95.0395C95.1129 62.32 95.2762 62.5833 95.5295 62.75C95.7829 62.9167 96.1129 63 96.5195 63C96.7462 63 96.9595 62.97 97.1595 62.91C97.3662 62.85 97.5795 62.7633 97.7995 62.65L98.2895 63.54C98.0029 63.72 97.6862 63.8633 97.3395 63.97C96.9929 64.07 96.6529 64.12 96.3195 64.12ZM96.1995 60.04C95.9062 60.04 95.6595 60.1167 95.4595 60.27C95.2662 60.4233 95.1329 60.6567 95.0595 60.97H97.1795C97.1062 60.35 96.7795 60.04 96.1995 60.04ZM99.7356 64V59.04H100.936L101.046 59.7H101.086C101.299 59.4867 101.542 59.3033 101.816 59.15C102.096 58.9967 102.422 58.92 102.796 58.92C103.356 58.92 103.766 59.1 104.026 59.46C104.286 59.82 104.416 60.3133 104.416 60.94V64H102.946V61.13C102.946 60.7967 102.892 60.5533 102.786 60.4C102.679 60.2467 102.489 60.17 102.216 60.17C102.016 60.17 101.839 60.2133 101.686 60.3C101.539 60.3867 101.379 60.5167 101.206 60.69V64H99.7356ZM108.442 64.12C108.048 64.12 107.685 64.0633 107.352 63.95C107.018 63.83 106.725 63.66 106.472 63.44C106.225 63.22 106.032 62.95 105.892 62.63C105.752 62.3033 105.682 61.9333 105.682 61.52C105.682 61.1067 105.758 60.74 105.912 60.42C106.072 60.0933 106.282 59.82 106.542 59.6C106.808 59.38 107.115 59.2133 107.462 59.1C107.808 58.98 108.172 58.92 108.552 58.92C108.945 58.92 109.298 58.9833 109.612 59.11C109.932 59.2367 110.198 59.3967 110.412 59.59L109.732 60.5C109.365 60.24 108.998 60.11 108.632 60.11C108.205 60.11 107.858 60.2367 107.592 60.49C107.325 60.7433 107.192 61.0867 107.192 61.52C107.192 61.9533 107.318 62.2967 107.572 62.55C107.832 62.8033 108.168 62.93 108.582 62.93C108.842 62.93 109.078 62.8833 109.292 62.79C109.512 62.6967 109.712 62.5867 109.892 62.46L110.482 63.39C110.182 63.6433 109.852 63.83 109.492 63.95C109.132 64.0633 108.782 64.12 108.442 64.12ZM114.308 64.12C113.921 64.12 113.558 64.0633 113.218 63.95C112.884 63.83 112.594 63.66 112.348 63.44C112.101 63.22 111.908 62.95 111.768 62.63C111.628 62.3033 111.558 61.9333 111.558 61.52C111.558 61.1133 111.628 60.75 111.768 60.43C111.914 60.1033 112.108 59.83 112.348 59.61C112.588 59.3833 112.861 59.2133 113.168 59.1C113.481 58.98 113.804 58.92 114.138 58.92C114.518 58.92 114.854 58.98 115.148 59.1C115.441 59.22 115.684 59.3867 115.878 59.6C116.078 59.8133 116.228 60.0667 116.328 60.36C116.428 60.6467 116.478 60.96 116.478 61.3C116.478 61.4333 116.468 61.5633 116.448 61.69C116.434 61.81 116.421 61.9 116.408 61.96H113.028C113.101 62.32 113.264 62.5833 113.518 62.75C113.771 62.9167 114.101 63 114.508 63C114.734 63 114.948 62.97 115.148 62.91C115.354 62.85 115.568 62.7633 115.788 62.65L116.278 63.54C115.991 63.72 115.674 63.8633 115.328 63.97C114.981 64.07 114.641 64.12 114.308 64.12ZM114.188 60.04C113.894 60.04 113.648 60.1167 113.448 60.27C113.254 60.4233 113.121 60.6567 113.048 60.97H115.168C115.094 60.35 114.768 60.04 114.188 60.04ZM119.964 64.12C119.517 64.12 119.081 64.0467 118.654 63.9C118.227 63.7533 117.854 63.5733 117.534 63.36L118.164 62.44C118.471 62.6333 118.791 62.78 119.124 62.88C119.457 62.98 119.804 63.03 120.164 63.03C120.437 63.03 120.637 62.99 120.764 62.91C120.891 62.83 120.954 62.73 120.954 62.61C120.954 62.5433 120.934 62.4833 120.894 62.43C120.861 62.3767 120.797 62.33 120.704 62.29C120.617 62.2433 120.494 62.2 120.334 62.16C120.174 62.12 119.974 62.0733 119.734 62.02C119.061 61.8733 118.577 61.6767 118.284 61.43C117.991 61.1767 117.844 60.8567 117.844 60.47C117.844 60.2433 117.897 60.0333 118.004 59.84C118.111 59.6467 118.261 59.4833 118.454 59.35C118.654 59.2167 118.894 59.1133 119.174 59.04C119.454 58.96 119.771 58.92 120.124 58.92C120.571 58.92 120.974 58.9933 121.334 59.14C121.701 59.28 122.014 59.4333 122.274 59.6L121.614 60.48C121.361 60.3267 121.097 60.21 120.824 60.13C120.551 60.05 120.274 60.01 119.994 60.01C119.761 60.01 119.587 60.0467 119.474 60.12C119.361 60.1933 119.304 60.2867 119.304 60.4C119.304 60.54 119.391 60.64 119.564 60.7C119.737 60.76 120.034 60.8367 120.454 60.93C120.834 61.0167 121.151 61.11 121.404 61.21C121.657 61.31 121.857 61.4233 122.004 61.55C122.151 61.6767 122.254 61.82 122.314 61.98C122.374 62.14 122.404 62.32 122.404 62.52C122.404 62.7467 122.351 62.9567 122.244 63.15C122.137 63.3433 121.981 63.5133 121.774 63.66C121.574 63.8 121.321 63.9133 121.014 64C120.714 64.08 120.364 64.12 119.964 64.12Z" fill="#30394B"/>
<path d="M10.002 112V105.48H14.322V106.72H11.482V108.03H13.892V109.26H11.482V110.76H14.422V112H10.002ZM17.3081 112.12C16.7415 112.12 16.3315 111.94 16.0781 111.58C15.8248 111.22 15.6981 110.727 15.6981 110.1V107.04H17.1681V109.91C17.1681 110.243 17.2181 110.487 17.3181 110.64C17.4181 110.793 17.6081 110.87 17.8881 110.87C18.0748 110.87 18.2381 110.83 18.3781 110.75C18.5248 110.67 18.6848 110.52 18.8581 110.3V107.04H20.3281V112H19.1281L19.0181 111.29H18.9781C18.7581 111.543 18.5148 111.747 18.2481 111.9C17.9815 112.047 17.6681 112.12 17.3081 112.12ZM24.5042 112.12C24.1109 112.12 23.7476 112.063 23.4142 111.95C23.0809 111.83 22.7876 111.66 22.5342 111.44C22.2876 111.22 22.0942 110.95 21.9542 110.63C21.8142 110.303 21.7442 109.933 21.7442 109.52C21.7442 109.107 21.8209 108.74 21.9742 108.42C22.1342 108.093 22.3442 107.82 22.6042 107.6C22.8709 107.38 23.1776 107.213 23.5242 107.1C23.8709 106.98 24.2342 106.92 24.6142 106.92C25.0076 106.92 25.3609 106.983 25.6742 107.11C25.9942 107.237 26.2609 107.397 26.4742 107.59L25.7942 108.5C25.4276 108.24 25.0609 108.11 24.6942 108.11C24.2676 108.11 23.9209 108.237 23.6542 108.49C23.3876 108.743 23.2542 109.087 23.2542 109.52C23.2542 109.953 23.3809 110.297 23.6342 110.55C23.8942 110.803 24.2309 110.93 24.6442 110.93C24.9042 110.93 25.1409 110.883 25.3542 110.79C25.5742 110.697 25.7742 110.587 25.9542 110.46L26.5442 111.39C26.2442 111.643 25.9142 111.83 25.5542 111.95C25.1942 112.063 24.8442 112.12 24.5042 112.12ZM31.0203 112.12C30.3936 112.12 29.9203 111.937 29.6003 111.57C29.287 111.197 29.1303 110.693 29.1303 110.06V106.15H27.5703V104.99H30.6003V110.12C30.6003 110.273 30.6203 110.403 30.6603 110.51C30.707 110.61 30.767 110.693 30.8403 110.76C30.9203 110.82 31.007 110.863 31.1003 110.89C31.2003 110.917 31.3036 110.93 31.4103 110.93C31.5236 110.93 31.6403 110.92 31.7603 110.9C31.887 110.873 32.027 110.83 32.1803 110.77L32.5103 111.85C32.377 111.89 32.2536 111.927 32.1403 111.96C32.027 111.993 31.9136 112.02 31.8003 112.04C31.687 112.067 31.567 112.087 31.4403 112.1C31.3136 112.113 31.1736 112.12 31.0203 112.12ZM35.8464 112V108.19H33.8564V107.04H37.3164V112H35.8464ZM36.5164 106.26C36.2297 106.26 35.9931 106.18 35.8064 106.02C35.6264 105.86 35.5364 105.643 35.5364 105.37C35.5364 105.097 35.6264 104.877 35.8064 104.71C35.9931 104.537 36.2297 104.45 36.5164 104.45C36.8031 104.45 37.0364 104.537 37.2164 104.71C37.4031 104.877 37.4964 105.097 37.4964 105.37C37.4964 105.643 37.4031 105.86 37.2164 106.02C37.0364 106.18 36.8031 106.26 36.5164 106.26ZM41.6225 112.12C41.3092 112.12 41.0225 112.06 40.7625 111.94C40.5092 111.82 40.2892 111.65 40.1025 111.43C39.9225 111.203 39.7825 110.93 39.6825 110.61C39.5825 110.29 39.5325 109.927 39.5325 109.52C39.5325 109.113 39.5925 108.75 39.7125 108.43C39.8325 108.11 39.9892 107.84 40.1825 107.62C40.3825 107.393 40.6092 107.22 40.8625 107.1C41.1158 106.98 41.3792 106.92 41.6525 106.92C41.9325 106.92 42.1692 106.967 42.3625 107.06C42.5558 107.147 42.7358 107.277 42.9025 107.45H42.9425L42.8725 106.68V104.99H44.3425V112H43.1425L43.0325 111.49H43.0025C42.8158 111.67 42.6025 111.82 42.3625 111.94C42.1225 112.06 41.8758 112.12 41.6225 112.12ZM42.0025 110.92C42.1692 110.92 42.3225 110.887 42.4625 110.82C42.6025 110.747 42.7392 110.627 42.8725 110.46V108.45C42.7392 108.33 42.6025 108.247 42.4625 108.2C42.3292 108.147 42.1892 108.12 42.0425 108.12C41.7692 108.12 41.5325 108.233 41.3325 108.46C41.1392 108.687 41.0425 109.033 41.0425 109.5C41.0425 109.993 41.1258 110.353 41.2925 110.58C41.4592 110.807 41.6958 110.92 42.0025 110.92ZM48.3586 112.12C47.9719 112.12 47.6086 112.063 47.2686 111.95C46.9353 111.83 46.6453 111.66 46.3986 111.44C46.1519 111.22 45.9586 110.95 45.8186 110.63C45.6786 110.303 45.6086 109.933 45.6086 109.52C45.6086 109.113 45.6786 108.75 45.8186 108.43C45.9653 108.103 46.1586 107.83 46.3986 107.61C46.6386 107.383 46.9119 107.213 47.2186 107.1C47.5319 106.98 47.8553 106.92 48.1886 106.92C48.5686 106.92 48.9053 106.98 49.1986 107.1C49.4919 107.22 49.7353 107.387 49.9286 107.6C50.1286 107.813 50.2786 108.067 50.3786 108.36C50.4786 108.647 50.5286 108.96 50.5286 109.3C50.5286 109.433 50.5186 109.563 50.4986 109.69C50.4853 109.81 50.4719 109.9 50.4586 109.96H47.0786C47.1519 110.32 47.3153 110.583 47.5686 110.75C47.8219 110.917 48.1519 111 48.5586 111C48.7853 111 48.9986 110.97 49.1986 110.91C49.4053 110.85 49.6186 110.763 49.8386 110.65L50.3286 111.54C50.0419 111.72 49.7253 111.863 49.3786 111.97C49.0319 112.07 48.6919 112.12 48.3586 112.12ZM48.2386 108.04C47.9453 108.04 47.6986 108.117 47.4986 108.27C47.3053 108.423 47.1719 108.657 47.0986 108.97H49.2186C49.1453 108.35 48.8186 108.04 48.2386 108.04ZM53.2947 112.12C53.0414 112.12 52.8147 112.08 52.6147 112C52.4147 111.927 52.2447 111.823 52.1047 111.69C51.9647 111.55 51.8547 111.39 51.7747 111.21C51.7014 111.03 51.6647 110.833 51.6647 110.62C51.6647 110.34 51.7247 110.097 51.8447 109.89C51.9647 109.677 52.1547 109.497 52.4147 109.35C52.6814 109.203 53.0214 109.087 53.4347 109C53.848 108.907 54.348 108.843 54.9347 108.81C54.908 108.583 54.808 108.407 54.6347 108.28C54.468 108.153 54.2147 108.09 53.8747 108.09C53.6347 108.09 53.3914 108.133 53.1447 108.22C52.9047 108.3 52.6447 108.41 52.3647 108.55L51.8447 107.59C52.1847 107.397 52.548 107.237 52.9347 107.11C53.328 106.983 53.738 106.92 54.1647 106.92C54.858 106.92 55.4047 107.103 55.8047 107.47C56.2047 107.837 56.4047 108.4 56.4047 109.16V112H55.2047L55.0947 111.44H55.0547C54.8014 111.633 54.5247 111.797 54.2247 111.93C53.9247 112.057 53.6147 112.12 53.2947 112.12ZM53.7647 110.98C53.9847 110.98 54.1914 110.937 54.3847 110.85C54.578 110.757 54.7614 110.643 54.9347 110.51V109.69C54.568 109.71 54.2647 109.743 54.0247 109.79C53.7847 109.837 53.5947 109.897 53.4547 109.97C53.3147 110.037 53.2147 110.117 53.1547 110.21C53.1014 110.303 53.0747 110.403 53.0747 110.51C53.0747 110.67 53.1347 110.79 53.2547 110.87C53.3814 110.943 53.5514 110.98 53.7647 110.98ZM57.7708 112V107.04H58.9708L59.0808 107.7H59.1208C59.3341 107.487 59.5774 107.303 59.8508 107.15C60.1308 106.997 60.4574 106.92 60.8308 106.92C61.3908 106.92 61.8008 107.1 62.0608 107.46C62.3208 107.82 62.4508 108.313 62.4508 108.94V112H60.9808V109.13C60.9808 108.797 60.9274 108.553 60.8208 108.4C60.7141 108.247 60.5241 108.17 60.2508 108.17C60.0508 108.17 59.8741 108.213 59.7208 108.3C59.5741 108.387 59.4141 108.517 59.2408 108.69V112H57.7708ZM71.603 112.12C71.2896 112.12 71.003 112.06 70.743 111.94C70.4896 111.82 70.2696 111.65 70.083 111.43C69.903 111.203 69.763 110.93 69.663 110.61C69.563 110.29 69.513 109.927 69.513 109.52C69.513 109.113 69.573 108.75 69.693 108.43C69.813 108.11 69.9696 107.84 70.163 107.62C70.363 107.393 70.5896 107.22 70.843 107.1C71.0963 106.98 71.3596 106.92 71.633 106.92C71.913 106.92 72.1496 106.967 72.343 107.06C72.5363 107.147 72.7163 107.277 72.883 107.45H72.923L72.853 106.68V104.99H74.323V112H73.123L73.013 111.49H72.983C72.7963 111.67 72.583 111.82 72.343 111.94C72.103 112.06 71.8563 112.12 71.603 112.12ZM71.983 110.92C72.1496 110.92 72.303 110.887 72.443 110.82C72.583 110.747 72.7196 110.627 72.853 110.46V108.45C72.7196 108.33 72.583 108.247 72.443 108.2C72.3096 108.147 72.1696 108.12 72.023 108.12C71.7496 108.12 71.513 108.233 71.313 108.46C71.1196 108.687 71.023 109.033 71.023 109.5C71.023 109.993 71.1063 110.353 71.273 110.58C71.4396 110.807 71.6763 110.92 71.983 110.92ZM77.8191 112V108.19H75.8291V107.04H79.2891V112H77.8191ZM78.4891 106.26C78.2024 106.26 77.9657 106.18 77.7791 106.02C77.5991 105.86 77.5091 105.643 77.5091 105.37C77.5091 105.097 77.5991 104.877 77.7791 104.71C77.9657 104.537 78.2024 104.45 78.4891 104.45C78.7757 104.45 79.0091 104.537 79.1891 104.71C79.3757 104.877 79.4691 105.097 79.4691 105.37C79.4691 105.643 79.3757 105.86 79.1891 106.02C79.0091 106.18 78.7757 106.26 78.4891 106.26ZM83.9952 112.12C83.5485 112.12 83.1118 112.047 82.6852 111.9C82.2585 111.753 81.8852 111.573 81.5652 111.36L82.1952 110.44C82.5018 110.633 82.8218 110.78 83.1552 110.88C83.4885 110.98 83.8352 111.03 84.1952 111.03C84.4685 111.03 84.6685 110.99 84.7952 110.91C84.9218 110.83 84.9852 110.73 84.9852 110.61C84.9852 110.543 84.9652 110.483 84.9252 110.43C84.8918 110.377 84.8285 110.33 84.7352 110.29C84.6485 110.243 84.5252 110.2 84.3652 110.16C84.2052 110.12 84.0052 110.073 83.7652 110.02C83.0918 109.873 82.6085 109.677 82.3152 109.43C82.0218 109.177 81.8752 108.857 81.8752 108.47C81.8752 108.243 81.9285 108.033 82.0352 107.84C82.1418 107.647 82.2918 107.483 82.4852 107.35C82.6852 107.217 82.9252 107.113 83.2052 107.04C83.4852 106.96 83.8018 106.92 84.1552 106.92C84.6018 106.92 85.0052 106.993 85.3652 107.14C85.7318 107.28 86.0452 107.433 86.3052 107.6L85.6452 108.48C85.3918 108.327 85.1285 108.21 84.8552 108.13C84.5818 108.05 84.3052 108.01 84.0252 108.01C83.7918 108.01 83.6185 108.047 83.5052 108.12C83.3918 108.193 83.3352 108.287 83.3352 108.4C83.3352 108.54 83.4218 108.64 83.5952 108.7C83.7685 108.76 84.0652 108.837 84.4852 108.93C84.8652 109.017 85.1818 109.11 85.4352 109.21C85.6885 109.31 85.8885 109.423 86.0352 109.55C86.1818 109.677 86.2852 109.82 86.3452 109.98C86.4052 110.14 86.4352 110.32 86.4352 110.52C86.4352 110.747 86.3818 110.957 86.2752 111.15C86.1685 111.343 86.0118 111.513 85.8052 111.66C85.6052 111.8 85.3518 111.913 85.0452 112C84.7452 112.08 84.3952 112.12 83.9952 112.12ZM90.9113 112.12C90.5179 112.12 90.1846 112.067 89.9113 111.96C89.6379 111.853 89.4146 111.707 89.2413 111.52C89.0746 111.327 88.9546 111.097 88.8813 110.83C88.8079 110.563 88.7713 110.267 88.7713 109.94V108.19H87.5213V107.1L88.8413 107.04L89.0313 105.52H90.2413V107.04H92.3413V108.19H90.2413V109.93C90.2413 110.31 90.3246 110.58 90.4913 110.74C90.6579 110.893 90.9246 110.97 91.2913 110.97C91.4779 110.97 91.6479 110.953 91.8013 110.92C91.9613 110.887 92.1179 110.843 92.2713 110.79L92.5313 111.85C92.3113 111.917 92.0679 111.977 91.8013 112.03C91.5413 112.09 91.2446 112.12 90.9113 112.12ZM95.2673 112.12C95.014 112.12 94.7873 112.08 94.5873 112C94.3873 111.927 94.2173 111.823 94.0773 111.69C93.9373 111.55 93.8273 111.39 93.7473 111.21C93.674 111.03 93.6373 110.833 93.6373 110.62C93.6373 110.34 93.6973 110.097 93.8173 109.89C93.9373 109.677 94.1273 109.497 94.3873 109.35C94.654 109.203 94.994 109.087 95.4073 109C95.8207 108.907 96.3207 108.843 96.9073 108.81C96.8807 108.583 96.7807 108.407 96.6073 108.28C96.4407 108.153 96.1873 108.09 95.8473 108.09C95.6073 108.09 95.364 108.133 95.1173 108.22C94.8773 108.3 94.6173 108.41 94.3373 108.55L93.8173 107.59C94.1573 107.397 94.5207 107.237 94.9073 107.11C95.3007 106.983 95.7107 106.92 96.1373 106.92C96.8307 106.92 97.3773 107.103 97.7773 107.47C98.1773 107.837 98.3773 108.4 98.3773 109.16V112H97.1773L97.0673 111.44H97.0273C96.774 111.633 96.4973 111.797 96.1973 111.93C95.8973 112.057 95.5873 112.12 95.2673 112.12ZM95.7373 110.98C95.9573 110.98 96.164 110.937 96.3573 110.85C96.5507 110.757 96.734 110.643 96.9073 110.51V109.69C96.5407 109.71 96.2373 109.743 95.9973 109.79C95.7573 109.837 95.5673 109.897 95.4273 109.97C95.2873 110.037 95.1873 110.117 95.1273 110.21C95.074 110.303 95.0473 110.403 95.0473 110.51C95.0473 110.67 95.1073 110.79 95.2273 110.87C95.354 110.943 95.524 110.98 95.7373 110.98ZM99.7434 112V107.04H100.943L101.053 107.7H101.093C101.307 107.487 101.55 107.303 101.823 107.15C102.103 106.997 102.43 106.92 102.803 106.92C103.363 106.92 103.773 107.1 104.033 107.46C104.293 107.82 104.423 108.313 104.423 108.94V112H102.953V109.13C102.953 108.797 102.9 108.553 102.793 108.4C102.687 108.247 102.497 108.17 102.223 108.17C102.023 108.17 101.847 108.213 101.693 108.3C101.547 108.387 101.387 108.517 101.213 108.69V112H99.7434ZM108.45 112.12C108.056 112.12 107.693 112.063 107.36 111.95C107.026 111.83 106.733 111.66 106.48 111.44C106.233 111.22 106.04 110.95 105.9 110.63C105.76 110.303 105.69 109.933 105.69 109.52C105.69 109.107 105.766 108.74 105.92 108.42C106.08 108.093 106.29 107.82 106.55 107.6C106.816 107.38 107.123 107.213 107.47 107.1C107.816 106.98 108.18 106.92 108.56 106.92C108.953 106.92 109.306 106.983 109.62 107.11C109.94 107.237 110.206 107.397 110.42 107.59L109.74 108.5C109.373 108.24 109.006 108.11 108.64 108.11C108.213 108.11 107.866 108.237 107.6 108.49C107.333 108.743 107.2 109.087 107.2 109.52C107.2 109.953 107.326 110.297 107.58 110.55C107.84 110.803 108.176 110.93 108.59 110.93C108.85 110.93 109.086 110.883 109.3 110.79C109.52 110.697 109.72 110.587 109.9 110.46L110.49 111.39C110.19 111.643 109.86 111.83 109.5 111.95C109.14 112.063 108.79 112.12 108.45 112.12ZM114.316 112.12C113.929 112.12 113.566 112.063 113.226 111.95C112.892 111.83 112.602 111.66 112.356 111.44C112.109 111.22 111.916 110.95 111.776 110.63C111.636 110.303 111.566 109.933 111.566 109.52C111.566 109.113 111.636 108.75 111.776 108.43C111.922 108.103 112.116 107.83 112.356 107.61C112.596 107.383 112.869 107.213 113.176 107.1C113.489 106.98 113.812 106.92 114.146 106.92C114.526 106.92 114.862 106.98 115.156 107.1C115.449 107.22 115.692 107.387 115.886 107.6C116.086 107.813 116.236 108.067 116.336 108.36C116.436 108.647 116.486 108.96 116.486 109.3C116.486 109.433 116.476 109.563 116.456 109.69C116.442 109.81 116.429 109.9 116.416 109.96H113.036C113.109 110.32 113.272 110.583 113.526 110.75C113.779 110.917 114.109 111 114.516 111C114.742 111 114.956 110.97 115.156 110.91C115.362 110.85 115.576 110.763 115.796 110.65L116.286 111.54C115.999 111.72 115.682 111.863 115.336 111.97C114.989 112.07 114.649 112.12 114.316 112.12ZM114.196 108.04C113.902 108.04 113.656 108.117 113.456 108.27C113.262 108.423 113.129 108.657 113.056 108.97H115.176C115.102 108.35 114.776 108.04 114.196 108.04Z" fill="#BB6BD9"/>
<path d="M129.704 108.06V107.02H134.304V108.06H129.704ZM129.704 110.37V109.33H134.304V110.37H129.704Z" fill="white"/>
<path d="M170 108.5L177 116.5V94.5H492" stroke="#30394B" stroke-width="2"/>
<path d="M132.5 16C132.5 15.7239 132.276 15.5 132 15.5C131.724 15.5 131.5 15.7239 131.5 16L132.5 16ZM131.646 61.3536C131.842 61.5488 132.158 61.5488 132.354 61.3536L135.536 58.1716C135.731 57.9763 135.731 57.6597 135.536 57.4645C135.34 57.2692 135.024 57.2692 134.828 57.4645L132 60.2929L129.172 57.4645C128.976 57.2692 128.66 57.2692 128.464 57.4645C128.269 57.6597 128.269 57.9763 128.464 58.1716L131.646 61.3536ZM131.5 16L131.5 61L132.5 61L132.5 16L131.5 16Z" fill="url(#paint0_linear)"/>
<path d="M132.5 64C132.5 63.7239 132.276 63.5 132 63.5C131.724 63.5 131.5 63.7239 131.5 64L132.5 64ZM131.646 95.3536C131.842 95.5488 132.158 95.5488 132.354 95.3536L135.536 92.1716C135.731 91.9763 135.731 91.6597 135.536 91.4645C135.34 91.2692 135.024 91.2692 134.828 91.4645L132 94.2929L129.172 91.4645C128.976 91.2692 128.66 91.2692 128.464 91.4645C128.269 91.6597 128.269 91.9763 128.464 92.1716L131.646 95.3536ZM131.5 64L131.5 95L132.5 95L132.5 64L131.5 64Z" fill="url(#paint1_linear)"/>
<path d="M193.798 23.148C193.014 22.452 192.394 21.648 191.938 20.736C191.49 19.824 191.266 18.8 191.266 17.664C191.266 16.528 191.49 15.504 191.938 14.592C192.394 13.68 193.014 12.876 193.798 12.18L194.782 12.96C194.07 13.656 193.55 14.38 193.222 15.132C192.902 15.876 192.742 16.72 192.742 17.664C192.742 18.136 192.782 18.584 192.862 19.008C192.942 19.424 193.062 19.824 193.222 20.208C193.39 20.592 193.602 20.96 193.858 21.312C194.114 21.672 194.422 22.024 194.782 22.368L193.798 23.148ZM218.715 17.664V16.416H224.235V17.664H218.715ZM249.152 23.148L248.168 22.368C248.528 22.024 248.836 21.672 249.092 21.312C249.348 20.96 249.556 20.592 249.716 20.208C249.884 19.824 250.008 19.424 250.088 19.008C250.168 18.584 250.208 18.136 250.208 17.664C250.208 16.72 250.044 15.876 249.716 15.132C249.396 14.38 248.88 13.656 248.168 12.96L249.152 12.18C249.936 12.876 250.552 13.68 251 14.592C251.456 15.504 251.684 16.528 251.684 17.664C251.684 18.8 251.456 19.824 251 20.736C250.552 21.648 249.936 22.452 249.152 23.148ZM271.194 19.872V17.664H269.082V16.416H271.194V14.208H272.49V16.416H274.602V17.664H272.49V19.872H271.194ZM287.337 23.148C286.553 22.452 285.933 21.648 285.477 20.736C285.029 19.824 284.805 18.8 284.805 17.664C284.805 16.528 285.029 15.504 285.477 14.592C285.933 13.68 286.553 12.876 287.337 12.18L288.321 12.96C287.609 13.656 287.089 14.38 286.761 15.132C286.441 15.876 286.281 16.72 286.281 17.664C286.281 18.136 286.321 18.584 286.401 19.008C286.481 19.424 286.601 19.824 286.761 20.208C286.929 20.592 287.141 20.96 287.397 21.312C287.653 21.672 287.961 22.024 288.321 22.368L287.337 23.148ZM312.254 17.664V16.416H317.774V17.664H312.254ZM342.691 23.148L341.707 22.368C342.067 22.024 342.375 21.672 342.631 21.312C342.887 20.96 343.095 20.592 343.255 20.208C343.423 19.824 343.547 19.424 343.627 19.008C343.707 18.584 343.747 18.136 343.747 17.664C343.747 16.72 343.583 15.876 343.255 15.132C342.935 14.38 342.419 13.656 341.707 12.96L342.691 12.18C343.475 12.876 344.091 13.68 344.539 14.592C344.995 15.504 345.223 16.528 345.223 17.664C345.223 18.8 344.995 19.824 344.539 20.736C344.091 21.648 343.475 22.452 342.691 23.148ZM364.733 19.872V17.664H362.621V16.416H364.733V14.208H366.029V16.416H368.141V17.664H366.029V19.872H364.733ZM379.772 16.596C379.556 16.596 379.372 16.524 379.22 16.38C379.076 16.236 379.004 16.052 379.004 15.828C379.004 15.596 379.076 15.408 379.22 15.264C379.372 15.112 379.556 15.036 379.772 15.036C379.988 15.036 380.168 15.112 380.312 15.264C380.464 15.408 380.54 15.596 380.54 15.828C380.54 16.052 380.464 16.236 380.312 16.38C380.168 16.524 379.988 16.596 379.772 16.596ZM386.967 16.596C386.751 16.596 386.567 16.524 386.415 16.38C386.271 16.236 386.199 16.052 386.199 15.828C386.199 15.596 386.271 15.408 386.415 15.264C386.567 15.112 386.751 15.036 386.967 15.036C387.183 15.036 387.363 15.112 387.507 15.264C387.659 15.408 387.735 15.596 387.735 15.828C387.735 16.052 387.659 16.236 387.507 16.38C387.363 16.524 387.183 16.596 386.967 16.596ZM394.163 16.596C393.947 16.596 393.763 16.524 393.611 16.38C393.467 16.236 393.395 16.052 393.395 15.828C393.395 15.596 393.467 15.408 393.611 15.264C393.763 15.112 393.947 15.036 394.163 15.036C394.379 15.036 394.559 15.112 394.703 15.264C394.855 15.408 394.931 15.596 394.931 15.828C394.931 16.052 394.855 16.236 394.703 16.38C394.559 16.524 394.379 16.596 394.163 16.596ZM407.905 19.872V17.664H405.793V16.416H407.905V14.208H409.201V16.416H411.313V17.664H409.201V19.872H407.905ZM424.048 23.148C423.264 22.452 422.644 21.648 422.188 20.736C421.74 19.824 421.516 18.8 421.516 17.664C421.516 16.528 421.74 15.504 422.188 14.592C422.644 13.68 423.264 12.876 424.048 12.18L425.032 12.96C424.32 13.656 423.8 14.38 423.472 15.132C423.152 15.876 422.992 16.72 422.992 17.664C422.992 18.136 423.032 18.584 423.112 19.008C423.192 19.424 423.312 19.824 423.472 20.208C423.64 20.592 423.852 20.96 424.108 21.312C424.364 21.672 424.672 22.024 425.032 22.368L424.048 23.148ZM441.77 17.664V16.416H447.29V17.664H441.77ZM472.207 23.148L471.223 22.368C471.583 22.024 471.891 21.672 472.147 21.312C472.403 20.96 472.611 20.592 472.771 20.208C472.939 19.824 473.063 19.424 473.143 19.008C473.223 18.584 473.263 18.136 473.263 17.664C473.263 16.72 473.099 15.876 472.771 15.132C472.451 14.38 471.935 13.656 471.223 12.96L472.207 12.18C472.991 12.876 473.607 13.68 474.055 14.592C474.511 15.504 474.739 16.528 474.739 17.664C474.739 18.8 474.511 19.824 474.055 20.736C473.607 21.648 472.991 22.452 472.207 23.148Z" fill="#30394B"/>
<path d="M200.861 23.208V21.42L200.945 20.46H200.897C200.697 20.66 200.461 20.824 200.189 20.952C199.917 21.08 199.641 21.144 199.361 21.144C198.985 21.144 198.641 21.072 198.329 20.928C198.025 20.784 197.761 20.58 197.537 20.316C197.321 20.044 197.153 19.716 197.033 19.332C196.913 18.948 196.853 18.512 196.853 18.024C196.853 17.536 196.925 17.1 197.069 16.716C197.213 16.332 197.401 16.008 197.633 15.744C197.873 15.472 198.145 15.264 198.449 15.12C198.753 14.976 199.069 14.904 199.397 14.904C199.733 14.904 200.029 14.964 200.285 15.084C200.549 15.204 200.805 15.396 201.053 15.66H201.101L201.245 15.048H202.625V23.208H200.861ZM199.817 19.704C200.017 19.704 200.201 19.664 200.369 19.584C200.537 19.496 200.701 19.352 200.861 19.152V16.74C200.701 16.596 200.537 16.496 200.369 16.44C200.209 16.376 200.041 16.344 199.865 16.344C199.537 16.344 199.253 16.48 199.013 16.752C198.781 17.024 198.665 17.44 198.665 18C198.665 18.592 198.765 19.024 198.965 19.296C199.165 19.568 199.449 19.704 199.817 19.704ZM205.476 23.232V22.152H206.928V19.872H205.62V19.068C205.812 19.044 205.98 19.02 206.124 18.996C206.276 18.964 206.412 18.928 206.532 18.888C206.652 18.848 206.764 18.804 206.868 18.756C206.98 18.7 207.092 18.632 207.204 18.552H208.224V22.152H209.484V23.232H205.476ZM294.4 23.208V21.42L294.484 20.46H294.436C294.236 20.66 294 20.824 293.728 20.952C293.456 21.08 293.18 21.144 292.9 21.144C292.524 21.144 292.18 21.072 291.868 20.928C291.564 20.784 291.3 20.58 291.076 20.316C290.86 20.044 290.692 19.716 290.572 19.332C290.452 18.948 290.392 18.512 290.392 18.024C290.392 17.536 290.464 17.1 290.608 16.716C290.752 16.332 290.94 16.008 291.172 15.744C291.412 15.472 291.684 15.264 291.988 15.12C292.292 14.976 292.608 14.904 292.936 14.904C293.272 14.904 293.568 14.964 293.824 15.084C294.088 15.204 294.344 15.396 294.592 15.66H294.64L294.784 15.048H296.164V23.208H294.4ZM293.356 19.704C293.556 19.704 293.74 19.664 293.908 19.584C294.076 19.496 294.24 19.352 294.4 19.152V16.74C294.24 16.596 294.076 16.496 293.908 16.44C293.748 16.376 293.58 16.344 293.404 16.344C293.076 16.344 292.792 16.48 292.552 16.752C292.32 17.024 292.204 17.44 292.204 18C292.204 18.592 292.304 19.024 292.504 19.296C292.704 19.568 292.988 19.704 293.356 19.704ZM298.883 23.232L298.787 22.548C299.499 22.02 300.059 21.572 300.467 21.204C300.875 20.836 301.079 20.508 301.079 20.22C301.079 19.988 301.007 19.808 300.863 19.68C300.727 19.544 300.531 19.476 300.275 19.476C299.915 19.476 299.591 19.668 299.303 20.052L298.571 19.38C299.059 18.732 299.695 18.408 300.479 18.408C301.031 18.408 301.475 18.548 301.811 18.828C302.155 19.1 302.327 19.488 302.327 19.992C302.327 20.376 302.191 20.732 301.919 21.06C301.647 21.396 301.287 21.76 300.839 22.152H302.495V23.232H298.883ZM431.111 23.208V21.42L431.195 20.46H431.147C430.947 20.66 430.711 20.824 430.439 20.952C430.167 21.08 429.891 21.144 429.611 21.144C429.235 21.144 428.891 21.072 428.579 20.928C428.275 20.784 428.011 20.58 427.787 20.316C427.571 20.044 427.403 19.716 427.283 19.332C427.163 18.948 427.103 18.512 427.103 18.024C427.103 17.536 427.175 17.1 427.319 16.716C427.463 16.332 427.651 16.008 427.883 15.744C428.123 15.472 428.395 15.264 428.699 15.12C429.003 14.976 429.319 14.904 429.647 14.904C429.983 14.904 430.279 14.964 430.535 15.084C430.799 15.204 431.055 15.396 431.303 15.66H431.351L431.495 15.048H432.875V23.208H431.111ZM430.067 19.704C430.267 19.704 430.451 19.664 430.619 19.584C430.787 19.496 430.951 19.352 431.111 19.152V16.74C430.951 16.596 430.787 16.496 430.619 16.44C430.459 16.376 430.291 16.344 430.115 16.344C429.787 16.344 429.503 16.48 429.263 16.752C429.031 17.024 428.915 17.44 428.915 18C428.915 18.592 429.015 19.024 429.215 19.296C429.415 19.568 429.699 19.704 430.067 19.704Z" fill="#E05959"/>
<path d="M233.13 23.208V15.048H234.57L234.702 15.648H234.738C234.978 15.432 235.254 15.256 235.566 15.12C235.878 14.976 236.194 14.904 236.514 14.904C236.882 14.904 237.214 14.976 237.51 15.12C237.806 15.264 238.058 15.468 238.266 15.732C238.474 15.996 238.63 16.316 238.734 16.692C238.846 17.06 238.902 17.472 238.902 17.928C238.902 18.44 238.83 18.896 238.686 19.296C238.542 19.688 238.35 20.024 238.11 20.304C237.87 20.576 237.594 20.784 237.282 20.928C236.978 21.072 236.658 21.144 236.322 21.144C235.778 21.144 235.29 20.928 234.858 20.496H234.81L234.894 21.468V23.208H233.13ZM235.914 19.704C236.25 19.704 236.53 19.568 236.754 19.296C236.978 19.016 237.09 18.568 237.09 17.952C237.09 16.88 236.726 16.344 235.998 16.344C235.622 16.344 235.254 16.528 234.894 16.896V19.308C235.062 19.452 235.234 19.556 235.41 19.62C235.594 19.676 235.762 19.704 235.914 19.704ZM241.453 23.232V22.152H242.905V19.872H241.597V19.068C241.789 19.044 241.957 19.02 242.101 18.996C242.253 18.964 242.389 18.928 242.509 18.888C242.629 18.848 242.741 18.804 242.845 18.756C242.957 18.7 243.069 18.632 243.181 18.552H244.201V22.152H245.461V23.232H241.453ZM326.669 23.208V15.048H328.109L328.241 15.648H328.277C328.517 15.432 328.793 15.256 329.105 15.12C329.417 14.976 329.733 14.904 330.053 14.904C330.421 14.904 330.753 14.976 331.049 15.12C331.345 15.264 331.597 15.468 331.805 15.732C332.013 15.996 332.169 16.316 332.273 16.692C332.385 17.06 332.441 17.472 332.441 17.928C332.441 18.44 332.369 18.896 332.225 19.296C332.081 19.688 331.889 20.024 331.649 20.304C331.409 20.576 331.133 20.784 330.821 20.928C330.517 21.072 330.197 21.144 329.861 21.144C329.317 21.144 328.829 20.928 328.397 20.496H328.349L328.433 21.468V23.208H326.669ZM329.453 19.704C329.789 19.704 330.069 19.568 330.293 19.296C330.517 19.016 330.629 18.568 330.629 17.952C330.629 16.88 330.265 16.344 329.537 16.344C329.161 16.344 328.793 16.528 328.433 16.896V19.308C328.601 19.452 328.773 19.556 328.949 19.62C329.133 19.676 329.301 19.704 329.453 19.704ZM334.86 23.232L334.764 22.548C335.476 22.02 336.036 21.572 336.444 21.204C336.852 20.836 337.056 20.508 337.056 20.22C337.056 19.988 336.984 19.808 336.84 19.68C336.704 19.544 336.508 19.476 336.252 19.476C335.892 19.476 335.568 19.668 335.28 20.052L334.548 19.38C335.036 18.732 335.672 18.408 336.456 18.408C337.008 18.408 337.452 18.548 337.788 18.828C338.132 19.1 338.304 19.488 338.304 19.992C338.304 20.376 338.168 20.732 337.896 21.06C337.624 21.396 337.264 21.76 336.816 22.152H338.472V23.232H334.86ZM456.184 23.208V15.048H457.624L457.756 15.648H457.792C458.032 15.432 458.308 15.256 458.62 15.12C458.932 14.976 459.248 14.904 459.568 14.904C459.936 14.904 460.268 14.976 460.564 15.12C460.86 15.264 461.112 15.468 461.32 15.732C461.528 15.996 461.684 16.316 461.788 16.692C461.9 17.06 461.956 17.472 461.956 17.928C461.956 18.44 461.884 18.896 461.74 19.296C461.596 19.688 461.404 20.024 461.164 20.304C460.924 20.576 460.648 20.784 460.336 20.928C460.032 21.072 459.712 21.144 459.376 21.144C458.832 21.144 458.344 20.928 457.912 20.496H457.864L457.948 21.468V23.208H456.184ZM458.968 19.704C459.304 19.704 459.584 19.568 459.808 19.296C460.032 19.016 460.144 18.568 460.144 17.952C460.144 16.88 459.78 16.344 459.052 16.344C458.676 16.344 458.308 16.528 457.948 16.896V19.308C458.116 19.452 458.288 19.556 458.464 19.62C458.648 19.676 458.816 19.704 458.968 19.704Z" fill="#29A1F8"/>
<path d="M435.678 23V19.032H436.638L436.726 19.56H436.758C436.928 19.3893 437.123 19.2427 437.342 19.12C437.566 18.9973 437.827 18.936 438.126 18.936C438.574 18.936 438.902 19.08 439.11 19.368C439.318 19.656 439.422 20.0507 439.422 20.552V23H438.246V20.704C438.246 20.4373 438.203 20.2427 438.118 20.12C438.032 19.9973 437.88 19.936 437.662 19.936C437.502 19.936 437.36 19.9707 437.238 20.04C437.12 20.1093 436.992 20.2133 436.854 20.352V23H435.678Z" fill="#E05959"/>
<path d="M463.678 23V19.032H464.638L464.726 19.56H464.758C464.928 19.3893 465.123 19.2427 465.342 19.12C465.566 18.9973 465.827 18.936 466.126 18.936C466.574 18.936 466.902 19.08 467.11 19.368C467.318 19.656 467.422 20.0507 467.422 20.552V23H466.246V20.704C466.246 20.4373 466.203 20.2427 466.118 20.12C466.032 19.9973 465.88 19.936 465.662 19.936C465.502 19.936 465.36 19.9707 465.238 20.04C465.12 20.1093 464.992 20.2133 464.854 20.352V23H463.678Z" fill="#29A1F8"/>
<path d="M193.2 67.148C192.416 66.452 191.796 65.648 191.34 64.736C190.892 63.824 190.668 62.8 190.668 61.664C190.668 60.528 190.892 59.504 191.34 58.592C191.796 57.68 192.416 56.876 193.2 56.18L194.184 56.96C193.472 57.656 192.952 58.38 192.624 59.132C192.304 59.876 192.144 60.72 192.144 61.664C192.144 62.136 192.184 62.584 192.264 63.008C192.344 63.424 192.464 63.824 192.624 64.208C192.792 64.592 193.004 64.96 193.26 65.312C193.516 65.672 193.824 66.024 194.184 66.368L193.2 67.148ZM248.555 67.148L247.571 66.368C247.931 66.024 248.239 65.672 248.495 65.312C248.751 64.96 248.959 64.592 249.119 64.208C249.287 63.824 249.411 63.424 249.491 63.008C249.571 62.584 249.611 62.136 249.611 61.664C249.611 60.72 249.447 59.876 249.119 59.132C248.799 58.38 248.283 57.656 247.571 56.96L248.555 56.18C249.339 56.876 249.955 57.68 250.403 58.592C250.859 59.504 251.087 60.528 251.087 61.664C251.087 62.8 250.859 63.824 250.403 64.736C249.955 65.648 249.339 66.452 248.555 67.148ZM255.114 60.488L255.018 59.804C255.73 59.276 256.29 58.828 256.698 58.46C257.106 58.092 257.31 57.764 257.31 57.476C257.31 57.244 257.238 57.064 257.094 56.936C256.958 56.8 256.762 56.732 256.506 56.732C256.146 56.732 255.822 56.924 255.534 57.308L254.802 56.636C255.29 55.988 255.926 55.664 256.71 55.664C257.262 55.664 257.706 55.804 258.042 56.084C258.386 56.356 258.558 56.744 258.558 57.248C258.558 57.632 258.422 57.992 258.15 58.328C257.878 58.656 257.518 59.016 257.07 59.408H258.726V60.488H255.114ZM270.597 63.872V61.664H268.485V60.416H270.597V58.208H271.893V60.416H274.005V61.664H271.893V63.872H270.597ZM286.739 67.148C285.955 66.452 285.335 65.648 284.879 64.736C284.431 63.824 284.207 62.8 284.207 61.664C284.207 60.528 284.431 59.504 284.879 58.592C285.335 57.68 285.955 56.876 286.739 56.18L287.723 56.96C287.011 57.656 286.491 58.38 286.163 59.132C285.843 59.876 285.683 60.72 285.683 61.664C285.683 62.136 285.723 62.584 285.803 63.008C285.883 63.424 286.003 63.824 286.163 64.208C286.331 64.592 286.543 64.96 286.799 65.312C287.055 65.672 287.363 66.024 287.723 66.368L286.739 67.148ZM342.094 67.148L341.11 66.368C341.47 66.024 341.778 65.672 342.034 65.312C342.29 64.96 342.498 64.592 342.658 64.208C342.826 63.824 342.95 63.424 343.03 63.008C343.11 62.584 343.15 62.136 343.15 61.664C343.15 60.72 342.986 59.876 342.658 59.132C342.338 58.38 341.822 57.656 341.11 56.96L342.094 56.18C342.878 56.876 343.494 57.68 343.942 58.592C344.398 59.504 344.626 60.528 344.626 61.664C344.626 62.8 344.398 63.824 343.942 64.736C343.494 65.648 342.878 66.452 342.094 67.148ZM348.653 60.488L348.557 59.804C349.269 59.276 349.829 58.828 350.237 58.46C350.645 58.092 350.849 57.764 350.849 57.476C350.849 57.244 350.777 57.064 350.633 56.936C350.497 56.8 350.301 56.732 350.045 56.732C349.685 56.732 349.361 56.924 349.073 57.308L348.341 56.636C348.829 55.988 349.465 55.664 350.249 55.664C350.801 55.664 351.245 55.804 351.581 56.084C351.925 56.356 352.097 56.744 352.097 57.248C352.097 57.632 351.961 57.992 351.689 58.328C351.417 58.656 351.057 59.016 350.609 59.408H352.265V60.488H348.653ZM364.136 63.872V61.664H362.024V60.416H364.136V58.208H365.432V60.416H367.544V61.664H365.432V63.872H364.136ZM379.174 60.596C378.958 60.596 378.774 60.524 378.622 60.38C378.478 60.236 378.406 60.052 378.406 59.828C378.406 59.596 378.478 59.408 378.622 59.264C378.774 59.112 378.958 59.036 379.174 59.036C379.39 59.036 379.57 59.112 379.714 59.264C379.866 59.408 379.942 59.596 379.942 59.828C379.942 60.052 379.866 60.236 379.714 60.38C379.57 60.524 379.39 60.596 379.174 60.596ZM386.37 60.596C386.154 60.596 385.97 60.524 385.818 60.38C385.674 60.236 385.602 60.052 385.602 59.828C385.602 59.596 385.674 59.408 385.818 59.264C385.97 59.112 386.154 59.036 386.37 59.036C386.586 59.036 386.766 59.112 386.91 59.264C387.062 59.408 387.138 59.596 387.138 59.828C387.138 60.052 387.062 60.236 386.91 60.38C386.766 60.524 386.586 60.596 386.37 60.596ZM393.565 60.596C393.349 60.596 393.165 60.524 393.013 60.38C392.869 60.236 392.797 60.052 392.797 59.828C392.797 59.596 392.869 59.408 393.013 59.264C393.165 59.112 393.349 59.036 393.565 59.036C393.781 59.036 393.961 59.112 394.105 59.264C394.257 59.408 394.333 59.596 394.333 59.828C394.333 60.052 394.257 60.236 394.105 60.38C393.961 60.524 393.781 60.596 393.565 60.596ZM407.307 63.872V61.664H405.195V60.416H407.307V58.208H408.603V60.416H410.715V61.664H408.603V63.872H407.307ZM423.45 67.148C422.666 66.452 422.046 65.648 421.59 64.736C421.142 63.824 420.918 62.8 420.918 61.664C420.918 60.528 421.142 59.504 421.59 58.592C422.046 57.68 422.666 56.876 423.45 56.18L424.434 56.96C423.722 57.656 423.202 58.38 422.874 59.132C422.554 59.876 422.394 60.72 422.394 61.664C422.394 62.136 422.434 62.584 422.514 63.008C422.594 63.424 422.714 63.824 422.874 64.208C423.042 64.592 423.254 64.96 423.51 65.312C423.766 65.672 424.074 66.024 424.434 66.368L423.45 67.148ZM471.609 67.148L470.625 66.368C470.985 66.024 471.293 65.672 471.549 65.312C471.805 64.96 472.013 64.592 472.173 64.208C472.341 63.824 472.465 63.424 472.545 63.008C472.625 62.584 472.665 62.136 472.665 61.664C472.665 60.72 472.501 59.876 472.173 59.132C471.853 58.38 471.337 57.656 470.625 56.96L471.609 56.18C472.393 56.876 473.009 57.68 473.457 58.592C473.913 59.504 474.141 60.528 474.141 61.664C474.141 62.8 473.913 63.824 473.457 64.736C473.009 65.648 472.393 66.452 471.609 67.148ZM478.169 60.488L478.073 59.804C478.785 59.276 479.345 58.828 479.753 58.46C480.161 58.092 480.365 57.764 480.365 57.476C480.365 57.244 480.293 57.064 480.149 56.936C480.013 56.8 479.817 56.732 479.561 56.732C479.201 56.732 478.877 56.924 478.589 57.308L477.857 56.636C478.345 55.988 478.981 55.664 479.765 55.664C480.317 55.664 480.761 55.804 481.097 56.084C481.441 56.356 481.613 56.744 481.613 57.248C481.613 57.632 481.477 57.992 481.205 58.328C480.933 58.656 480.573 59.016 480.125 59.408H481.781V60.488H478.169Z" fill="#30394B"/>
<path d="M200.263 67.208V65.42L200.347 64.46H200.299C200.099 64.66 199.863 64.824 199.591 64.952C199.319 65.08 199.043 65.144 198.763 65.144C198.387 65.144 198.043 65.072 197.731 64.928C197.427 64.784 197.163 64.58 196.939 64.316C196.723 64.044 196.555 63.716 196.435 63.332C196.315 62.948 196.255 62.512 196.255 62.024C196.255 61.536 196.327 61.1 196.471 60.716C196.615 60.332 196.803 60.008 197.035 59.744C197.275 59.472 197.547 59.264 197.851 59.12C198.155 58.976 198.471 58.904 198.799 58.904C199.135 58.904 199.431 58.964 199.687 59.084C199.951 59.204 200.207 59.396 200.455 59.66H200.503L200.647 59.048H202.027V67.208H200.263ZM199.219 63.704C199.419 63.704 199.603 63.664 199.771 63.584C199.939 63.496 200.103 63.352 200.263 63.152V60.74C200.103 60.596 199.939 60.496 199.771 60.44C199.611 60.376 199.443 60.344 199.267 60.344C198.939 60.344 198.655 60.48 198.415 60.752C198.183 61.024 198.067 61.44 198.067 62C198.067 62.592 198.167 63.024 198.367 63.296C198.567 63.568 198.851 63.704 199.219 63.704ZM204.879 67.232V66.152H206.331V63.872H205.023V63.068C205.215 63.044 205.383 63.02 205.527 62.996C205.679 62.964 205.815 62.928 205.935 62.888C206.055 62.848 206.167 62.804 206.271 62.756C206.383 62.7 206.495 62.632 206.607 62.552H207.627V66.152H208.887V67.232H204.879ZM218.117 61.664V60.416H223.637V61.664H218.117ZM232.532 67.208V59.048H233.972L234.104 59.648H234.14C234.38 59.432 234.656 59.256 234.968 59.12C235.28 58.976 235.596 58.904 235.916 58.904C236.284 58.904 236.616 58.976 236.912 59.12C237.208 59.264 237.46 59.468 237.668 59.732C237.876 59.996 238.032 60.316 238.136 60.692C238.248 61.06 238.304 61.472 238.304 61.928C238.304 62.44 238.232 62.896 238.088 63.296C237.944 63.688 237.752 64.024 237.512 64.304C237.272 64.576 236.996 64.784 236.684 64.928C236.38 65.072 236.06 65.144 235.724 65.144C235.18 65.144 234.692 64.928 234.26 64.496H234.212L234.296 65.468V67.208H232.532ZM235.316 63.704C235.652 63.704 235.932 63.568 236.156 63.296C236.38 63.016 236.492 62.568 236.492 61.952C236.492 60.88 236.128 60.344 235.4 60.344C235.024 60.344 234.656 60.528 234.296 60.896V63.308C234.464 63.452 234.636 63.556 234.812 63.62C234.996 63.676 235.164 63.704 235.316 63.704ZM240.855 67.232V66.152H242.307V63.872H240.999V63.068C241.191 63.044 241.359 63.02 241.503 62.996C241.655 62.964 241.791 62.928 241.911 62.888C242.031 62.848 242.143 62.804 242.247 62.756C242.359 62.7 242.471 62.632 242.583 62.552H243.603V66.152H244.863V67.232H240.855ZM293.802 67.208V65.42L293.886 64.46H293.838C293.638 64.66 293.402 64.824 293.13 64.952C292.858 65.08 292.582 65.144 292.302 65.144C291.926 65.144 291.582 65.072 291.27 64.928C290.966 64.784 290.702 64.58 290.478 64.316C290.262 64.044 290.094 63.716 289.974 63.332C289.854 62.948 289.794 62.512 289.794 62.024C289.794 61.536 289.866 61.1 290.01 60.716C290.154 60.332 290.342 60.008 290.574 59.744C290.814 59.472 291.086 59.264 291.39 59.12C291.694 58.976 292.01 58.904 292.338 58.904C292.674 58.904 292.97 58.964 293.226 59.084C293.49 59.204 293.746 59.396 293.994 59.66H294.042L294.186 59.048H295.566V67.208H293.802ZM292.758 63.704C292.958 63.704 293.142 63.664 293.31 63.584C293.478 63.496 293.642 63.352 293.802 63.152V60.74C293.642 60.596 293.478 60.496 293.31 60.44C293.15 60.376 292.982 60.344 292.806 60.344C292.478 60.344 292.194 60.48 291.954 60.752C291.722 61.024 291.606 61.44 291.606 62C291.606 62.592 291.706 63.024 291.906 63.296C292.106 63.568 292.39 63.704 292.758 63.704ZM298.286 67.232L298.19 66.548C298.902 66.02 299.462 65.572 299.87 65.204C300.278 64.836 300.482 64.508 300.482 64.22C300.482 63.988 300.41 63.808 300.266 63.68C300.13 63.544 299.934 63.476 299.678 63.476C299.318 63.476 298.994 63.668 298.706 64.052L297.974 63.38C298.462 62.732 299.098 62.408 299.882 62.408C300.434 62.408 300.878 62.548 301.214 62.828C301.558 63.1 301.73 63.488 301.73 63.992C301.73 64.376 301.594 64.732 301.322 65.06C301.05 65.396 300.69 65.76 300.242 66.152H301.898V67.232H298.286ZM311.656 61.664V60.416H317.176V61.664H311.656ZM326.071 67.208V59.048H327.511L327.643 59.648H327.679C327.919 59.432 328.195 59.256 328.507 59.12C328.819 58.976 329.135 58.904 329.455 58.904C329.823 58.904 330.155 58.976 330.451 59.12C330.747 59.264 330.999 59.468 331.207 59.732C331.415 59.996 331.571 60.316 331.675 60.692C331.787 61.06 331.843 61.472 331.843 61.928C331.843 62.44 331.771 62.896 331.627 63.296C331.483 63.688 331.291 64.024 331.051 64.304C330.811 64.576 330.535 64.784 330.223 64.928C329.919 65.072 329.599 65.144 329.263 65.144C328.719 65.144 328.231 64.928 327.799 64.496H327.751L327.835 65.468V67.208H326.071ZM328.855 63.704C329.191 63.704 329.471 63.568 329.695 63.296C329.919 63.016 330.031 62.568 330.031 61.952C330.031 60.88 329.667 60.344 328.939 60.344C328.563 60.344 328.195 60.528 327.835 60.896V63.308C328.003 63.452 328.175 63.556 328.351 63.62C328.535 63.676 328.703 63.704 328.855 63.704ZM334.262 67.232L334.166 66.548C334.878 66.02 335.438 65.572 335.846 65.204C336.254 64.836 336.458 64.508 336.458 64.22C336.458 63.988 336.386 63.808 336.242 63.68C336.106 63.544 335.91 63.476 335.654 63.476C335.294 63.476 334.97 63.668 334.682 64.052L333.95 63.38C334.438 62.732 335.074 62.408 335.858 62.408C336.41 62.408 336.854 62.548 337.19 62.828C337.534 63.1 337.706 63.488 337.706 63.992C337.706 64.376 337.57 64.732 337.298 65.06C337.026 65.396 336.666 65.76 336.218 66.152H337.874V67.232H334.262ZM430.513 67.208V65.42L430.597 64.46H430.549C430.349 64.66 430.113 64.824 429.841 64.952C429.569 65.08 429.293 65.144 429.013 65.144C428.637 65.144 428.293 65.072 427.981 64.928C427.677 64.784 427.413 64.58 427.189 64.316C426.973 64.044 426.805 63.716 426.685 63.332C426.565 62.948 426.505 62.512 426.505 62.024C426.505 61.536 426.577 61.1 426.721 60.716C426.865 60.332 427.053 60.008 427.285 59.744C427.525 59.472 427.797 59.264 428.101 59.12C428.405 58.976 428.721 58.904 429.049 58.904C429.385 58.904 429.681 58.964 429.937 59.084C430.201 59.204 430.457 59.396 430.705 59.66H430.753L430.897 59.048H432.277V67.208H430.513ZM429.469 63.704C429.669 63.704 429.853 63.664 430.021 63.584C430.189 63.496 430.353 63.352 430.513 63.152V60.74C430.353 60.596 430.189 60.496 430.021 60.44C429.861 60.376 429.693 60.344 429.517 60.344C429.189 60.344 428.905 60.48 428.665 60.752C428.433 61.024 428.317 61.44 428.317 62C428.317 62.592 428.417 63.024 428.617 63.296C428.817 63.568 429.101 63.704 429.469 63.704ZM441.172 61.664V60.416H446.692V61.664H441.172ZM455.587 67.208V59.048H457.027L457.159 59.648H457.195C457.435 59.432 457.711 59.256 458.023 59.12C458.335 58.976 458.651 58.904 458.971 58.904C459.339 58.904 459.671 58.976 459.967 59.12C460.263 59.264 460.515 59.468 460.723 59.732C460.931 59.996 461.087 60.316 461.191 60.692C461.303 61.06 461.359 61.472 461.359 61.928C461.359 62.44 461.287 62.896 461.143 63.296C460.999 63.688 460.807 64.024 460.567 64.304C460.327 64.576 460.051 64.784 459.739 64.928C459.435 65.072 459.115 65.144 458.779 65.144C458.235 65.144 457.747 64.928 457.315 64.496H457.267L457.351 65.468V67.208H455.587ZM458.371 63.704C458.707 63.704 458.987 63.568 459.211 63.296C459.435 63.016 459.547 62.568 459.547 61.952C459.547 60.88 459.183 60.344 458.455 60.344C458.079 60.344 457.711 60.528 457.351 60.896V63.308C457.519 63.452 457.691 63.556 457.867 63.62C458.051 63.676 458.219 63.704 458.371 63.704Z" fill="#BB6BD9"/>
<path d="M193.2 114.148C192.416 113.452 191.796 112.648 191.34 111.736C190.892 110.824 190.668 109.8 190.668 108.664C190.668 107.528 190.892 106.504 191.34 105.592C191.796 104.68 192.416 103.876 193.2 103.18L194.184 103.96C193.472 104.656 192.952 105.38 192.624 106.132C192.304 106.876 192.144 107.72 192.144 108.664C192.144 109.136 192.184 109.584 192.264 110.008C192.344 110.424 192.464 110.824 192.624 111.208C192.792 111.592 193.004 111.96 193.26 112.312C193.516 112.672 193.824 113.024 194.184 113.368L193.2 114.148ZM248.555 114.148L247.571 113.368C247.931 113.024 248.239 112.672 248.495 112.312C248.751 111.96 248.959 111.592 249.119 111.208C249.287 110.824 249.411 110.424 249.491 110.008C249.571 109.584 249.611 109.136 249.611 108.664C249.611 107.72 249.447 106.876 249.119 106.132C248.799 105.38 248.283 104.656 247.571 103.96L248.555 103.18C249.339 103.876 249.955 104.68 250.403 105.592C250.859 106.504 251.087 107.528 251.087 108.664C251.087 109.8 250.859 110.824 250.403 111.736C249.955 112.648 249.339 113.452 248.555 114.148ZM255.114 107.488L255.018 106.804C255.73 106.276 256.29 105.828 256.698 105.46C257.106 105.092 257.31 104.764 257.31 104.476C257.31 104.244 257.238 104.064 257.094 103.936C256.958 103.8 256.762 103.732 256.506 103.732C256.146 103.732 255.822 103.924 255.534 104.308L254.802 103.636C255.29 102.988 255.926 102.664 256.71 102.664C257.262 102.664 257.706 102.804 258.042 103.084C258.386 103.356 258.558 103.744 258.558 104.248C258.558 104.632 258.422 104.992 258.15 105.328C257.878 105.656 257.518 106.016 257.07 106.408H258.726V107.488H255.114ZM270.597 110.872V108.664H268.485V107.416H270.597V105.208H271.893V107.416H274.005V108.664H271.893V110.872H270.597ZM286.739 114.148C285.955 113.452 285.335 112.648 284.879 111.736C284.431 110.824 284.207 109.8 284.207 108.664C284.207 107.528 284.431 106.504 284.879 105.592C285.335 104.68 285.955 103.876 286.739 103.18L287.723 103.96C287.011 104.656 286.491 105.38 286.163 106.132C285.843 106.876 285.683 107.72 285.683 108.664C285.683 109.136 285.723 109.584 285.803 110.008C285.883 110.424 286.003 110.824 286.163 111.208C286.331 111.592 286.543 111.96 286.799 112.312C287.055 112.672 287.363 113.024 287.723 113.368L286.739 114.148ZM342.094 114.148L341.11 113.368C341.47 113.024 341.778 112.672 342.034 112.312C342.29 111.96 342.498 111.592 342.658 111.208C342.826 110.824 342.95 110.424 343.03 110.008C343.11 109.584 343.15 109.136 343.15 108.664C343.15 107.72 342.986 106.876 342.658 106.132C342.338 105.38 341.822 104.656 341.11 103.96L342.094 103.18C342.878 103.876 343.494 104.68 343.942 105.592C344.398 106.504 344.626 107.528 344.626 108.664C344.626 109.8 344.398 110.824 343.942 111.736C343.494 112.648 342.878 113.452 342.094 114.148ZM348.653 107.488L348.557 106.804C349.269 106.276 349.829 105.828 350.237 105.46C350.645 105.092 350.849 104.764 350.849 104.476C350.849 104.244 350.777 104.064 350.633 103.936C350.497 103.8 350.301 103.732 350.045 103.732C349.685 103.732 349.361 103.924 349.073 104.308L348.341 103.636C348.829 102.988 349.465 102.664 350.249 102.664C350.801 102.664 351.245 102.804 351.581 103.084C351.925 103.356 352.097 103.744 352.097 104.248C352.097 104.632 351.961 104.992 351.689 105.328C351.417 105.656 351.057 106.016 350.609 106.408H352.265V107.488H348.653ZM364.136 110.872V108.664H362.024V107.416H364.136V105.208H365.432V107.416H367.544V108.664H365.432V110.872H364.136ZM379.174 107.596C378.958 107.596 378.774 107.524 378.622 107.38C378.478 107.236 378.406 107.052 378.406 106.828C378.406 106.596 378.478 106.408 378.622 106.264C378.774 106.112 378.958 106.036 379.174 106.036C379.39 106.036 379.57 106.112 379.714 106.264C379.866 106.408 379.942 106.596 379.942 106.828C379.942 107.052 379.866 107.236 379.714 107.38C379.57 107.524 379.39 107.596 379.174 107.596ZM386.37 107.596C386.154 107.596 385.97 107.524 385.818 107.38C385.674 107.236 385.602 107.052 385.602 106.828C385.602 106.596 385.674 106.408 385.818 106.264C385.97 106.112 386.154 106.036 386.37 106.036C386.586 106.036 386.766 106.112 386.91 106.264C387.062 106.408 387.138 106.596 387.138 106.828C387.138 107.052 387.062 107.236 386.91 107.38C386.766 107.524 386.586 107.596 386.37 107.596ZM393.565 107.596C393.349 107.596 393.165 107.524 393.013 107.38C392.869 107.236 392.797 107.052 392.797 106.828C392.797 106.596 392.869 106.408 393.013 106.264C393.165 106.112 393.349 106.036 393.565 106.036C393.781 106.036 393.961 106.112 394.105 106.264C394.257 106.408 394.333 106.596 394.333 106.828C394.333 107.052 394.257 107.236 394.105 107.38C393.961 107.524 393.781 107.596 393.565 107.596ZM407.307 110.872V108.664H405.195V107.416H407.307V105.208H408.603V107.416H410.715V108.664H408.603V110.872H407.307ZM423.45 114.148C422.666 113.452 422.046 112.648 421.59 111.736C421.142 110.824 420.918 109.8 420.918 108.664C420.918 107.528 421.142 106.504 421.59 105.592C422.046 104.68 422.666 103.876 423.45 103.18L424.434 103.96C423.722 104.656 423.202 105.38 422.874 106.132C422.554 106.876 422.394 107.72 422.394 108.664C422.394 109.136 422.434 109.584 422.514 110.008C422.594 110.424 422.714 110.824 422.874 111.208C423.042 111.592 423.254 111.96 423.51 112.312C423.766 112.672 424.074 113.024 424.434 113.368L423.45 114.148ZM471.609 114.148L470.625 113.368C470.985 113.024 471.293 112.672 471.549 112.312C471.805 111.96 472.013 111.592 472.173 111.208C472.341 110.824 472.465 110.424 472.545 110.008C472.625 109.584 472.665 109.136 472.665 108.664C472.665 107.72 472.501 106.876 472.173 106.132C471.853 105.38 471.337 104.656 470.625 103.96L471.609 103.18C472.393 103.876 473.009 104.68 473.457 105.592C473.913 106.504 474.141 107.528 474.141 108.664C474.141 109.8 473.913 110.824 473.457 111.736C473.009 112.648 472.393 113.452 471.609 114.148ZM478.169 107.488L478.073 106.804C478.785 106.276 479.345 105.828 479.753 105.46C480.161 105.092 480.365 104.764 480.365 104.476C480.365 104.244 480.293 104.064 480.149 103.936C480.013 103.8 479.817 103.732 479.561 103.732C479.201 103.732 478.877 103.924 478.589 104.308L477.857 103.636C478.345 102.988 478.981 102.664 479.765 102.664C480.317 102.664 480.761 102.804 481.097 103.084C481.441 103.356 481.613 103.744 481.613 104.248C481.613 104.632 481.477 104.992 481.205 105.328C480.933 105.656 480.573 106.016 480.125 106.408H481.781V107.488H478.169Z" fill="#30394B"/>
<path d="M200.263 114.208V112.42L200.347 111.46H200.299C200.099 111.66 199.863 111.824 199.591 111.952C199.319 112.08 199.043 112.144 198.763 112.144C198.387 112.144 198.043 112.072 197.731 111.928C197.427 111.784 197.163 111.58 196.939 111.316C196.723 111.044 196.555 110.716 196.435 110.332C196.315 109.948 196.255 109.512 196.255 109.024C196.255 108.536 196.327 108.1 196.471 107.716C196.615 107.332 196.803 107.008 197.035 106.744C197.275 106.472 197.547 106.264 197.851 106.12C198.155 105.976 198.471 105.904 198.799 105.904C199.135 105.904 199.431 105.964 199.687 106.084C199.951 106.204 200.207 106.396 200.455 106.66H200.503L200.647 106.048H202.027V114.208H200.263ZM199.219 110.704C199.419 110.704 199.603 110.664 199.771 110.584C199.939 110.496 200.103 110.352 200.263 110.152V107.74C200.103 107.596 199.939 107.496 199.771 107.44C199.611 107.376 199.443 107.344 199.267 107.344C198.939 107.344 198.655 107.48 198.415 107.752C198.183 108.024 198.067 108.44 198.067 109C198.067 109.592 198.167 110.024 198.367 110.296C198.567 110.568 198.851 110.704 199.219 110.704ZM204.879 114.232V113.152H206.331V110.872H205.023V110.068C205.215 110.044 205.383 110.02 205.527 109.996C205.679 109.964 205.815 109.928 205.935 109.888C206.055 109.848 206.167 109.804 206.271 109.756C206.383 109.7 206.495 109.632 206.607 109.552H207.627V113.152H208.887V114.232H204.879ZM218.117 108.664V107.416H223.637V108.664H218.117ZM232.532 114.208V106.048H233.972L234.104 106.648H234.14C234.38 106.432 234.656 106.256 234.968 106.12C235.28 105.976 235.596 105.904 235.916 105.904C236.284 105.904 236.616 105.976 236.912 106.12C237.208 106.264 237.46 106.468 237.668 106.732C237.876 106.996 238.032 107.316 238.136 107.692C238.248 108.06 238.304 108.472 238.304 108.928C238.304 109.44 238.232 109.896 238.088 110.296C237.944 110.688 237.752 111.024 237.512 111.304C237.272 111.576 236.996 111.784 236.684 111.928C236.38 112.072 236.06 112.144 235.724 112.144C235.18 112.144 234.692 111.928 234.26 111.496H234.212L234.296 112.468V114.208H232.532ZM235.316 110.704C235.652 110.704 235.932 110.568 236.156 110.296C236.38 110.016 236.492 109.568 236.492 108.952C236.492 107.88 236.128 107.344 235.4 107.344C235.024 107.344 234.656 107.528 234.296 107.896V110.308C234.464 110.452 234.636 110.556 234.812 110.62C234.996 110.676 235.164 110.704 235.316 110.704ZM240.855 114.232V113.152H242.307V110.872H240.999V110.068C241.191 110.044 241.359 110.02 241.503 109.996C241.655 109.964 241.791 109.928 241.911 109.888C242.031 109.848 242.143 109.804 242.247 109.756C242.359 109.7 242.471 109.632 242.583 109.552H243.603V113.152H244.863V114.232H240.855ZM293.802 114.208V112.42L293.886 111.46H293.838C293.638 111.66 293.402 111.824 293.13 111.952C292.858 112.08 292.582 112.144 292.302 112.144C291.926 112.144 291.582 112.072 291.27 111.928C290.966 111.784 290.702 111.58 290.478 111.316C290.262 111.044 290.094 110.716 289.974 110.332C289.854 109.948 289.794 109.512 289.794 109.024C289.794 108.536 289.866 108.1 290.01 107.716C290.154 107.332 290.342 107.008 290.574 106.744C290.814 106.472 291.086 106.264 291.39 106.12C291.694 105.976 292.01 105.904 292.338 105.904C292.674 105.904 292.97 105.964 293.226 106.084C293.49 106.204 293.746 106.396 293.994 106.66H294.042L294.186 106.048H295.566V114.208H293.802ZM292.758 110.704C292.958 110.704 293.142 110.664 293.31 110.584C293.478 110.496 293.642 110.352 293.802 110.152V107.74C293.642 107.596 293.478 107.496 293.31 107.44C293.15 107.376 292.982 107.344 292.806 107.344C292.478 107.344 292.194 107.48 291.954 107.752C291.722 108.024 291.606 108.44 291.606 109C291.606 109.592 291.706 110.024 291.906 110.296C292.106 110.568 292.39 110.704 292.758 110.704ZM298.286 114.232L298.19 113.548C298.902 113.02 299.462 112.572 299.87 112.204C300.278 111.836 300.482 111.508 300.482 111.22C300.482 110.988 300.41 110.808 300.266 110.68C300.13 110.544 299.934 110.476 299.678 110.476C299.318 110.476 298.994 110.668 298.706 111.052L297.974 110.38C298.462 109.732 299.098 109.408 299.882 109.408C300.434 109.408 300.878 109.548 301.214 109.828C301.558 110.1 301.73 110.488 301.73 110.992C301.73 111.376 301.594 111.732 301.322 112.06C301.05 112.396 300.69 112.76 300.242 113.152H301.898V114.232H298.286ZM311.656 108.664V107.416H317.176V108.664H311.656ZM326.071 114.208V106.048H327.511L327.643 106.648H327.679C327.919 106.432 328.195 106.256 328.507 106.12C328.819 105.976 329.135 105.904 329.455 105.904C329.823 105.904 330.155 105.976 330.451 106.12C330.747 106.264 330.999 106.468 331.207 106.732C331.415 106.996 331.571 107.316 331.675 107.692C331.787 108.06 331.843 108.472 331.843 108.928C331.843 109.44 331.771 109.896 331.627 110.296C331.483 110.688 331.291 111.024 331.051 111.304C330.811 111.576 330.535 111.784 330.223 111.928C329.919 112.072 329.599 112.144 329.263 112.144C328.719 112.144 328.231 111.928 327.799 111.496H327.751L327.835 112.468V114.208H326.071ZM328.855 110.704C329.191 110.704 329.471 110.568 329.695 110.296C329.919 110.016 330.031 109.568 330.031 108.952C330.031 107.88 329.667 107.344 328.939 107.344C328.563 107.344 328.195 107.528 327.835 107.896V110.308C328.003 110.452 328.175 110.556 328.351 110.62C328.535 110.676 328.703 110.704 328.855 110.704ZM334.262 114.232L334.166 113.548C334.878 113.02 335.438 112.572 335.846 112.204C336.254 111.836 336.458 111.508 336.458 111.22C336.458 110.988 336.386 110.808 336.242 110.68C336.106 110.544 335.91 110.476 335.654 110.476C335.294 110.476 334.97 110.668 334.682 111.052L333.95 110.38C334.438 109.732 335.074 109.408 335.858 109.408C336.41 109.408 336.854 109.548 337.19 109.828C337.534 110.1 337.706 110.488 337.706 110.992C337.706 111.376 337.57 111.732 337.298 112.06C337.026 112.396 336.666 112.76 336.218 113.152H337.874V114.232H334.262ZM430.513 114.208V112.42L430.597 111.46H430.549C430.349 111.66 430.113 111.824 429.841 111.952C429.569 112.08 429.293 112.144 429.013 112.144C428.637 112.144 428.293 112.072 427.981 111.928C427.677 111.784 427.413 111.58 427.189 111.316C426.973 111.044 426.805 110.716 426.685 110.332C426.565 109.948 426.505 109.512 426.505 109.024C426.505 108.536 426.577 108.1 426.721 107.716C426.865 107.332 427.053 107.008 427.285 106.744C427.525 106.472 427.797 106.264 428.101 106.12C428.405 105.976 428.721 105.904 429.049 105.904C429.385 105.904 429.681 105.964 429.937 106.084C430.201 106.204 430.457 106.396 430.705 106.66H430.753L430.897 106.048H432.277V114.208H430.513ZM429.469 110.704C429.669 110.704 429.853 110.664 430.021 110.584C430.189 110.496 430.353 110.352 430.513 110.152V107.74C430.353 107.596 430.189 107.496 430.021 107.44C429.861 107.376 429.693 107.344 429.517 107.344C429.189 107.344 428.905 107.48 428.665 107.752C428.433 108.024 428.317 108.44 428.317 109C428.317 109.592 428.417 110.024 428.617 110.296C428.817 110.568 429.101 110.704 429.469 110.704ZM441.172 108.664V107.416H446.692V108.664H441.172ZM455.587 114.208V106.048H457.027L457.159 106.648H457.195C457.435 106.432 457.711 106.256 458.023 106.12C458.335 105.976 458.651 105.904 458.971 105.904C459.339 105.904 459.671 105.976 459.967 106.12C460.263 106.264 460.515 106.468 460.723 106.732C460.931 106.996 461.087 107.316 461.191 107.692C461.303 108.06 461.359 108.472 461.359 108.928C461.359 109.44 461.287 109.896 461.143 110.296C460.999 110.688 460.807 111.024 460.567 111.304C460.327 111.576 460.051 111.784 459.739 111.928C459.435 112.072 459.115 112.144 458.779 112.144C458.235 112.144 457.747 111.928 457.315 111.496H457.267L457.351 112.468V114.208H455.587ZM458.371 110.704C458.707 110.704 458.987 110.568 459.211 110.296C459.435 110.016 459.547 109.568 459.547 108.952C459.547 107.88 459.183 107.344 458.455 107.344C458.079 107.344 457.711 107.528 457.351 107.896V110.308C457.519 110.452 457.691 110.556 457.867 110.62C458.051 110.676 458.219 110.704 458.371 110.704Z" fill="#BB6BD9"/>
<path d="M434.678 67V63.032H435.638L435.726 63.56H435.758C435.928 63.3893 436.123 63.2427 436.342 63.12C436.566 62.9973 436.827 62.936 437.126 62.936C437.574 62.936 437.902 63.08 438.11 63.368C438.318 63.656 438.422 64.0507 438.422 64.552V67H437.246V64.704C437.246 64.4373 437.203 64.2427 437.118 64.12C437.032 63.9973 436.88 63.936 436.662 63.936C436.502 63.936 436.36 63.9707 436.238 64.04C436.12 64.1093 435.992 64.2133 435.854 64.352V67H434.678Z" fill="#BB6BD9"/>
<path d="M434.678 114V110.032H435.638L435.726 110.56H435.758C435.928 110.389 436.123 110.243 436.342 110.12C436.566 109.997 436.827 109.936 437.126 109.936C437.574 109.936 437.902 110.08 438.11 110.368C438.318 110.656 438.422 111.051 438.422 111.552V114H437.246V111.704C437.246 111.437 437.203 111.243 437.118 111.12C437.032 110.997 436.88 110.936 436.662 110.936C436.502 110.936 436.36 110.971 436.238 111.04C436.12 111.109 435.992 111.213 435.854 111.352V114H434.678Z" fill="#BB6BD9"/>
<path d="M462.678 67V63.032H463.638L463.726 63.56H463.758C463.928 63.3893 464.123 63.2427 464.342 63.12C464.566 62.9973 464.827 62.936 465.126 62.936C465.574 62.936 465.902 63.08 466.11 63.368C466.318 63.656 466.422 64.0507 466.422 64.552V67H465.246V64.704C465.246 64.4373 465.203 64.2427 465.118 64.12C465.032 63.9973 464.88 63.936 464.662 63.936C464.502 63.936 464.36 63.9707 464.238 64.04C464.12 64.1093 463.992 64.2133 463.854 64.352V67H462.678Z" fill="#BB6BD9"/>
<path d="M462.678 114V110.032H463.638L463.726 110.56H463.758C463.928 110.389 464.123 110.243 464.342 110.12C464.566 109.997 464.827 109.936 465.126 109.936C465.574 109.936 465.902 110.08 466.11 110.368C466.318 110.656 466.422 111.051 466.422 111.552V114H465.246V111.704C465.246 111.437 465.203 111.243 465.118 111.12C465.032 110.997 464.88 110.936 464.662 110.936C464.502 110.936 464.36 110.971 464.238 111.04C464.12 111.109 463.992 111.213 463.854 111.352V114H462.678Z" fill="#BB6BD9"/>
<defs>
<linearGradient id="paint0_linear" x1="132" y1="61" x2="132" y2="16" gradientUnits="userSpaceOnUse">
<stop stop-color="#ABB3C9"/>
<stop offset="1" stop-color="#ABB3C9" stop-opacity="0"/>
</linearGradient>
<linearGradient id="paint1_linear" x1="132" y1="95" x2="132" y2="64" gradientUnits="userSpaceOnUse">
<stop stop-color="#30394B"/>
<stop offset="1" stop-color="#30394B" stop-opacity="0"/>
</linearGradient>
</defs>
</svg>
