<svg width="529" height="171" viewBox="0 0 529 171" fill="none" xmlns="http://www.w3.org/2000/svg">
<rect width="529" height="171" fill="white"/>
<path d="M134 5C134 3.89543 134.895 3 136 3H223C224.105 3 225 3.89543 225 5V29H134V5Z" fill="#30394B"/>
<path d="M3 5C3 3.89543 3.89543 3 5 3H92C93.1046 3 94 3.89543 94 5V29H3V5Z" fill="#30394B"/>
<path d="M148.07 43V38.91H145.88V38.11H149.06V43H148.07ZM148.48 37.16C148.266 37.16 148.09 37.0967 147.95 36.97C147.81 36.8367 147.74 36.6633 147.74 36.45C147.74 36.2367 147.81 36.0667 147.95 35.94C148.09 35.8067 148.266 35.74 148.48 35.74C148.693 35.74 148.87 35.8067 149.01 35.94C149.15 36.0667 149.22 36.2367 149.22 36.45C149.22 36.6633 149.15 36.8367 149.01 36.97C148.87 37.0967 148.693 37.16 148.48 37.16ZM151.886 43V38.11H152.696L152.776 38.9H152.816C153.063 38.6467 153.329 38.4333 153.616 38.26C153.903 38.08 154.236 37.99 154.616 37.99C155.189 37.99 155.609 38.16 155.876 38.5C156.143 38.84 156.276 39.33 156.276 39.97V43H155.286V40.1C155.286 39.6733 155.209 39.36 155.056 39.16C154.903 38.9533 154.639 38.85 154.266 38.85C154.006 38.85 153.773 38.9167 153.566 39.05C153.359 39.1767 153.129 39.37 152.876 39.63V43H151.886ZM159.672 43.12C159.352 43.12 159.062 43.0633 158.802 42.95C158.549 42.8367 158.329 42.67 158.142 42.45C157.955 42.23 157.812 41.9633 157.712 41.65C157.612 41.33 157.562 40.9667 157.562 40.56C157.562 40.16 157.622 39.8033 157.742 39.49C157.869 39.17 158.032 38.9 158.232 38.68C158.439 38.46 158.672 38.29 158.932 38.17C159.199 38.05 159.472 37.99 159.752 37.99C160.039 37.99 160.292 38.0433 160.512 38.15C160.739 38.2567 160.952 38.4067 161.152 38.6H161.182L161.132 37.73V35.91H162.122V43H161.312L161.232 42.4H161.202C161.009 42.5933 160.779 42.7633 160.512 42.91C160.245 43.05 159.965 43.12 159.672 43.12ZM159.902 42.3C160.342 42.3 160.752 42.08 161.132 41.64V39.32C160.939 39.1333 160.745 39.0033 160.552 38.93C160.359 38.8567 160.165 38.82 159.972 38.82C159.779 38.82 159.599 38.86 159.432 38.94C159.265 39.02 159.119 39.1367 158.992 39.29C158.865 39.4367 158.765 39.6167 158.692 39.83C158.619 40.0433 158.582 40.2833 158.582 40.55C158.582 41.1167 158.695 41.55 158.922 41.85C159.155 42.15 159.482 42.3 159.902 42.3ZM166.298 43.12C165.925 43.12 165.578 43.0633 165.258 42.95C164.938 42.8367 164.658 42.67 164.418 42.45C164.178 42.23 163.988 41.96 163.848 41.64C163.715 41.32 163.648 40.9567 163.648 40.55C163.648 40.15 163.718 39.7933 163.858 39.48C163.998 39.16 164.181 38.89 164.408 38.67C164.641 38.45 164.908 38.2833 165.208 38.17C165.508 38.05 165.821 37.99 166.148 37.99C166.508 37.99 166.828 38.0467 167.108 38.16C167.388 38.2733 167.621 38.4333 167.808 38.64C168.001 38.84 168.148 39.0833 168.248 39.37C168.348 39.65 168.398 39.96 168.398 40.3C168.398 40.4067 168.395 40.5067 168.388 40.6C168.381 40.6933 168.371 40.7733 168.358 40.84H164.638C164.691 41.3467 164.881 41.7233 165.208 41.97C165.541 42.2167 165.948 42.34 166.428 42.34C166.701 42.34 166.951 42.3033 167.178 42.23C167.405 42.15 167.628 42.0433 167.848 41.91L168.198 42.54C167.945 42.7067 167.658 42.8467 167.338 42.96C167.025 43.0667 166.678 43.12 166.298 43.12ZM166.178 38.77C165.991 38.77 165.815 38.8 165.648 38.86C165.481 38.9133 165.331 38.9967 165.198 39.11C165.065 39.2233 164.951 39.3633 164.858 39.53C164.765 39.6967 164.698 39.89 164.658 40.11H167.508C167.475 39.6633 167.338 39.33 167.098 39.11C166.865 38.8833 166.558 38.77 166.178 38.77ZM169.564 43L171.384 40.46L169.694 38.11H170.774L171.484 39.11C171.571 39.2433 171.661 39.3833 171.754 39.53C171.847 39.67 171.941 39.8067 172.034 39.94H172.074C172.161 39.8067 172.247 39.6667 172.334 39.52C172.427 39.3733 172.514 39.2333 172.594 39.1L173.244 38.11H174.294L172.594 40.56L174.414 43H173.334L172.554 41.96C172.461 41.82 172.361 41.6733 172.254 41.52C172.147 41.3667 172.041 41.22 171.934 41.08H171.894C171.801 41.2267 171.707 41.3733 171.614 41.52C171.521 41.66 171.427 41.8067 171.334 41.96L170.614 43H169.564Z" fill="#30394B"/>
<path d="M147.581 18.12C147.268 18.12 146.981 18.06 146.721 17.94C146.468 17.82 146.248 17.65 146.061 17.43C145.881 17.2033 145.741 16.93 145.641 16.61C145.541 16.29 145.491 15.9267 145.491 15.52C145.491 15.1133 145.551 14.75 145.671 14.43C145.791 14.11 145.948 13.84 146.141 13.62C146.341 13.3933 146.568 13.22 146.821 13.1C147.075 12.98 147.338 12.92 147.611 12.92C147.891 12.92 148.128 12.9667 148.321 13.06C148.515 13.1467 148.695 13.2767 148.861 13.45H148.901L148.831 12.68V10.99H150.301V18H149.101L148.991 17.49H148.961C148.775 17.67 148.561 17.82 148.321 17.94C148.081 18.06 147.835 18.12 147.581 18.12ZM147.961 16.92C148.128 16.92 148.281 16.8867 148.421 16.82C148.561 16.7467 148.698 16.6267 148.831 16.46V14.45C148.698 14.33 148.561 14.2467 148.421 14.2C148.288 14.1467 148.148 14.12 148.001 14.12C147.728 14.12 147.491 14.2333 147.291 14.46C147.098 14.6867 147.001 15.0333 147.001 15.5C147.001 15.9933 147.085 16.3533 147.251 16.58C147.418 16.8067 147.655 16.92 147.961 16.92ZM154.448 18.12C154.054 18.12 153.691 18.0633 153.358 17.95C153.024 17.83 152.731 17.66 152.478 17.44C152.231 17.22 152.038 16.95 151.898 16.63C151.758 16.3033 151.688 15.9333 151.688 15.52C151.688 15.1067 151.764 14.74 151.918 14.42C152.078 14.0933 152.288 13.82 152.548 13.6C152.814 13.38 153.121 13.2133 153.468 13.1C153.814 12.98 154.178 12.92 154.558 12.92C154.951 12.92 155.304 12.9833 155.618 13.11C155.938 13.2367 156.204 13.3967 156.418 13.59L155.738 14.5C155.371 14.24 155.004 14.11 154.638 14.11C154.211 14.11 153.864 14.2367 153.598 14.49C153.331 14.7433 153.198 15.0867 153.198 15.52C153.198 15.9533 153.324 16.2967 153.578 16.55C153.838 16.8033 154.174 16.93 154.588 16.93C154.848 16.93 155.084 16.8833 155.298 16.79C155.518 16.6967 155.718 16.5867 155.898 16.46L156.488 17.39C156.188 17.6433 155.858 17.83 155.498 17.95C155.138 18.0633 154.788 18.12 154.448 18.12ZM157.614 19.64V18.54H162.414V19.64H157.614ZM166.96 18.12C166.333 18.12 165.86 17.9367 165.54 17.57C165.226 17.1967 165.07 16.6933 165.07 16.06V12.15H163.51V10.99H166.54V16.12C166.54 16.2733 166.56 16.4033 166.6 16.51C166.646 16.61 166.706 16.6933 166.78 16.76C166.86 16.82 166.946 16.8633 167.04 16.89C167.14 16.9167 167.243 16.93 167.35 16.93C167.463 16.93 167.58 16.92 167.7 16.9C167.826 16.8733 167.966 16.83 168.12 16.77L168.45 17.85C168.316 17.89 168.193 17.9267 168.08 17.96C167.966 17.9933 167.853 18.02 167.74 18.04C167.626 18.0667 167.506 18.0867 167.38 18.1C167.253 18.1133 167.113 18.12 166.96 18.12ZM171.786 18V14.19H169.796V13.04H173.256V18H171.786ZM172.456 12.26C172.169 12.26 171.933 12.18 171.746 12.02C171.566 11.86 171.476 11.6433 171.476 11.37C171.476 11.0967 171.566 10.8767 171.746 10.71C171.933 10.5367 172.169 10.45 172.456 10.45C172.743 10.45 172.976 10.5367 173.156 10.71C173.343 10.8767 173.436 11.0967 173.436 11.37C173.436 11.6433 173.343 11.86 173.156 12.02C172.976 12.18 172.743 12.26 172.456 12.26ZM177.962 18.12C177.515 18.12 177.079 18.0467 176.652 17.9C176.225 17.7533 175.852 17.5733 175.532 17.36L176.162 16.44C176.469 16.6333 176.789 16.78 177.122 16.88C177.455 16.98 177.802 17.03 178.162 17.03C178.435 17.03 178.635 16.99 178.762 16.91C178.889 16.83 178.952 16.73 178.952 16.61C178.952 16.5433 178.932 16.4833 178.892 16.43C178.859 16.3767 178.795 16.33 178.702 16.29C178.615 16.2433 178.492 16.2 178.332 16.16C178.172 16.12 177.972 16.0733 177.732 16.02C177.059 15.8733 176.575 15.6767 176.282 15.43C175.989 15.1767 175.842 14.8567 175.842 14.47C175.842 14.2433 175.895 14.0333 176.002 13.84C176.109 13.6467 176.259 13.4833 176.452 13.35C176.652 13.2167 176.892 13.1133 177.172 13.04C177.452 12.96 177.769 12.92 178.122 12.92C178.569 12.92 178.972 12.9933 179.332 13.14C179.699 13.28 180.012 13.4333 180.272 13.6L179.612 14.48C179.359 14.3267 179.095 14.21 178.822 14.13C178.549 14.05 178.272 14.01 177.992 14.01C177.759 14.01 177.585 14.0467 177.472 14.12C177.359 14.1933 177.302 14.2867 177.302 14.4C177.302 14.54 177.389 14.64 177.562 14.7C177.735 14.76 178.032 14.8367 178.452 14.93C178.832 15.0167 179.149 15.11 179.402 15.21C179.655 15.31 179.855 15.4233 180.002 15.55C180.149 15.6767 180.252 15.82 180.312 15.98C180.372 16.14 180.402 16.32 180.402 16.52C180.402 16.7467 180.349 16.9567 180.242 17.15C180.135 17.3433 179.979 17.5133 179.772 17.66C179.572 17.8 179.319 17.9133 179.012 18C178.712 18.08 178.362 18.12 177.962 18.12ZM184.878 18.12C184.485 18.12 184.151 18.0667 183.878 17.96C183.605 17.8533 183.381 17.7067 183.208 17.52C183.041 17.3267 182.921 17.0967 182.848 16.83C182.775 16.5633 182.738 16.2667 182.738 15.94V14.19H181.488V13.1L182.808 13.04L182.998 11.52H184.208V13.04H186.308V14.19H184.208V15.93C184.208 16.31 184.291 16.58 184.458 16.74C184.625 16.8933 184.891 16.97 185.258 16.97C185.445 16.97 185.615 16.9533 185.768 16.92C185.928 16.8867 186.085 16.8433 186.238 16.79L186.498 17.85C186.278 17.9167 186.035 17.9767 185.768 18.03C185.508 18.09 185.211 18.12 184.878 18.12ZM189.774 18V14.19H187.784V13.04H191.244V18H189.774ZM190.444 12.26C190.157 12.26 189.921 12.18 189.734 12.02C189.554 11.86 189.464 11.6433 189.464 11.37C189.464 11.0967 189.554 10.8767 189.734 10.71C189.921 10.5367 190.157 10.45 190.444 10.45C190.731 10.45 190.964 10.5367 191.144 10.71C191.331 10.8767 191.424 11.0967 191.424 11.37C191.424 11.6433 191.331 11.86 191.144 12.02C190.964 12.18 190.731 12.26 190.444 12.26ZM193.71 18V13.04H194.91L195.02 13.7H195.06C195.274 13.4867 195.517 13.3033 195.79 13.15C196.07 12.9967 196.397 12.92 196.77 12.92C197.33 12.92 197.74 13.1 198 13.46C198.26 13.82 198.39 14.3133 198.39 14.94V18H196.92V15.13C196.92 14.7967 196.867 14.5533 196.76 14.4C196.654 14.2467 196.464 14.17 196.19 14.17C195.99 14.17 195.814 14.2133 195.66 14.3C195.514 14.3867 195.354 14.5167 195.18 14.69V18H193.71ZM201.756 20.11C201.436 20.11 201.136 20.0833 200.856 20.03C200.583 19.9833 200.346 19.9067 200.146 19.8C199.946 19.7 199.79 19.57 199.676 19.41C199.563 19.25 199.506 19.06 199.506 18.84C199.506 18.4333 199.763 18.1033 200.276 17.85V17.81C200.136 17.7233 200.016 17.6133 199.916 17.48C199.823 17.3467 199.776 17.1733 199.776 16.96C199.776 16.7933 199.83 16.6267 199.936 16.46C200.05 16.2933 200.193 16.15 200.366 16.03V15.99C200.186 15.87 200.033 15.7033 199.906 15.49C199.78 15.27 199.716 15.0133 199.716 14.72C199.716 14.42 199.773 14.16 199.886 13.94C200.006 13.7133 200.163 13.5267 200.356 13.38C200.55 13.2267 200.773 13.1133 201.026 13.04C201.286 12.96 201.556 12.92 201.836 12.92C202.143 12.92 202.416 12.96 202.656 13.04H204.666V14.12H203.666C203.72 14.1933 203.77 14.29 203.816 14.41C203.863 14.5233 203.886 14.6433 203.886 14.77C203.886 15.0567 203.833 15.3033 203.726 15.51C203.62 15.7167 203.473 15.89 203.286 16.03C203.106 16.1633 202.89 16.2633 202.636 16.33C202.39 16.3967 202.123 16.43 201.836 16.43C201.623 16.43 201.396 16.3967 201.156 16.33C201.083 16.3833 201.026 16.4367 200.986 16.49C200.953 16.5433 200.936 16.6133 200.936 16.7C200.936 16.8333 201.003 16.93 201.136 16.99C201.27 17.0433 201.483 17.07 201.776 17.07H202.696C203.35 17.07 203.846 17.1667 204.186 17.36C204.533 17.5533 204.706 17.8733 204.706 18.32C204.706 18.58 204.636 18.82 204.496 19.04C204.356 19.26 204.16 19.4467 203.906 19.6C203.653 19.76 203.343 19.8833 202.976 19.97C202.61 20.0633 202.203 20.11 201.756 20.11ZM201.836 15.54C202.043 15.54 202.22 15.4733 202.366 15.34C202.513 15.2 202.586 14.9933 202.586 14.72C202.586 14.46 202.513 14.26 202.366 14.12C202.22 13.98 202.043 13.91 201.836 13.91C201.63 13.91 201.453 13.98 201.306 14.12C201.166 14.26 201.096 14.46 201.096 14.72C201.096 14.9933 201.166 15.2 201.306 15.34C201.453 15.4733 201.63 15.54 201.836 15.54ZM201.966 19.18C202.366 19.18 202.69 19.1233 202.936 19.01C203.183 18.8967 203.306 18.7533 203.306 18.58C203.306 18.42 203.233 18.3167 203.086 18.27C202.94 18.2233 202.723 18.2 202.436 18.2H201.816C201.636 18.2 201.486 18.1933 201.366 18.18C201.253 18.1733 201.15 18.1567 201.056 18.13C200.93 18.21 200.84 18.2867 200.786 18.36C200.733 18.44 200.706 18.5267 200.706 18.62C200.706 18.8067 200.816 18.9467 201.036 19.04C201.263 19.1333 201.573 19.18 201.966 19.18ZM207.942 18.12C207.496 18.12 207.059 18.0467 206.632 17.9C206.206 17.7533 205.832 17.5733 205.512 17.36L206.142 16.44C206.449 16.6333 206.769 16.78 207.102 16.88C207.436 16.98 207.782 17.03 208.142 17.03C208.416 17.03 208.616 16.99 208.742 16.91C208.869 16.83 208.932 16.73 208.932 16.61C208.932 16.5433 208.912 16.4833 208.872 16.43C208.839 16.3767 208.776 16.33 208.682 16.29C208.596 16.2433 208.472 16.2 208.312 16.16C208.152 16.12 207.952 16.0733 207.712 16.02C207.039 15.8733 206.556 15.6767 206.262 15.43C205.969 15.1767 205.822 14.8567 205.822 14.47C205.822 14.2433 205.876 14.0333 205.982 13.84C206.089 13.6467 206.239 13.4833 206.432 13.35C206.632 13.2167 206.872 13.1133 207.152 13.04C207.432 12.96 207.749 12.92 208.102 12.92C208.549 12.92 208.952 12.9933 209.312 13.14C209.679 13.28 209.992 13.4333 210.252 13.6L209.592 14.48C209.339 14.3267 209.076 14.21 208.802 14.13C208.529 14.05 208.252 14.01 207.972 14.01C207.739 14.01 207.566 14.0467 207.452 14.12C207.339 14.1933 207.282 14.2867 207.282 14.4C207.282 14.54 207.369 14.64 207.542 14.7C207.716 14.76 208.012 14.8367 208.432 14.93C208.812 15.0167 209.129 15.11 209.382 15.21C209.636 15.31 209.836 15.4233 209.982 15.55C210.129 15.6767 210.232 15.82 210.292 15.98C210.352 16.14 210.382 16.32 210.382 16.52C210.382 16.7467 210.329 16.9567 210.222 17.15C210.116 17.3433 209.959 17.5133 209.752 17.66C209.552 17.8 209.299 17.9133 208.992 18C208.692 18.08 208.342 18.12 207.942 18.12Z" fill="white"/>
<path d="M17.0215 18.12C16.6948 18.12 16.3782 18.0633 16.0715 17.95C15.7715 17.83 15.5015 17.66 15.2615 17.44C15.0282 17.22 14.8415 16.95 14.7015 16.63C14.5615 16.3033 14.4915 15.9333 14.4915 15.52C14.4915 15.1067 14.5615 14.74 14.7015 14.42C14.8415 14.0933 15.0282 13.82 15.2615 13.6C15.5015 13.38 15.7715 13.2133 16.0715 13.1C16.3782 12.98 16.6948 12.92 17.0215 12.92C17.3482 12.92 17.6615 12.98 17.9615 13.1C18.2682 13.2133 18.5382 13.38 18.7715 13.6C19.0115 13.82 19.2015 14.0933 19.3415 14.42C19.4815 14.74 19.5515 15.1067 19.5515 15.52C19.5515 15.9333 19.4815 16.3033 19.3415 16.63C19.2015 16.95 19.0115 17.22 18.7715 17.44C18.5382 17.66 18.2682 17.83 17.9615 17.95C17.6615 18.0633 17.3482 18.12 17.0215 18.12ZM17.0215 16.93C17.3615 16.93 17.6148 16.8033 17.7815 16.55C17.9548 16.2967 18.0415 15.9533 18.0415 15.52C18.0415 15.0867 17.9548 14.7433 17.7815 14.49C17.6148 14.2367 17.3615 14.11 17.0215 14.11C16.6815 14.11 16.4248 14.2367 16.2515 14.49C16.0848 14.7433 16.0015 15.0867 16.0015 15.52C16.0015 15.9533 16.0848 16.2967 16.2515 16.55C16.4248 16.8033 16.6815 16.93 17.0215 16.93ZM22.2476 18.12C21.6809 18.12 21.2709 17.94 21.0176 17.58C20.7642 17.22 20.6376 16.7267 20.6376 16.1V13.04H22.1076V15.91C22.1076 16.2433 22.1576 16.4867 22.2576 16.64C22.3576 16.7933 22.5476 16.87 22.8276 16.87C23.0142 16.87 23.1776 16.83 23.3176 16.75C23.4642 16.67 23.6242 16.52 23.7976 16.3V13.04H25.2676V18H24.0676L23.9576 17.29H23.9176C23.6976 17.5433 23.4542 17.7467 23.1876 17.9C22.9209 18.0467 22.6076 18.12 22.2476 18.12ZM27.1737 18V13.04H28.3737L28.4937 14.12H28.5237C28.7703 13.7133 29.067 13.4133 29.4137 13.22C29.7603 13.02 30.1337 12.92 30.5337 12.92C30.7537 12.92 30.9303 12.9367 31.0637 12.97C31.2037 13.0033 31.347 13.0533 31.4937 13.12L31.1937 14.35C31.0403 14.3033 30.9003 14.27 30.7737 14.25C30.6537 14.2233 30.5003 14.21 30.3137 14.21C30.007 14.21 29.7037 14.3 29.4037 14.48C29.1103 14.66 28.857 14.9733 28.6437 15.42V18H27.1737ZM41.9559 18.12C41.3292 18.12 40.8559 17.9367 40.5359 17.57C40.2225 17.1967 40.0659 16.6933 40.0659 16.06V12.15H38.5059V10.99H41.5359V16.12C41.5359 16.2733 41.5559 16.4033 41.5959 16.51C41.6425 16.61 41.7025 16.6933 41.7759 16.76C41.8559 16.82 41.9425 16.8633 42.0359 16.89C42.1359 16.9167 42.2392 16.93 42.3459 16.93C42.4592 16.93 42.5759 16.92 42.6959 16.9C42.8225 16.8733 42.9625 16.83 43.1159 16.77L43.4459 17.85C43.3125 17.89 43.1892 17.9267 43.0759 17.96C42.9625 17.9933 42.8492 18.02 42.7359 18.04C42.6225 18.0667 42.5025 18.0867 42.3759 18.1C42.2492 18.1133 42.1092 18.12 41.9559 18.12ZM46.782 18V14.19H44.792V13.04H48.252V18H46.782ZM47.452 12.26C47.1653 12.26 46.9286 12.18 46.742 12.02C46.562 11.86 46.472 11.6433 46.472 11.37C46.472 11.0967 46.562 10.8767 46.742 10.71C46.9286 10.5367 47.1653 10.45 47.452 10.45C47.7386 10.45 47.972 10.5367 48.152 10.71C48.3386 10.8767 48.432 11.0967 48.432 11.37C48.432 11.6433 48.3386 11.86 48.152 12.02C47.972 12.18 47.7386 12.26 47.452 12.26ZM52.958 18.12C52.5114 18.12 52.0747 18.0467 51.648 17.9C51.2214 17.7533 50.848 17.5733 50.528 17.36L51.158 16.44C51.4647 16.6333 51.7847 16.78 52.118 16.88C52.4514 16.98 52.798 17.03 53.158 17.03C53.4314 17.03 53.6314 16.99 53.758 16.91C53.8847 16.83 53.948 16.73 53.948 16.61C53.948 16.5433 53.928 16.4833 53.888 16.43C53.8547 16.3767 53.7914 16.33 53.698 16.29C53.6114 16.2433 53.488 16.2 53.328 16.16C53.168 16.12 52.968 16.0733 52.728 16.02C52.0547 15.8733 51.5714 15.6767 51.278 15.43C50.9847 15.1767 50.838 14.8567 50.838 14.47C50.838 14.2433 50.8914 14.0333 50.998 13.84C51.1047 13.6467 51.2547 13.4833 51.448 13.35C51.648 13.2167 51.888 13.1133 52.168 13.04C52.448 12.96 52.7647 12.92 53.118 12.92C53.5647 12.92 53.968 12.9933 54.328 13.14C54.6947 13.28 55.008 13.4333 55.268 13.6L54.608 14.48C54.3547 14.3267 54.0914 14.21 53.818 14.13C53.5447 14.05 53.268 14.01 52.988 14.01C52.7547 14.01 52.5814 14.0467 52.468 14.12C52.3547 14.1933 52.298 14.2867 52.298 14.4C52.298 14.54 52.3847 14.64 52.558 14.7C52.7314 14.76 53.028 14.8367 53.448 14.93C53.828 15.0167 54.1447 15.11 54.398 15.21C54.6514 15.31 54.8514 15.4233 54.998 15.55C55.1447 15.6767 55.248 15.82 55.308 15.98C55.368 16.14 55.398 16.32 55.398 16.52C55.398 16.7467 55.3447 16.9567 55.238 17.15C55.1314 17.3433 54.9747 17.5133 54.768 17.66C54.568 17.8 54.3147 17.9133 54.008 18C53.708 18.08 53.358 18.12 52.958 18.12ZM59.8741 18.12C59.4808 18.12 59.1475 18.0667 58.8741 17.96C58.6008 17.8533 58.3775 17.7067 58.2041 17.52C58.0375 17.3267 57.9175 17.0967 57.8441 16.83C57.7708 16.5633 57.7341 16.2667 57.7341 15.94V14.19H56.4841V13.1L57.8041 13.04L57.9941 11.52H59.2041V13.04H61.3041V14.19H59.2041V15.93C59.2041 16.31 59.2875 16.58 59.4541 16.74C59.6208 16.8933 59.8875 16.97 60.2541 16.97C60.4408 16.97 60.6108 16.9533 60.7641 16.92C60.9241 16.8867 61.0808 16.8433 61.2341 16.79L61.4941 17.85C61.2741 17.9167 61.0308 17.9767 60.7641 18.03C60.5041 18.09 60.2075 18.12 59.8741 18.12ZM64.7702 18V14.19H62.7802V13.04H66.2402V18H64.7702ZM65.4402 12.26C65.1536 12.26 64.9169 12.18 64.7302 12.02C64.5502 11.86 64.4602 11.6433 64.4602 11.37C64.4602 11.0967 64.5502 10.8767 64.7302 10.71C64.9169 10.5367 65.1536 10.45 65.4402 10.45C65.7269 10.45 65.9602 10.5367 66.1402 10.71C66.3269 10.8767 66.4202 11.0967 66.4202 11.37C66.4202 11.6433 66.3269 11.86 66.1402 12.02C65.9602 12.18 65.7269 12.26 65.4402 12.26ZM68.7063 18V13.04H69.9063L70.0163 13.7H70.0563C70.2697 13.4867 70.513 13.3033 70.7863 13.15C71.0663 12.9967 71.393 12.92 71.7663 12.92C72.3263 12.92 72.7363 13.1 72.9963 13.46C73.2563 13.82 73.3863 14.3133 73.3863 14.94V18H71.9163V15.13C71.9163 14.7967 71.863 14.5533 71.7563 14.4C71.6497 14.2467 71.4597 14.17 71.1863 14.17C70.9863 14.17 70.8097 14.2133 70.6563 14.3C70.5097 14.3867 70.3497 14.5167 70.1763 14.69V18H68.7063ZM76.7524 20.11C76.4324 20.11 76.1324 20.0833 75.8524 20.03C75.5791 19.9833 75.3424 19.9067 75.1424 19.8C74.9424 19.7 74.7858 19.57 74.6724 19.41C74.5591 19.25 74.5024 19.06 74.5024 18.84C74.5024 18.4333 74.7591 18.1033 75.2724 17.85V17.81C75.1324 17.7233 75.0124 17.6133 74.9124 17.48C74.8191 17.3467 74.7724 17.1733 74.7724 16.96C74.7724 16.7933 74.8258 16.6267 74.9324 16.46C75.0458 16.2933 75.1891 16.15 75.3624 16.03V15.99C75.1824 15.87 75.0291 15.7033 74.9024 15.49C74.7758 15.27 74.7124 15.0133 74.7124 14.72C74.7124 14.42 74.7691 14.16 74.8824 13.94C75.0024 13.7133 75.1591 13.5267 75.3524 13.38C75.5458 13.2267 75.7691 13.1133 76.0224 13.04C76.2824 12.96 76.5524 12.92 76.8324 12.92C77.1391 12.92 77.4124 12.96 77.6524 13.04H79.6624V14.12H78.6624C78.7158 14.1933 78.7658 14.29 78.8124 14.41C78.8591 14.5233 78.8824 14.6433 78.8824 14.77C78.8824 15.0567 78.8291 15.3033 78.7224 15.51C78.6158 15.7167 78.4691 15.89 78.2824 16.03C78.1024 16.1633 77.8858 16.2633 77.6324 16.33C77.3858 16.3967 77.1191 16.43 76.8324 16.43C76.6191 16.43 76.3924 16.3967 76.1524 16.33C76.0791 16.3833 76.0224 16.4367 75.9824 16.49C75.9491 16.5433 75.9324 16.6133 75.9324 16.7C75.9324 16.8333 75.9991 16.93 76.1324 16.99C76.2658 17.0433 76.4791 17.07 76.7724 17.07H77.6924C78.3458 17.07 78.8424 17.1667 79.1824 17.36C79.5291 17.5533 79.7024 17.8733 79.7024 18.32C79.7024 18.58 79.6324 18.82 79.4924 19.04C79.3524 19.26 79.1558 19.4467 78.9024 19.6C78.6491 19.76 78.3391 19.8833 77.9724 19.97C77.6058 20.0633 77.1991 20.11 76.7524 20.11ZM76.8324 15.54C77.0391 15.54 77.2158 15.4733 77.3624 15.34C77.5091 15.2 77.5824 14.9933 77.5824 14.72C77.5824 14.46 77.5091 14.26 77.3624 14.12C77.2158 13.98 77.0391 13.91 76.8324 13.91C76.6258 13.91 76.4491 13.98 76.3024 14.12C76.1624 14.26 76.0924 14.46 76.0924 14.72C76.0924 14.9933 76.1624 15.2 76.3024 15.34C76.4491 15.4733 76.6258 15.54 76.8324 15.54ZM76.9624 19.18C77.3624 19.18 77.6858 19.1233 77.9324 19.01C78.1791 18.8967 78.3024 18.7533 78.3024 18.58C78.3024 18.42 78.2291 18.3167 78.0824 18.27C77.9358 18.2233 77.7191 18.2 77.4324 18.2H76.8124C76.6324 18.2 76.4824 18.1933 76.3624 18.18C76.2491 18.1733 76.1458 18.1567 76.0524 18.13C75.9258 18.21 75.8358 18.2867 75.7824 18.36C75.7291 18.44 75.7024 18.5267 75.7024 18.62C75.7024 18.8067 75.8124 18.9467 76.0324 19.04C76.2591 19.1333 76.5691 19.18 76.9624 19.18Z" fill="white"/>
<path d="M160.002 68.12C159.635 68.12 159.302 68.05 159.002 67.91C158.702 67.7633 158.445 67.55 158.232 67.27C158.019 66.99 157.852 66.6433 157.732 66.23C157.619 65.8167 157.562 65.34 157.562 64.8C157.562 64.26 157.619 63.7867 157.732 63.38C157.852 62.9733 158.019 62.6333 158.232 62.36C158.445 62.08 158.702 61.8733 159.002 61.74C159.302 61.6 159.635 61.53 160.002 61.53C160.369 61.53 160.702 61.6 161.002 61.74C161.302 61.8733 161.559 62.08 161.772 62.36C161.985 62.6333 162.149 62.9733 162.262 63.38C162.382 63.7867 162.442 64.26 162.442 64.8C162.442 65.34 162.382 65.8167 162.262 66.23C162.149 66.6433 161.985 66.99 161.772 67.27C161.559 67.55 161.302 67.7633 161.002 67.91C160.702 68.05 160.369 68.12 160.002 68.12ZM160.002 66.98C160.162 66.98 160.309 66.9433 160.442 66.87C160.582 66.7967 160.702 66.6767 160.802 66.51C160.902 66.3367 160.982 66.1133 161.042 65.84C161.102 65.56 161.132 65.2133 161.132 64.8C161.132 64.3867 161.102 64.0433 161.042 63.77C160.982 63.4967 160.902 63.28 160.802 63.12C160.702 62.9533 160.582 62.8367 160.442 62.77C160.309 62.7033 160.162 62.67 160.002 62.67C159.842 62.67 159.692 62.7033 159.552 62.77C159.419 62.8367 159.302 62.9533 159.202 63.12C159.102 63.28 159.022 63.4967 158.962 63.77C158.902 64.0433 158.872 64.3867 158.872 64.8C158.872 65.2133 158.902 65.56 158.962 65.84C159.022 66.1133 159.102 66.3367 159.202 66.51C159.302 66.6767 159.419 66.7967 159.552 66.87C159.692 66.9433 159.842 66.98 160.002 66.98ZM160.002 65.54C159.789 65.54 159.609 65.4733 159.462 65.34C159.322 65.2 159.252 65.0133 159.252 64.78C159.252 64.5467 159.322 64.3633 159.462 64.23C159.609 64.09 159.789 64.02 160.002 64.02C160.215 64.02 160.392 64.09 160.532 64.23C160.679 64.3633 160.752 64.5467 160.752 64.78C160.752 65.0133 160.679 65.2 160.532 65.34C160.392 65.4733 160.215 65.54 160.002 65.54Z" fill="#30394B"/>
<path d="M160.002 121.12C159.635 121.12 159.302 121.05 159.002 120.91C158.702 120.763 158.445 120.55 158.232 120.27C158.019 119.99 157.852 119.643 157.732 119.23C157.619 118.817 157.562 118.34 157.562 117.8C157.562 117.26 157.619 116.787 157.732 116.38C157.852 115.973 158.019 115.633 158.232 115.36C158.445 115.08 158.702 114.873 159.002 114.74C159.302 114.6 159.635 114.53 160.002 114.53C160.369 114.53 160.702 114.6 161.002 114.74C161.302 114.873 161.559 115.08 161.772 115.36C161.985 115.633 162.149 115.973 162.262 116.38C162.382 116.787 162.442 117.26 162.442 117.8C162.442 118.34 162.382 118.817 162.262 119.23C162.149 119.643 161.985 119.99 161.772 120.27C161.559 120.55 161.302 120.763 161.002 120.91C160.702 121.05 160.369 121.12 160.002 121.12ZM160.002 119.98C160.162 119.98 160.309 119.943 160.442 119.87C160.582 119.797 160.702 119.677 160.802 119.51C160.902 119.337 160.982 119.113 161.042 118.84C161.102 118.56 161.132 118.213 161.132 117.8C161.132 117.387 161.102 117.043 161.042 116.77C160.982 116.497 160.902 116.28 160.802 116.12C160.702 115.953 160.582 115.837 160.442 115.77C160.309 115.703 160.162 115.67 160.002 115.67C159.842 115.67 159.692 115.703 159.552 115.77C159.419 115.837 159.302 115.953 159.202 116.12C159.102 116.28 159.022 116.497 158.962 116.77C158.902 117.043 158.872 117.387 158.872 117.8C158.872 118.213 158.902 118.56 158.962 118.84C159.022 119.113 159.102 119.337 159.202 119.51C159.302 119.677 159.419 119.797 159.552 119.87C159.692 119.943 159.842 119.98 160.002 119.98ZM160.002 118.54C159.789 118.54 159.609 118.473 159.462 118.34C159.322 118.2 159.252 118.013 159.252 117.78C159.252 117.547 159.322 117.363 159.462 117.23C159.609 117.09 159.789 117.02 160.002 117.02C160.215 117.02 160.392 117.09 160.532 117.23C160.679 117.363 160.752 117.547 160.752 117.78C160.752 118.013 160.679 118.2 160.532 118.34C160.392 118.473 160.215 118.54 160.002 118.54Z" fill="#30394B"/>
<path d="M157.792 93V91.81H159.502V88.14H158.092V87.23C158.305 87.1967 158.495 87.1633 158.662 87.13C158.835 87.09 158.992 87.0467 159.132 87C159.272 86.9533 159.402 86.9033 159.522 86.85C159.649 86.79 159.772 86.7233 159.892 86.65H160.972V91.81H162.412V93H157.792Z" fill="#30394B"/>
<path d="M157.792 149V147.81H159.502V144.14H158.092V143.23C158.305 143.197 158.495 143.163 158.662 143.13C158.835 143.09 158.992 143.047 159.132 143C159.272 142.953 159.402 142.903 159.522 142.85C159.649 142.79 159.772 142.723 159.892 142.65H160.972V147.81H162.412V149H157.792Z" fill="#30394B"/>
<path d="M199.433 43.12C199.2 43.12 198.98 43.0867 198.773 43.02C198.573 42.9533 198.4 42.86 198.253 42.74C198.107 42.6133 197.99 42.4633 197.903 42.29C197.823 42.1167 197.783 41.9233 197.783 41.71C197.783 41.4367 197.847 41.1967 197.973 40.99C198.107 40.7833 198.31 40.6067 198.583 40.46C198.863 40.3133 199.22 40.1933 199.653 40.1C200.093 40.0067 200.62 39.9367 201.233 39.89C201.22 39.59 201.12 39.3333 200.933 39.12C200.753 38.9067 200.447 38.8 200.013 38.8C199.713 38.8 199.42 38.8567 199.133 38.97C198.853 39.0833 198.593 39.21 198.353 39.35L197.983 38.68C198.117 38.6 198.267 38.52 198.433 38.44C198.6 38.3533 198.777 38.2767 198.963 38.21C199.157 38.1433 199.353 38.09 199.553 38.05C199.76 38.01 199.97 37.99 200.183 37.99C200.863 37.99 201.373 38.1733 201.713 38.54C202.053 38.9067 202.223 39.4133 202.223 40.06V43H201.413L201.333 42.37H201.303C201.043 42.57 200.75 42.7467 200.423 42.9C200.103 43.0467 199.773 43.12 199.433 43.12ZM199.713 42.33C199.973 42.33 200.227 42.2733 200.473 42.16C200.727 42.0467 200.98 41.8867 201.233 41.68V40.52C200.753 40.56 200.353 40.6133 200.033 40.68C199.713 40.74 199.457 40.82 199.263 40.92C199.077 41.0133 198.943 41.12 198.863 41.24C198.783 41.36 198.743 41.4933 198.743 41.64C198.743 41.8867 198.837 42.0633 199.023 42.17C199.217 42.2767 199.447 42.33 199.713 42.33ZM206.47 43.12C206.09 43.12 205.733 43.0633 205.4 42.95C205.073 42.8367 204.79 42.67 204.55 42.45C204.31 42.23 204.12 41.9633 203.98 41.65C203.846 41.33 203.78 40.9667 203.78 40.56C203.78 40.1533 203.853 39.79 204 39.47C204.146 39.15 204.346 38.88 204.6 38.66C204.853 38.44 205.143 38.2733 205.47 38.16C205.803 38.0467 206.156 37.99 206.53 37.99C206.93 37.99 207.28 38.06 207.58 38.2C207.88 38.3333 208.13 38.4967 208.33 38.69L207.85 39.32C207.656 39.16 207.456 39.0367 207.25 38.95C207.043 38.8567 206.82 38.81 206.58 38.81C206.32 38.81 206.08 38.8533 205.86 38.94C205.64 39.02 205.45 39.1367 205.29 39.29C205.136 39.4433 205.016 39.63 204.93 39.85C204.843 40.0633 204.8 40.3 204.8 40.56C204.8 40.82 204.84 41.06 204.92 41.28C205.006 41.4933 205.126 41.6767 205.28 41.83C205.44 41.9833 205.626 42.1033 205.84 42.19C206.053 42.27 206.29 42.31 206.55 42.31C206.85 42.31 207.116 42.2533 207.35 42.14C207.59 42.0267 207.806 41.89 208 41.73L208.43 42.37C208.15 42.61 207.843 42.7967 207.51 42.93C207.176 43.0567 206.83 43.12 206.47 43.12ZM212.466 43.12C212.086 43.12 211.729 43.0633 211.396 42.95C211.069 42.8367 210.786 42.67 210.546 42.45C210.306 42.23 210.116 41.9633 209.976 41.65C209.842 41.33 209.776 40.9667 209.776 40.56C209.776 40.1533 209.849 39.79 209.996 39.47C210.142 39.15 210.342 38.88 210.596 38.66C210.849 38.44 211.139 38.2733 211.466 38.16C211.799 38.0467 212.152 37.99 212.526 37.99C212.926 37.99 213.276 38.06 213.576 38.2C213.876 38.3333 214.126 38.4967 214.326 38.69L213.846 39.32C213.652 39.16 213.452 39.0367 213.246 38.95C213.039 38.8567 212.816 38.81 212.576 38.81C212.316 38.81 212.076 38.8533 211.856 38.94C211.636 39.02 211.446 39.1367 211.286 39.29C211.132 39.4433 211.012 39.63 210.926 39.85C210.839 40.0633 210.796 40.3 210.796 40.56C210.796 40.82 210.836 41.06 210.916 41.28C211.002 41.4933 211.122 41.6767 211.276 41.83C211.436 41.9833 211.622 42.1033 211.836 42.19C212.049 42.27 212.286 42.31 212.546 42.31C212.846 42.31 213.112 42.2533 213.346 42.14C213.586 42.0267 213.802 41.89 213.996 41.73L214.426 42.37C214.146 42.61 213.839 42.7967 213.506 42.93C213.172 43.0567 212.826 43.12 212.466 43.12ZM218.012 43.12C217.692 43.12 217.385 43.0633 217.092 42.95C216.798 42.8367 216.538 42.67 216.312 42.45C216.085 42.23 215.905 41.9633 215.772 41.65C215.638 41.33 215.572 40.9667 215.572 40.56C215.572 40.1533 215.638 39.79 215.772 39.47C215.905 39.15 216.085 38.88 216.312 38.66C216.538 38.44 216.798 38.2733 217.092 38.16C217.385 38.0467 217.692 37.99 218.012 37.99C218.332 37.99 218.638 38.0467 218.932 38.16C219.225 38.2733 219.485 38.44 219.712 38.66C219.938 38.88 220.118 39.15 220.252 39.47C220.385 39.79 220.452 40.1533 220.452 40.56C220.452 40.9667 220.385 41.33 220.252 41.65C220.118 41.9633 219.938 42.23 219.712 42.45C219.485 42.67 219.225 42.8367 218.932 42.95C218.638 43.0633 218.332 43.12 218.012 43.12ZM218.012 42.31C218.452 42.31 218.798 42.15 219.052 41.83C219.305 41.51 219.432 41.0867 219.432 40.56C219.432 40.0333 219.305 39.61 219.052 39.29C218.798 38.97 218.452 38.81 218.012 38.81C217.572 38.81 217.225 38.97 216.972 39.29C216.718 39.61 216.592 40.0333 216.592 40.56C216.592 41.0867 216.718 41.51 216.972 41.83C217.225 42.15 217.572 42.31 218.012 42.31ZM221.528 43V38.11H222.308L222.388 38.75H222.408C222.521 38.53 222.661 38.35 222.828 38.21C223.001 38.0633 223.228 37.99 223.508 37.99C223.974 37.99 224.274 38.27 224.408 38.83C224.541 38.5767 224.691 38.3733 224.858 38.22C225.031 38.0667 225.258 37.99 225.538 37.99C225.884 37.99 226.151 38.1233 226.338 38.39C226.531 38.65 226.628 39.0267 226.628 39.52V43H225.658V39.59C225.658 39.09 225.508 38.84 225.208 38.84C225.054 38.84 224.928 38.8967 224.828 39.01C224.728 39.1233 224.621 39.2933 224.508 39.52V43H223.648V39.59C223.648 39.09 223.501 38.84 223.208 38.84C223.054 38.84 222.924 38.8967 222.818 39.01C222.711 39.1233 222.604 39.2933 222.498 39.52V43H221.528ZM227.524 43V38.11H228.304L228.384 38.75H228.404C228.517 38.53 228.657 38.35 228.824 38.21C228.997 38.0633 229.224 37.99 229.504 37.99C229.971 37.99 230.271 38.27 230.404 38.83C230.537 38.5767 230.687 38.3733 230.854 38.22C231.027 38.0667 231.254 37.99 231.534 37.99C231.881 37.99 232.147 38.1233 232.334 38.39C232.527 38.65 232.624 39.0267 232.624 39.52V43H231.654V39.59C231.654 39.09 231.504 38.84 231.204 38.84C231.051 38.84 230.924 38.8967 230.824 39.01C230.724 39.1233 230.617 39.2933 230.504 39.52V43H229.644V39.59C229.644 39.09 229.497 38.84 229.204 38.84C229.051 38.84 228.921 38.8967 228.814 39.01C228.707 39.1233 228.601 39.2933 228.494 39.52V43H227.524ZM236 43.12C235.68 43.12 235.373 43.0633 235.08 42.95C234.787 42.8367 234.527 42.67 234.3 42.45C234.073 42.23 233.893 41.9633 233.76 41.65C233.627 41.33 233.56 40.9667 233.56 40.56C233.56 40.1533 233.627 39.79 233.76 39.47C233.893 39.15 234.073 38.88 234.3 38.66C234.527 38.44 234.787 38.2733 235.08 38.16C235.373 38.0467 235.68 37.99 236 37.99C236.32 37.99 236.627 38.0467 236.92 38.16C237.213 38.2733 237.473 38.44 237.7 38.66C237.927 38.88 238.107 39.15 238.24 39.47C238.373 39.79 238.44 40.1533 238.44 40.56C238.44 40.9667 238.373 41.33 238.24 41.65C238.107 41.9633 237.927 42.23 237.7 42.45C237.473 42.67 237.213 42.8367 236.92 42.95C236.627 43.0633 236.32 43.12 236 43.12ZM236 42.31C236.44 42.31 236.787 42.15 237.04 41.83C237.293 41.51 237.42 41.0867 237.42 40.56C237.42 40.0333 237.293 39.61 237.04 39.29C236.787 38.97 236.44 38.81 236 38.81C235.56 38.81 235.213 38.97 234.96 39.29C234.707 39.61 234.58 40.0333 234.58 40.56C234.58 41.0867 234.707 41.51 234.96 41.83C235.213 42.15 235.56 42.31 236 42.31ZM241.666 43.12C241.346 43.12 241.056 43.0633 240.796 42.95C240.543 42.8367 240.323 42.67 240.136 42.45C239.949 42.23 239.806 41.9633 239.706 41.65C239.606 41.33 239.556 40.9667 239.556 40.56C239.556 40.16 239.616 39.8033 239.736 39.49C239.863 39.17 240.026 38.9 240.226 38.68C240.433 38.46 240.666 38.29 240.926 38.17C241.193 38.05 241.466 37.99 241.746 37.99C242.033 37.99 242.286 38.0433 242.506 38.15C242.733 38.2567 242.946 38.4067 243.146 38.6H243.176L243.126 37.73V35.91H244.116V43H243.306L243.226 42.4H243.196C243.003 42.5933 242.773 42.7633 242.506 42.91C242.239 43.05 241.959 43.12 241.666 43.12ZM241.896 42.3C242.336 42.3 242.746 42.08 243.126 41.64V39.32C242.933 39.1333 242.739 39.0033 242.546 38.93C242.353 38.8567 242.159 38.82 241.966 38.82C241.773 38.82 241.593 38.86 241.426 38.94C241.259 39.02 241.113 39.1367 240.986 39.29C240.859 39.4367 240.759 39.6167 240.686 39.83C240.613 40.0433 240.576 40.2833 240.576 40.55C240.576 41.1167 240.689 41.55 240.916 41.85C241.149 42.15 241.476 42.3 241.896 42.3ZM247.402 43.12C247.169 43.12 246.949 43.0867 246.742 43.02C246.542 42.9533 246.369 42.86 246.222 42.74C246.076 42.6133 245.959 42.4633 245.872 42.29C245.792 42.1167 245.752 41.9233 245.752 41.71C245.752 41.4367 245.816 41.1967 245.942 40.99C246.076 40.7833 246.279 40.6067 246.552 40.46C246.832 40.3133 247.189 40.1933 247.622 40.1C248.062 40.0067 248.589 39.9367 249.202 39.89C249.189 39.59 249.089 39.3333 248.902 39.12C248.722 38.9067 248.416 38.8 247.982 38.8C247.682 38.8 247.389 38.8567 247.102 38.97C246.822 39.0833 246.562 39.21 246.322 39.35L245.952 38.68C246.086 38.6 246.236 38.52 246.402 38.44C246.569 38.3533 246.746 38.2767 246.932 38.21C247.126 38.1433 247.322 38.09 247.522 38.05C247.729 38.01 247.939 37.99 248.152 37.99C248.832 37.99 249.342 38.1733 249.682 38.54C250.022 38.9067 250.192 39.4133 250.192 40.06V43H249.382L249.302 42.37H249.272C249.012 42.57 248.719 42.7467 248.392 42.9C248.072 43.0467 247.742 43.12 247.402 43.12ZM247.682 42.33C247.942 42.33 248.196 42.2733 248.442 42.16C248.696 42.0467 248.949 41.8867 249.202 41.68V40.52C248.722 40.56 248.322 40.6133 248.002 40.68C247.682 40.74 247.426 40.82 247.232 40.92C247.046 41.0133 246.912 41.12 246.832 41.24C246.752 41.36 246.712 41.4933 246.712 41.64C246.712 41.8867 246.806 42.0633 246.992 42.17C247.186 42.2767 247.416 42.33 247.682 42.33ZM254.908 43.12C254.548 43.12 254.242 43.07 253.988 42.97C253.742 42.87 253.542 42.73 253.388 42.55C253.242 42.37 253.135 42.1567 253.068 41.91C253.002 41.6567 252.968 41.3767 252.968 41.07V38.91H251.628V38.16L253.008 38.11L253.138 36.56H253.958V38.11H256.268V38.91H253.958V41.07C253.958 41.49 254.042 41.8033 254.208 42.01C254.382 42.2167 254.692 42.32 255.138 42.32C255.352 42.32 255.548 42.3033 255.728 42.27C255.908 42.23 256.085 42.1767 256.258 42.11L256.458 42.84C256.238 42.9133 256.005 42.9767 255.758 43.03C255.512 43.09 255.228 43.12 254.908 43.12ZM260.284 43.12C259.911 43.12 259.564 43.0633 259.244 42.95C258.924 42.8367 258.644 42.67 258.404 42.45C258.164 42.23 257.974 41.96 257.834 41.64C257.701 41.32 257.634 40.9567 257.634 40.55C257.634 40.15 257.704 39.7933 257.844 39.48C257.984 39.16 258.168 38.89 258.394 38.67C258.628 38.45 258.894 38.2833 259.194 38.17C259.494 38.05 259.808 37.99 260.134 37.99C260.494 37.99 260.814 38.0467 261.094 38.16C261.374 38.2733 261.608 38.4333 261.794 38.64C261.988 38.84 262.134 39.0833 262.234 39.37C262.334 39.65 262.384 39.96 262.384 40.3C262.384 40.4067 262.381 40.5067 262.374 40.6C262.368 40.6933 262.358 40.7733 262.344 40.84H258.624C258.678 41.3467 258.868 41.7233 259.194 41.97C259.528 42.2167 259.934 42.34 260.414 42.34C260.688 42.34 260.938 42.3033 261.164 42.23C261.391 42.15 261.614 42.0433 261.834 41.91L262.184 42.54C261.931 42.7067 261.644 42.8467 261.324 42.96C261.011 43.0667 260.664 43.12 260.284 43.12ZM260.164 38.77C259.978 38.77 259.801 38.8 259.634 38.86C259.468 38.9133 259.318 38.9967 259.184 39.11C259.051 39.2233 258.938 39.3633 258.844 39.53C258.751 39.6967 258.684 39.89 258.644 40.11H261.494C261.461 39.6633 261.324 39.33 261.084 39.11C260.851 38.8833 260.544 38.77 260.164 38.77ZM266.04 43.12C265.574 43.12 265.134 43.0467 264.72 42.9C264.307 42.7467 263.95 42.5667 263.65 42.36L264.09 41.72C264.377 41.92 264.687 42.0767 265.02 42.19C265.36 42.3033 265.744 42.36 266.17 42.36C266.55 42.36 266.83 42.2967 267.01 42.17C267.19 42.0367 267.28 41.8767 267.28 41.69C267.28 41.6033 267.264 41.5233 267.23 41.45C267.197 41.3767 267.127 41.31 267.02 41.25C266.92 41.1833 266.777 41.12 266.59 41.06C266.404 41 266.157 40.9367 265.85 40.87C265.204 40.7367 264.724 40.5567 264.41 40.33C264.104 40.0967 263.95 39.7933 263.95 39.42C263.95 39.2133 263.994 39.0233 264.08 38.85C264.174 38.6767 264.307 38.5267 264.48 38.4C264.66 38.2733 264.88 38.1733 265.14 38.1C265.4 38.0267 265.7 37.99 266.04 37.99C266.427 37.99 266.794 38.0567 267.14 38.19C267.494 38.3167 267.794 38.4633 268.04 38.63L267.58 39.25C267.347 39.0967 267.09 38.9767 266.81 38.89C266.537 38.7967 266.25 38.75 265.95 38.75C265.577 38.75 265.314 38.81 265.16 38.93C265.014 39.05 264.94 39.1967 264.94 39.37C264.94 39.5633 265.044 39.71 265.25 39.81C265.457 39.91 265.8 40.01 266.28 40.11C266.68 40.1967 267.007 40.29 267.26 40.39C267.52 40.49 267.724 40.6 267.87 40.72C268.024 40.84 268.13 40.9767 268.19 41.13C268.25 41.2767 268.28 41.4433 268.28 41.63C268.28 41.8367 268.23 42.03 268.13 42.21C268.03 42.39 267.884 42.55 267.69 42.69C267.504 42.8233 267.27 42.9267 266.99 43C266.717 43.08 266.4 43.12 266.04 43.12Z" fill="#30394B"/>
<path d="M13.4334 43.12C13.2001 43.12 12.9801 43.0867 12.7734 43.02C12.5734 42.9533 12.4001 42.86 12.2534 42.74C12.1068 42.6133 11.9901 42.4633 11.9034 42.29C11.8234 42.1167 11.7834 41.9233 11.7834 41.71C11.7834 41.4367 11.8468 41.1967 11.9734 40.99C12.1068 40.7833 12.3101 40.6067 12.5834 40.46C12.8634 40.3133 13.2201 40.1933 13.6534 40.1C14.0934 40.0067 14.6201 39.9367 15.2334 39.89C15.2201 39.59 15.1201 39.3333 14.9334 39.12C14.7534 38.9067 14.4468 38.8 14.0134 38.8C13.7134 38.8 13.4201 38.8567 13.1334 38.97C12.8534 39.0833 12.5934 39.21 12.3534 39.35L11.9834 38.68C12.1168 38.6 12.2668 38.52 12.4334 38.44C12.6001 38.3533 12.7768 38.2767 12.9634 38.21C13.1568 38.1433 13.3534 38.09 13.5534 38.05C13.7601 38.01 13.9701 37.99 14.1834 37.99C14.8634 37.99 15.3734 38.1733 15.7134 38.54C16.0534 38.9067 16.2234 39.4133 16.2234 40.06V43H15.4134L15.3334 42.37H15.3034C15.0434 42.57 14.7501 42.7467 14.4234 42.9C14.1034 43.0467 13.7734 43.12 13.4334 43.12ZM13.7134 42.33C13.9734 42.33 14.2268 42.2733 14.4734 42.16C14.7268 42.0467 14.9801 41.8867 15.2334 41.68V40.52C14.7534 40.56 14.3534 40.6133 14.0334 40.68C13.7134 40.74 13.4568 40.82 13.2634 40.92C13.0768 41.0133 12.9434 41.12 12.8634 41.24C12.7834 41.36 12.7434 41.4933 12.7434 41.64C12.7434 41.8867 12.8368 42.0633 13.0234 42.17C13.2168 42.2767 13.4468 42.33 13.7134 42.33ZM20.4695 43.12C20.0895 43.12 19.7329 43.0633 19.3995 42.95C19.0729 42.8367 18.7895 42.67 18.5495 42.45C18.3095 42.23 18.1195 41.9633 17.9795 41.65C17.8462 41.33 17.7795 40.9667 17.7795 40.56C17.7795 40.1533 17.8529 39.79 17.9995 39.47C18.1462 39.15 18.3462 38.88 18.5995 38.66C18.8529 38.44 19.1429 38.2733 19.4695 38.16C19.8029 38.0467 20.1562 37.99 20.5295 37.99C20.9295 37.99 21.2795 38.06 21.5795 38.2C21.8795 38.3333 22.1295 38.4967 22.3295 38.69L21.8495 39.32C21.6562 39.16 21.4562 39.0367 21.2495 38.95C21.0429 38.8567 20.8195 38.81 20.5795 38.81C20.3195 38.81 20.0795 38.8533 19.8595 38.94C19.6395 39.02 19.4495 39.1367 19.2895 39.29C19.1362 39.4433 19.0162 39.63 18.9295 39.85C18.8429 40.0633 18.7995 40.3 18.7995 40.56C18.7995 40.82 18.8395 41.06 18.9195 41.28C19.0062 41.4933 19.1262 41.6767 19.2795 41.83C19.4395 41.9833 19.6262 42.1033 19.8395 42.19C20.0529 42.27 20.2895 42.31 20.5495 42.31C20.8495 42.31 21.1162 42.2533 21.3495 42.14C21.5895 42.0267 21.8062 41.89 21.9995 41.73L22.4295 42.37C22.1495 42.61 21.8429 42.7967 21.5095 42.93C21.1762 43.0567 20.8295 43.12 20.4695 43.12ZM26.4656 43.12C26.0856 43.12 25.729 43.0633 25.3956 42.95C25.069 42.8367 24.7856 42.67 24.5456 42.45C24.3056 42.23 24.1156 41.9633 23.9756 41.65C23.8423 41.33 23.7756 40.9667 23.7756 40.56C23.7756 40.1533 23.849 39.79 23.9956 39.47C24.1423 39.15 24.3423 38.88 24.5956 38.66C24.849 38.44 25.139 38.2733 25.4656 38.16C25.799 38.0467 26.1523 37.99 26.5256 37.99C26.9256 37.99 27.2756 38.06 27.5756 38.2C27.8756 38.3333 28.1256 38.4967 28.3256 38.69L27.8456 39.32C27.6523 39.16 27.4523 39.0367 27.2456 38.95C27.039 38.8567 26.8156 38.81 26.5756 38.81C26.3156 38.81 26.0756 38.8533 25.8556 38.94C25.6356 39.02 25.4456 39.1367 25.2856 39.29C25.1323 39.4433 25.0123 39.63 24.9256 39.85C24.839 40.0633 24.7956 40.3 24.7956 40.56C24.7956 40.82 24.8356 41.06 24.9156 41.28C25.0023 41.4933 25.1223 41.6767 25.2756 41.83C25.4356 41.9833 25.6223 42.1033 25.8356 42.19C26.049 42.27 26.2856 42.31 26.5456 42.31C26.8456 42.31 27.1123 42.2533 27.3456 42.14C27.5856 42.0267 27.8023 41.89 27.9956 41.73L28.4256 42.37C28.1456 42.61 27.839 42.7967 27.5056 42.93C27.1723 43.0567 26.8256 43.12 26.4656 43.12ZM32.0117 43.12C31.6917 43.12 31.3851 43.0633 31.0917 42.95C30.7984 42.8367 30.5384 42.67 30.3117 42.45C30.0851 42.23 29.9051 41.9633 29.7717 41.65C29.6384 41.33 29.5717 40.9667 29.5717 40.56C29.5717 40.1533 29.6384 39.79 29.7717 39.47C29.9051 39.15 30.0851 38.88 30.3117 38.66C30.5384 38.44 30.7984 38.2733 31.0917 38.16C31.3851 38.0467 31.6917 37.99 32.0117 37.99C32.3317 37.99 32.6384 38.0467 32.9317 38.16C33.2251 38.2733 33.4851 38.44 33.7117 38.66C33.9384 38.88 34.1184 39.15 34.2517 39.47C34.3851 39.79 34.4517 40.1533 34.4517 40.56C34.4517 40.9667 34.3851 41.33 34.2517 41.65C34.1184 41.9633 33.9384 42.23 33.7117 42.45C33.4851 42.67 33.2251 42.8367 32.9317 42.95C32.6384 43.0633 32.3317 43.12 32.0117 43.12ZM32.0117 42.31C32.4517 42.31 32.7984 42.15 33.0517 41.83C33.3051 41.51 33.4317 41.0867 33.4317 40.56C33.4317 40.0333 33.3051 39.61 33.0517 39.29C32.7984 38.97 32.4517 38.81 32.0117 38.81C31.5717 38.81 31.2251 38.97 30.9717 39.29C30.7184 39.61 30.5917 40.0333 30.5917 40.56C30.5917 41.0867 30.7184 41.51 30.9717 41.83C31.2251 42.15 31.5717 42.31 32.0117 42.31ZM35.5278 43V38.11H36.3078L36.3878 38.75H36.4078C36.5211 38.53 36.6611 38.35 36.8278 38.21C37.0011 38.0633 37.2278 37.99 37.5078 37.99C37.9745 37.99 38.2745 38.27 38.4078 38.83C38.5411 38.5767 38.6911 38.3733 38.8578 38.22C39.0311 38.0667 39.2578 37.99 39.5378 37.99C39.8845 37.99 40.1511 38.1233 40.3378 38.39C40.5311 38.65 40.6278 39.0267 40.6278 39.52V43H39.6578V39.59C39.6578 39.09 39.5078 38.84 39.2078 38.84C39.0545 38.84 38.9278 38.8967 38.8278 39.01C38.7278 39.1233 38.6211 39.2933 38.5078 39.52V43H37.6478V39.59C37.6478 39.09 37.5011 38.84 37.2078 38.84C37.0545 38.84 36.9245 38.8967 36.8178 39.01C36.7111 39.1233 36.6045 39.2933 36.4978 39.52V43H35.5278ZM41.5239 43V38.11H42.3039L42.3839 38.75H42.4039C42.5172 38.53 42.6572 38.35 42.8239 38.21C42.9972 38.0633 43.2239 37.99 43.5039 37.99C43.9706 37.99 44.2706 38.27 44.4039 38.83C44.5372 38.5767 44.6872 38.3733 44.8539 38.22C45.0272 38.0667 45.2539 37.99 45.5339 37.99C45.8806 37.99 46.1472 38.1233 46.3339 38.39C46.5272 38.65 46.6239 39.0267 46.6239 39.52V43H45.6539V39.59C45.6539 39.09 45.5039 38.84 45.2039 38.84C45.0506 38.84 44.9239 38.8967 44.8239 39.01C44.7239 39.1233 44.6172 39.2933 44.5039 39.52V43H43.6439V39.59C43.6439 39.09 43.4972 38.84 43.2039 38.84C43.0506 38.84 42.9206 38.8967 42.8139 39.01C42.7072 39.1233 42.6006 39.2933 42.4939 39.52V43H41.5239ZM50 43.12C49.68 43.12 49.3733 43.0633 49.08 42.95C48.7867 42.8367 48.5267 42.67 48.3 42.45C48.0733 42.23 47.8933 41.9633 47.76 41.65C47.6267 41.33 47.56 40.9667 47.56 40.56C47.56 40.1533 47.6267 39.79 47.76 39.47C47.8933 39.15 48.0733 38.88 48.3 38.66C48.5267 38.44 48.7867 38.2733 49.08 38.16C49.3733 38.0467 49.68 37.99 50 37.99C50.32 37.99 50.6267 38.0467 50.92 38.16C51.2133 38.2733 51.4733 38.44 51.7 38.66C51.9267 38.88 52.1067 39.15 52.24 39.47C52.3733 39.79 52.44 40.1533 52.44 40.56C52.44 40.9667 52.3733 41.33 52.24 41.65C52.1067 41.9633 51.9267 42.23 51.7 42.45C51.4733 42.67 51.2133 42.8367 50.92 42.95C50.6267 43.0633 50.32 43.12 50 43.12ZM50 42.31C50.44 42.31 50.7867 42.15 51.04 41.83C51.2933 41.51 51.42 41.0867 51.42 40.56C51.42 40.0333 51.2933 39.61 51.04 39.29C50.7867 38.97 50.44 38.81 50 38.81C49.56 38.81 49.2133 38.97 48.96 39.29C48.7067 39.61 48.58 40.0333 48.58 40.56C48.58 41.0867 48.7067 41.51 48.96 41.83C49.2133 42.15 49.56 42.31 50 42.31ZM55.6661 43.12C55.3461 43.12 55.0561 43.0633 54.7961 42.95C54.5428 42.8367 54.3228 42.67 54.1361 42.45C53.9494 42.23 53.8061 41.9633 53.7061 41.65C53.6061 41.33 53.5561 40.9667 53.5561 40.56C53.5561 40.16 53.6161 39.8033 53.7361 39.49C53.8628 39.17 54.0261 38.9 54.2261 38.68C54.4328 38.46 54.6661 38.29 54.9261 38.17C55.1928 38.05 55.4661 37.99 55.7461 37.99C56.0328 37.99 56.2861 38.0433 56.5061 38.15C56.7328 38.2567 56.9461 38.4067 57.1461 38.6H57.1761L57.1261 37.73V35.91H58.1161V43H57.3061L57.2261 42.4H57.1961C57.0028 42.5933 56.7728 42.7633 56.5061 42.91C56.2394 43.05 55.9594 43.12 55.6661 43.12ZM55.8961 42.3C56.3361 42.3 56.7461 42.08 57.1261 41.64V39.32C56.9328 39.1333 56.7394 39.0033 56.5461 38.93C56.3528 38.8567 56.1594 38.82 55.9661 38.82C55.7728 38.82 55.5928 38.86 55.4261 38.94C55.2594 39.02 55.1128 39.1367 54.9861 39.29C54.8594 39.4367 54.7594 39.6167 54.6861 39.83C54.6128 40.0433 54.5761 40.2833 54.5761 40.55C54.5761 41.1167 54.6894 41.55 54.9161 41.85C55.1494 42.15 55.4761 42.3 55.8961 42.3ZM61.4022 43.12C61.1689 43.12 60.9489 43.0867 60.7422 43.02C60.5422 42.9533 60.3689 42.86 60.2222 42.74C60.0755 42.6133 59.9589 42.4633 59.8722 42.29C59.7922 42.1167 59.7522 41.9233 59.7522 41.71C59.7522 41.4367 59.8155 41.1967 59.9422 40.99C60.0755 40.7833 60.2789 40.6067 60.5522 40.46C60.8322 40.3133 61.1889 40.1933 61.6222 40.1C62.0622 40.0067 62.5889 39.9367 63.2022 39.89C63.1889 39.59 63.0889 39.3333 62.9022 39.12C62.7222 38.9067 62.4155 38.8 61.9822 38.8C61.6822 38.8 61.3889 38.8567 61.1022 38.97C60.8222 39.0833 60.5622 39.21 60.3222 39.35L59.9522 38.68C60.0855 38.6 60.2355 38.52 60.4022 38.44C60.5689 38.3533 60.7455 38.2767 60.9322 38.21C61.1255 38.1433 61.3222 38.09 61.5222 38.05C61.7289 38.01 61.9389 37.99 62.1522 37.99C62.8322 37.99 63.3422 38.1733 63.6822 38.54C64.0222 38.9067 64.1922 39.4133 64.1922 40.06V43H63.3822L63.3022 42.37H63.2722C63.0122 42.57 62.7189 42.7467 62.3922 42.9C62.0722 43.0467 61.7422 43.12 61.4022 43.12ZM61.6822 42.33C61.9422 42.33 62.1955 42.2733 62.4422 42.16C62.6955 42.0467 62.9489 41.8867 63.2022 41.68V40.52C62.7222 40.56 62.3222 40.6133 62.0022 40.68C61.6822 40.74 61.4255 40.82 61.2322 40.92C61.0455 41.0133 60.9122 41.12 60.8322 41.24C60.7522 41.36 60.7122 41.4933 60.7122 41.64C60.7122 41.8867 60.8055 42.0633 60.9922 42.17C61.1855 42.2767 61.4155 42.33 61.6822 42.33ZM68.9083 43.12C68.5483 43.12 68.2416 43.07 67.9883 42.97C67.7416 42.87 67.5416 42.73 67.3883 42.55C67.2416 42.37 67.1349 42.1567 67.0683 41.91C67.0016 41.6567 66.9683 41.3767 66.9683 41.07V38.91H65.6283V38.16L67.0083 38.11L67.1383 36.56H67.9583V38.11H70.2683V38.91H67.9583V41.07C67.9583 41.49 68.0416 41.8033 68.2083 42.01C68.3816 42.2167 68.6916 42.32 69.1383 42.32C69.3516 42.32 69.5483 42.3033 69.7283 42.27C69.9083 42.23 70.0849 42.1767 70.2583 42.11L70.4583 42.84C70.2383 42.9133 70.0049 42.9767 69.7583 43.03C69.5116 43.09 69.2283 43.12 68.9083 43.12ZM74.2844 43.12C73.911 43.12 73.5644 43.0633 73.2444 42.95C72.9244 42.8367 72.6444 42.67 72.4044 42.45C72.1644 42.23 71.9744 41.96 71.8344 41.64C71.701 41.32 71.6344 40.9567 71.6344 40.55C71.6344 40.15 71.7044 39.7933 71.8444 39.48C71.9844 39.16 72.1677 38.89 72.3944 38.67C72.6277 38.45 72.8944 38.2833 73.1944 38.17C73.4944 38.05 73.8077 37.99 74.1344 37.99C74.4944 37.99 74.8144 38.0467 75.0944 38.16C75.3744 38.2733 75.6077 38.4333 75.7944 38.64C75.9877 38.84 76.1344 39.0833 76.2344 39.37C76.3344 39.65 76.3844 39.96 76.3844 40.3C76.3844 40.4067 76.381 40.5067 76.3744 40.6C76.3677 40.6933 76.3577 40.7733 76.3444 40.84H72.6244C72.6777 41.3467 72.8677 41.7233 73.1944 41.97C73.5277 42.2167 73.9344 42.34 74.4144 42.34C74.6877 42.34 74.9377 42.3033 75.1644 42.23C75.391 42.15 75.6144 42.0433 75.8344 41.91L76.1844 42.54C75.931 42.7067 75.6444 42.8467 75.3244 42.96C75.011 43.0667 74.6644 43.12 74.2844 43.12ZM74.1644 38.77C73.9777 38.77 73.801 38.8 73.6344 38.86C73.4677 38.9133 73.3177 38.9967 73.1844 39.11C73.051 39.2233 72.9377 39.3633 72.8444 39.53C72.751 39.6967 72.6844 39.89 72.6444 40.11H75.4944C75.461 39.6633 75.3244 39.33 75.0844 39.11C74.851 38.8833 74.5444 38.77 74.1644 38.77ZM80.0405 43.12C79.5738 43.12 79.1338 43.0467 78.7205 42.9C78.3071 42.7467 77.9505 42.5667 77.6505 42.36L78.0905 41.72C78.3771 41.92 78.6871 42.0767 79.0205 42.19C79.3605 42.3033 79.7438 42.36 80.1705 42.36C80.5505 42.36 80.8305 42.2967 81.0105 42.17C81.1905 42.0367 81.2805 41.8767 81.2805 41.69C81.2805 41.6033 81.2638 41.5233 81.2305 41.45C81.1971 41.3767 81.1271 41.31 81.0205 41.25C80.9205 41.1833 80.7771 41.12 80.5905 41.06C80.4038 41 80.1571 40.9367 79.8505 40.87C79.2038 40.7367 78.7238 40.5567 78.4105 40.33C78.1038 40.0967 77.9505 39.7933 77.9505 39.42C77.9505 39.2133 77.9938 39.0233 78.0805 38.85C78.1738 38.6767 78.3071 38.5267 78.4805 38.4C78.6605 38.2733 78.8805 38.1733 79.1405 38.1C79.4005 38.0267 79.7005 37.99 80.0405 37.99C80.4271 37.99 80.7938 38.0567 81.1405 38.19C81.4938 38.3167 81.7938 38.4633 82.0405 38.63L81.5805 39.25C81.3471 39.0967 81.0905 38.9767 80.8105 38.89C80.5371 38.7967 80.2505 38.75 79.9505 38.75C79.5771 38.75 79.3138 38.81 79.1605 38.93C79.0138 39.05 78.9405 39.1967 78.9405 39.37C78.9405 39.5633 79.0438 39.71 79.2505 39.81C79.4571 39.91 79.8005 40.01 80.2805 40.11C80.6805 40.1967 81.0071 40.29 81.2605 40.39C81.5205 40.49 81.7238 40.6 81.8705 40.72C82.0238 40.84 82.1305 40.9767 82.1905 41.13C82.2505 41.2767 82.2805 41.4433 82.2805 41.63C82.2805 41.8367 82.2305 42.03 82.1305 42.21C82.0305 42.39 81.8838 42.55 81.6905 42.69C81.5038 42.8233 81.2705 42.9267 80.9905 43C80.7171 43.08 80.4005 43.12 80.0405 43.12Z" fill="#30394B"/>
<path d="M233.494 70V68.176H229.822V66.964L233.002 62.38H235.138V66.832H236.098V68.176H235.138V70H233.494ZM231.526 66.832H233.494V65.548C233.494 65.308 233.498 65.032 233.506 64.72C233.522 64.4 233.538 64.12 233.554 63.88H233.506C233.378 64.096 233.242 64.312 233.098 64.528C232.954 64.744 232.814 64.96 232.678 65.176L231.526 66.832Z" fill="#30394B"/>
<path d="M447.494 70V68.176H443.822V66.964L447.002 62.38H449.138V66.832H450.098V68.176H449.138V70H447.494ZM445.526 66.832H447.494V65.548C447.494 65.308 447.498 65.032 447.506 64.72C447.522 64.4 447.538 64.12 447.554 63.88H447.506C447.378 64.096 447.242 64.312 447.098 64.528C446.954 64.744 446.814 64.96 446.678 65.176L445.526 66.832Z" fill="#30394B"/>
<path d="M46.9903 70.144C46.5503 70.144 46.1543 70.096 45.8023 70C45.4503 69.896 45.1503 69.752 44.9023 69.568C44.6543 69.384 44.4623 69.164 44.3263 68.908C44.1983 68.652 44.1343 68.368 44.1343 68.056C44.1343 67.824 44.1703 67.616 44.2423 67.432C44.3223 67.24 44.4263 67.068 44.5543 66.916C44.6903 66.764 44.8423 66.628 45.0103 66.508C45.1863 66.388 45.3743 66.28 45.5743 66.184V66.136C45.2543 65.912 44.9863 65.66 44.7703 65.38C44.5623 65.092 44.4583 64.744 44.4583 64.336C44.4583 64.016 44.5223 63.728 44.6503 63.472C44.7783 63.208 44.9543 62.984 45.1783 62.8C45.4103 62.616 45.6863 62.476 46.0063 62.38C46.3263 62.284 46.6743 62.236 47.0503 62.236C47.4343 62.236 47.7783 62.288 48.0823 62.392C48.3943 62.488 48.6583 62.628 48.8743 62.812C49.0903 62.988 49.2543 63.208 49.3663 63.472C49.4863 63.728 49.5463 64.012 49.5463 64.324C49.5463 64.684 49.4383 65.004 49.2223 65.284C49.0143 65.564 48.7583 65.8 48.4543 65.992V66.04C48.6543 66.136 48.8423 66.248 49.0183 66.376C49.1943 66.496 49.3463 66.636 49.4743 66.796C49.6023 66.956 49.7023 67.14 49.7743 67.348C49.8463 67.548 49.8823 67.776 49.8823 68.032C49.8823 68.336 49.8183 68.616 49.6903 68.872C49.5623 69.128 49.3743 69.352 49.1263 69.544C48.8863 69.728 48.5863 69.876 48.2263 69.988C47.8663 70.092 47.4543 70.144 46.9903 70.144ZM47.5183 65.56C47.9023 65.216 48.0943 64.844 48.0943 64.444C48.0943 64.148 48.0023 63.912 47.8183 63.736C47.6343 63.552 47.3663 63.46 47.0143 63.46C46.7343 63.46 46.4943 63.532 46.2943 63.676C46.1023 63.82 46.0063 64.04 46.0063 64.336C46.0063 64.648 46.1463 64.892 46.4263 65.068C46.7063 65.244 47.0703 65.408 47.5183 65.56ZM47.0383 68.92C47.3983 68.92 47.6863 68.844 47.9023 68.692C48.1263 68.532 48.2383 68.292 48.2383 67.972C48.2383 67.796 48.1943 67.648 48.1063 67.528C48.0183 67.408 47.8903 67.3 47.7223 67.204C47.5623 67.1 47.3703 67.008 47.1463 66.928C46.9223 66.84 46.6743 66.744 46.4023 66.64C46.1863 66.8 46.0063 66.98 45.8623 67.18C45.7263 67.38 45.6583 67.604 45.6583 67.852C45.6583 68.188 45.7903 68.452 46.0543 68.644C46.3183 68.828 46.6463 68.92 47.0383 68.92Z" fill="#30394B"/>
<path d="M230.35 122V120.572H232.402V116.168H230.71V115.076C230.966 115.036 231.194 114.996 231.394 114.956C231.602 114.908 231.79 114.856 231.958 114.8C232.126 114.744 232.282 114.684 232.426 114.62C232.578 114.548 232.726 114.468 232.87 114.38H234.166V120.572H235.894V122H230.35Z" fill="#30394B"/>
<path d="M445.718 122C445.75 121.368 445.81 120.788 445.898 120.26C445.994 119.724 446.126 119.216 446.294 118.736C446.47 118.248 446.694 117.776 446.966 117.32C447.238 116.856 447.574 116.372 447.974 115.868H444.146V114.38H449.87V115.46C449.39 115.996 449.002 116.5 448.706 116.972C448.41 117.436 448.178 117.92 448.01 118.424C447.842 118.92 447.722 119.456 447.65 120.032C447.578 120.6 447.526 121.256 447.494 122H445.718Z" fill="#30394B"/>
<path d="M233.206 95.144C232.814 95.144 232.434 95.072 232.066 94.928C231.698 94.784 231.37 94.56 231.082 94.256C230.794 93.952 230.562 93.564 230.386 93.092C230.21 92.612 230.122 92.036 230.122 91.364C230.122 90.652 230.214 90.036 230.398 89.516C230.582 88.996 230.826 88.568 231.13 88.232C231.442 87.896 231.794 87.648 232.186 87.488C232.578 87.32 232.986 87.236 233.41 87.236C233.954 87.236 234.43 87.328 234.838 87.512C235.246 87.688 235.578 87.9 235.834 88.148L234.91 89.204C234.75 89.06 234.55 88.936 234.31 88.832C234.07 88.72 233.822 88.664 233.566 88.664C233.334 88.664 233.11 88.708 232.894 88.796C232.686 88.876 232.498 89.012 232.33 89.204C232.17 89.388 232.038 89.632 231.934 89.936C231.83 90.24 231.77 90.616 231.754 91.064C232.026 90.8 232.326 90.596 232.654 90.452C232.99 90.308 233.302 90.236 233.59 90.236C233.926 90.236 234.234 90.284 234.514 90.38C234.802 90.476 235.05 90.62 235.258 90.812C235.474 91.004 235.642 91.248 235.762 91.544C235.882 91.84 235.942 92.188 235.942 92.588C235.942 92.988 235.866 93.344 235.714 93.656C235.57 93.968 235.37 94.236 235.114 94.46C234.866 94.684 234.578 94.856 234.25 94.976C233.922 95.088 233.574 95.144 233.206 95.144ZM233.17 93.824C233.322 93.824 233.466 93.8 233.602 93.752C233.746 93.704 233.87 93.632 233.974 93.536C234.086 93.432 234.174 93.304 234.238 93.152C234.302 92.992 234.334 92.804 234.334 92.588C234.334 92.196 234.23 91.916 234.022 91.748C233.814 91.572 233.542 91.484 233.206 91.484C232.982 91.484 232.75 91.54 232.51 91.652C232.27 91.764 232.034 91.956 231.802 92.228C231.85 92.532 231.918 92.788 232.006 92.996C232.102 93.196 232.21 93.36 232.33 93.488C232.45 93.608 232.582 93.696 232.726 93.752C232.87 93.8 233.018 93.824 233.17 93.824Z" fill="#30394B"/>
<path d="M444.098 95V93.992C444.642 93.536 445.138 93.112 445.586 92.72C446.034 92.32 446.418 91.948 446.738 91.604C447.058 91.26 447.306 90.936 447.482 90.632C447.658 90.328 447.746 90.04 447.746 89.768C447.746 89.392 447.638 89.108 447.422 88.916C447.206 88.716 446.898 88.616 446.498 88.616C446.194 88.616 445.914 88.696 445.658 88.856C445.41 89.008 445.178 89.188 444.962 89.396L444.014 88.448C444.214 88.248 444.41 88.072 444.602 87.92C444.802 87.768 445.01 87.644 445.226 87.548C445.45 87.444 445.682 87.368 445.922 87.32C446.17 87.264 446.442 87.236 446.738 87.236C447.138 87.236 447.502 87.296 447.83 87.416C448.158 87.528 448.438 87.692 448.67 87.908C448.91 88.116 449.094 88.368 449.222 88.664C449.358 88.96 449.426 89.292 449.426 89.66C449.426 89.98 449.35 90.308 449.198 90.644C449.046 90.972 448.838 91.304 448.574 91.64C448.318 91.968 448.022 92.3 447.686 92.636C447.35 92.964 446.998 93.288 446.63 93.608C446.846 93.584 447.078 93.564 447.326 93.548C447.582 93.524 447.81 93.512 448.01 93.512H449.822V95H444.098Z" fill="#30394B"/>
<path d="M230.098 150V148.992C230.642 148.536 231.138 148.112 231.586 147.72C232.034 147.32 232.418 146.948 232.738 146.604C233.058 146.26 233.306 145.936 233.482 145.632C233.658 145.328 233.746 145.04 233.746 144.768C233.746 144.392 233.638 144.108 233.422 143.916C233.206 143.716 232.898 143.616 232.498 143.616C232.194 143.616 231.914 143.696 231.658 143.856C231.41 144.008 231.178 144.188 230.962 144.396L230.014 143.448C230.214 143.248 230.41 143.072 230.602 142.92C230.802 142.768 231.01 142.644 231.226 142.548C231.45 142.444 231.682 142.368 231.922 142.32C232.17 142.264 232.442 142.236 232.738 142.236C233.138 142.236 233.502 142.296 233.83 142.416C234.158 142.528 234.438 142.692 234.67 142.908C234.91 143.116 235.094 143.368 235.222 143.664C235.358 143.96 235.426 144.292 235.426 144.66C235.426 144.98 235.35 145.308 235.198 145.644C235.046 145.972 234.838 146.304 234.574 146.64C234.318 146.968 234.022 147.3 233.686 147.636C233.35 147.964 232.998 148.288 232.63 148.608C232.846 148.584 233.078 148.564 233.326 148.548C233.582 148.524 233.81 148.512 234.01 148.512H235.822V150H230.098Z" fill="#30394B"/>
<path d="M447.206 150.144C446.814 150.144 446.434 150.072 446.066 149.928C445.698 149.784 445.37 149.56 445.082 149.256C444.794 148.952 444.562 148.564 444.386 148.092C444.21 147.612 444.122 147.036 444.122 146.364C444.122 145.652 444.214 145.036 444.398 144.516C444.582 143.996 444.826 143.568 445.13 143.232C445.442 142.896 445.794 142.648 446.186 142.488C446.578 142.32 446.986 142.236 447.41 142.236C447.954 142.236 448.43 142.328 448.838 142.512C449.246 142.688 449.578 142.9 449.834 143.148L448.91 144.204C448.75 144.06 448.55 143.936 448.31 143.832C448.07 143.72 447.822 143.664 447.566 143.664C447.334 143.664 447.11 143.708 446.894 143.796C446.686 143.876 446.498 144.012 446.33 144.204C446.17 144.388 446.038 144.632 445.934 144.936C445.83 145.24 445.77 145.616 445.754 146.064C446.026 145.8 446.326 145.596 446.654 145.452C446.99 145.308 447.302 145.236 447.59 145.236C447.926 145.236 448.234 145.284 448.514 145.38C448.802 145.476 449.05 145.62 449.258 145.812C449.474 146.004 449.642 146.248 449.762 146.544C449.882 146.84 449.942 147.188 449.942 147.588C449.942 147.988 449.866 148.344 449.714 148.656C449.57 148.968 449.37 149.236 449.114 149.46C448.866 149.684 448.578 149.856 448.25 149.976C447.922 150.088 447.574 150.144 447.206 150.144ZM447.17 148.824C447.322 148.824 447.466 148.8 447.602 148.752C447.746 148.704 447.87 148.632 447.974 148.536C448.086 148.432 448.174 148.304 448.238 148.152C448.302 147.992 448.334 147.804 448.334 147.588C448.334 147.196 448.23 146.916 448.022 146.748C447.814 146.572 447.542 146.484 447.206 146.484C446.982 146.484 446.75 146.54 446.51 146.652C446.27 146.764 446.034 146.956 445.802 147.228C445.85 147.532 445.918 147.788 446.006 147.996C446.102 148.196 446.21 148.36 446.33 148.488C446.45 148.608 446.582 148.696 446.726 148.752C446.87 148.8 447.018 148.824 447.17 148.824Z" fill="#30394B"/>
<path d="M305.686 43.12C305.366 43.12 305.076 43.0633 304.816 42.95C304.562 42.8367 304.342 42.67 304.156 42.45C303.969 42.23 303.826 41.9633 303.726 41.65C303.626 41.33 303.576 40.9667 303.576 40.56C303.576 40.16 303.636 39.8033 303.756 39.49C303.882 39.17 304.046 38.9 304.246 38.68C304.452 38.46 304.686 38.29 304.946 38.17C305.212 38.05 305.486 37.99 305.766 37.99C306.052 37.99 306.306 38.0433 306.526 38.15C306.752 38.2567 306.966 38.4067 307.166 38.6H307.196L307.146 37.73V35.91H308.136V43H307.326L307.246 42.4H307.216C307.022 42.5933 306.792 42.7633 306.526 42.91C306.259 43.05 305.979 43.12 305.686 43.12ZM305.916 42.3C306.356 42.3 306.766 42.08 307.146 41.64V39.32C306.952 39.1333 306.759 39.0033 306.566 38.93C306.372 38.8567 306.179 38.82 305.986 38.82C305.792 38.82 305.612 38.86 305.446 38.94C305.279 39.02 305.132 39.1367 305.006 39.29C304.879 39.4367 304.779 39.6167 304.706 39.83C304.632 40.0433 304.596 40.2833 304.596 40.55C304.596 41.1167 304.709 41.55 304.936 41.85C305.169 42.15 305.496 42.3 305.916 42.3ZM312.072 43V38.91H309.882V38.11H313.062V43H312.072ZM312.482 37.16C312.268 37.16 312.092 37.0967 311.952 36.97C311.812 36.8367 311.742 36.6633 311.742 36.45C311.742 36.2367 311.812 36.0667 311.952 35.94C312.092 35.8067 312.268 35.74 312.482 35.74C312.695 35.74 312.872 35.8067 313.012 35.94C313.152 36.0667 313.222 36.2367 313.222 36.45C313.222 36.6633 313.152 36.8367 313.012 36.97C312.872 37.0967 312.695 37.16 312.482 37.16ZM318.068 43.12C317.601 43.12 317.161 43.0467 316.748 42.9C316.334 42.7467 315.978 42.5667 315.678 42.36L316.118 41.72C316.404 41.92 316.714 42.0767 317.048 42.19C317.388 42.3033 317.771 42.36 318.198 42.36C318.578 42.36 318.858 42.2967 319.038 42.17C319.218 42.0367 319.308 41.8767 319.308 41.69C319.308 41.6033 319.291 41.5233 319.258 41.45C319.224 41.3767 319.154 41.31 319.048 41.25C318.948 41.1833 318.804 41.12 318.618 41.06C318.431 41 318.184 40.9367 317.878 40.87C317.231 40.7367 316.751 40.5567 316.438 40.33C316.131 40.0967 315.978 39.7933 315.978 39.42C315.978 39.2133 316.021 39.0233 316.108 38.85C316.201 38.6767 316.334 38.5267 316.508 38.4C316.688 38.2733 316.908 38.1733 317.168 38.1C317.428 38.0267 317.728 37.99 318.068 37.99C318.454 37.99 318.821 38.0567 319.168 38.19C319.521 38.3167 319.821 38.4633 320.068 38.63L319.608 39.25C319.374 39.0967 319.118 38.9767 318.838 38.89C318.564 38.7967 318.278 38.75 317.978 38.75C317.604 38.75 317.341 38.81 317.188 38.93C317.041 39.05 316.968 39.1967 316.968 39.37C316.968 39.5633 317.071 39.71 317.278 39.81C317.484 39.91 317.828 40.01 318.308 40.11C318.708 40.1967 319.034 40.29 319.288 40.39C319.548 40.49 319.751 40.6 319.898 40.72C320.051 40.84 320.158 40.9767 320.218 41.13C320.278 41.2767 320.308 41.4433 320.308 41.63C320.308 41.8367 320.258 42.03 320.158 42.21C320.058 42.39 319.911 42.55 319.718 42.69C319.531 42.8233 319.298 42.9267 319.018 43C318.744 43.08 318.428 43.12 318.068 43.12ZM324.924 43.12C324.564 43.12 324.257 43.07 324.004 42.97C323.757 42.87 323.557 42.73 323.404 42.55C323.257 42.37 323.151 42.1567 323.084 41.91C323.017 41.6567 322.984 41.3767 322.984 41.07V38.91H321.644V38.16L323.024 38.11L323.154 36.56H323.974V38.11H326.284V38.91H323.974V41.07C323.974 41.49 324.057 41.8033 324.224 42.01C324.397 42.2167 324.707 42.32 325.154 42.32C325.367 42.32 325.564 42.3033 325.744 42.27C325.924 42.23 326.101 42.1767 326.274 42.11L326.474 42.84C326.254 42.9133 326.021 42.9767 325.774 43.03C325.527 43.09 325.244 43.12 324.924 43.12ZM329.41 43.12C329.177 43.12 328.957 43.0867 328.75 43.02C328.55 42.9533 328.377 42.86 328.23 42.74C328.083 42.6133 327.967 42.4633 327.88 42.29C327.8 42.1167 327.76 41.9233 327.76 41.71C327.76 41.4367 327.823 41.1967 327.95 40.99C328.083 40.7833 328.287 40.6067 328.56 40.46C328.84 40.3133 329.197 40.1933 329.63 40.1C330.07 40.0067 330.597 39.9367 331.21 39.89C331.197 39.59 331.097 39.3333 330.91 39.12C330.73 38.9067 330.423 38.8 329.99 38.8C329.69 38.8 329.397 38.8567 329.11 38.97C328.83 39.0833 328.57 39.21 328.33 39.35L327.96 38.68C328.093 38.6 328.243 38.52 328.41 38.44C328.577 38.3533 328.753 38.2767 328.94 38.21C329.133 38.1433 329.33 38.09 329.53 38.05C329.737 38.01 329.947 37.99 330.16 37.99C330.84 37.99 331.35 38.1733 331.69 38.54C332.03 38.9067 332.2 39.4133 332.2 40.06V43H331.39L331.31 42.37H331.28C331.02 42.57 330.727 42.7467 330.4 42.9C330.08 43.0467 329.75 43.12 329.41 43.12ZM329.69 42.33C329.95 42.33 330.203 42.2733 330.45 42.16C330.703 42.0467 330.957 41.8867 331.21 41.68V40.52C330.73 40.56 330.33 40.6133 330.01 40.68C329.69 40.74 329.433 40.82 329.24 40.92C329.053 41.0133 328.92 41.12 328.84 41.24C328.76 41.36 328.72 41.4933 328.72 41.64C328.72 41.8867 328.813 42.0633 329 42.17C329.193 42.2767 329.423 42.33 329.69 42.33ZM333.876 43V38.11H334.686L334.766 38.9H334.806C335.053 38.6467 335.319 38.4333 335.606 38.26C335.893 38.08 336.226 37.99 336.606 37.99C337.179 37.99 337.599 38.16 337.866 38.5C338.133 38.84 338.266 39.33 338.266 39.97V43H337.276V40.1C337.276 39.6733 337.199 39.36 337.046 39.16C336.893 38.9533 336.629 38.85 336.256 38.85C335.996 38.85 335.763 38.9167 335.556 39.05C335.349 39.1767 335.119 39.37 334.866 39.63V43H333.876ZM342.442 43.12C342.062 43.12 341.706 43.0633 341.372 42.95C341.046 42.8367 340.762 42.67 340.522 42.45C340.282 42.23 340.092 41.9633 339.952 41.65C339.819 41.33 339.752 40.9667 339.752 40.56C339.752 40.1533 339.826 39.79 339.972 39.47C340.119 39.15 340.319 38.88 340.572 38.66C340.826 38.44 341.116 38.2733 341.442 38.16C341.776 38.0467 342.129 37.99 342.502 37.99C342.902 37.99 343.252 38.06 343.552 38.2C343.852 38.3333 344.102 38.4967 344.302 38.69L343.822 39.32C343.629 39.16 343.429 39.0367 343.222 38.95C343.016 38.8567 342.792 38.81 342.552 38.81C342.292 38.81 342.052 38.8533 341.832 38.94C341.612 39.02 341.422 39.1367 341.262 39.29C341.109 39.4433 340.989 39.63 340.902 39.85C340.816 40.0633 340.772 40.3 340.772 40.56C340.772 40.82 340.812 41.06 340.892 41.28C340.979 41.4933 341.099 41.6767 341.252 41.83C341.412 41.9833 341.599 42.1033 341.812 42.19C342.026 42.27 342.262 42.31 342.522 42.31C342.822 42.31 343.089 42.2533 343.322 42.14C343.562 42.0267 343.779 41.89 343.972 41.73L344.402 42.37C344.122 42.61 343.816 42.7967 343.482 42.93C343.149 43.0567 342.802 43.12 342.442 43.12ZM348.288 43.12C347.915 43.12 347.568 43.0633 347.248 42.95C346.928 42.8367 346.648 42.67 346.408 42.45C346.168 42.23 345.978 41.96 345.838 41.64C345.705 41.32 345.638 40.9567 345.638 40.55C345.638 40.15 345.708 39.7933 345.848 39.48C345.988 39.16 346.172 38.89 346.398 38.67C346.632 38.45 346.898 38.2833 347.198 38.17C347.498 38.05 347.812 37.99 348.138 37.99C348.498 37.99 348.818 38.0467 349.098 38.16C349.378 38.2733 349.612 38.4333 349.798 38.64C349.992 38.84 350.138 39.0833 350.238 39.37C350.338 39.65 350.388 39.96 350.388 40.3C350.388 40.4067 350.385 40.5067 350.378 40.6C350.372 40.6933 350.362 40.7733 350.348 40.84H346.628C346.682 41.3467 346.872 41.7233 347.198 41.97C347.532 42.2167 347.938 42.34 348.418 42.34C348.692 42.34 348.942 42.3033 349.168 42.23C349.395 42.15 349.618 42.0433 349.838 41.91L350.188 42.54C349.935 42.7067 349.648 42.8467 349.328 42.96C349.015 43.0667 348.668 43.12 348.288 43.12ZM348.168 38.77C347.982 38.77 347.805 38.8 347.638 38.86C347.472 38.9133 347.322 38.9967 347.188 39.11C347.055 39.2233 346.942 39.3633 346.848 39.53C346.755 39.6967 346.688 39.89 346.648 40.11H349.498C349.465 39.6633 349.328 39.33 349.088 39.11C348.855 38.8833 348.548 38.77 348.168 38.77Z" fill="#30394B"/>
<path d="M393.487 43.12C393.107 43.12 392.75 43.0633 392.417 42.95C392.09 42.8367 391.807 42.67 391.567 42.45C391.327 42.23 391.137 41.9633 390.997 41.65C390.864 41.33 390.797 40.9667 390.797 40.56C390.797 40.1533 390.87 39.79 391.017 39.47C391.164 39.15 391.364 38.88 391.617 38.66C391.87 38.44 392.16 38.2733 392.487 38.16C392.82 38.0467 393.174 37.99 393.547 37.99C393.947 37.99 394.297 38.06 394.597 38.2C394.897 38.3333 395.147 38.4967 395.347 38.69L394.867 39.32C394.674 39.16 394.474 39.0367 394.267 38.95C394.06 38.8567 393.837 38.81 393.597 38.81C393.337 38.81 393.097 38.8533 392.877 38.94C392.657 39.02 392.467 39.1367 392.307 39.29C392.154 39.4433 392.034 39.63 391.947 39.85C391.86 40.0633 391.817 40.3 391.817 40.56C391.817 40.82 391.857 41.06 391.937 41.28C392.024 41.4933 392.144 41.6767 392.297 41.83C392.457 41.9833 392.644 42.1033 392.857 42.19C393.07 42.27 393.307 42.31 393.567 42.31C393.867 42.31 394.134 42.2533 394.367 42.14C394.607 42.0267 394.824 41.89 395.017 41.73L395.447 42.37C395.167 42.61 394.86 42.7967 394.527 42.93C394.194 43.0567 393.847 43.12 393.487 43.12ZM398.443 43.12C398.21 43.12 397.99 43.0867 397.783 43.02C397.583 42.9533 397.41 42.86 397.263 42.74C397.117 42.6133 397 42.4633 396.913 42.29C396.833 42.1167 396.793 41.9233 396.793 41.71C396.793 41.4367 396.857 41.1967 396.983 40.99C397.117 40.7833 397.32 40.6067 397.593 40.46C397.873 40.3133 398.23 40.1933 398.663 40.1C399.103 40.0067 399.63 39.9367 400.243 39.89C400.23 39.59 400.13 39.3333 399.943 39.12C399.763 38.9067 399.457 38.8 399.023 38.8C398.723 38.8 398.43 38.8567 398.143 38.97C397.863 39.0833 397.603 39.21 397.363 39.35L396.993 38.68C397.127 38.6 397.277 38.52 397.443 38.44C397.61 38.3533 397.787 38.2767 397.973 38.21C398.167 38.1433 398.363 38.09 398.563 38.05C398.77 38.01 398.98 37.99 399.193 37.99C399.873 37.99 400.383 38.1733 400.723 38.54C401.063 38.9067 401.233 39.4133 401.233 40.06V43H400.423L400.343 42.37H400.313C400.053 42.57 399.76 42.7467 399.433 42.9C399.113 43.0467 398.783 43.12 398.443 43.12ZM398.723 42.33C398.983 42.33 399.237 42.2733 399.483 42.16C399.737 42.0467 399.99 41.8867 400.243 41.68V40.52C399.763 40.56 399.363 40.6133 399.043 40.68C398.723 40.74 398.467 40.82 398.273 40.92C398.087 41.0133 397.953 41.12 397.873 41.24C397.793 41.36 397.753 41.4933 397.753 41.64C397.753 41.8867 397.847 42.0633 398.033 42.17C398.227 42.2767 398.457 42.33 398.723 42.33ZM406.069 43.12C405.523 43.12 405.106 42.9633 404.819 42.65C404.533 42.3367 404.389 41.8833 404.389 41.29V36.7H402.709V35.91H405.379V41.35C405.379 41.69 405.463 41.9367 405.629 42.09C405.803 42.2367 406.026 42.31 406.299 42.31C406.553 42.31 406.846 42.24 407.179 42.1L407.419 42.84C407.186 42.9333 406.969 43.0033 406.769 43.05C406.576 43.0967 406.343 43.12 406.069 43.12ZM411.475 43.12C411.095 43.12 410.739 43.0633 410.405 42.95C410.079 42.8367 409.795 42.67 409.555 42.45C409.315 42.23 409.125 41.9633 408.985 41.65C408.852 41.33 408.785 40.9667 408.785 40.56C408.785 40.1533 408.859 39.79 409.005 39.47C409.152 39.15 409.352 38.88 409.605 38.66C409.859 38.44 410.149 38.2733 410.475 38.16C410.809 38.0467 411.162 37.99 411.535 37.99C411.935 37.99 412.285 38.06 412.585 38.2C412.885 38.3333 413.135 38.4967 413.335 38.69L412.855 39.32C412.662 39.16 412.462 39.0367 412.255 38.95C412.049 38.8567 411.825 38.81 411.585 38.81C411.325 38.81 411.085 38.8533 410.865 38.94C410.645 39.02 410.455 39.1367 410.295 39.29C410.142 39.4433 410.022 39.63 409.935 39.85C409.849 40.0633 409.805 40.3 409.805 40.56C409.805 40.82 409.845 41.06 409.925 41.28C410.012 41.4933 410.132 41.6767 410.285 41.83C410.445 41.9833 410.632 42.1033 410.845 42.19C411.059 42.27 411.295 42.31 411.555 42.31C411.855 42.31 412.122 42.2533 412.355 42.14C412.595 42.0267 412.812 41.89 413.005 41.73L413.435 42.37C413.155 42.61 412.849 42.7967 412.515 42.93C412.182 43.0567 411.835 43.12 411.475 43.12ZM416.421 43.12C415.841 43.12 415.418 42.9533 415.151 42.62C414.885 42.28 414.751 41.7867 414.751 41.14V38.11H415.741V41.01C415.741 41.4433 415.818 41.7633 415.971 41.97C416.125 42.17 416.388 42.27 416.761 42.27C417.015 42.27 417.245 42.21 417.451 42.09C417.665 41.9633 417.891 41.7533 418.131 41.46V38.11H419.121V43H418.311L418.231 42.19H418.191C417.951 42.47 417.688 42.6967 417.401 42.87C417.121 43.0367 416.795 43.12 416.421 43.12ZM424.058 43.12C423.511 43.12 423.094 42.9633 422.808 42.65C422.521 42.3367 422.378 41.8833 422.378 41.29V36.7H420.698V35.91H423.368V41.35C423.368 41.69 423.451 41.9367 423.618 42.09C423.791 42.2367 424.014 42.31 424.288 42.31C424.541 42.31 424.834 42.24 425.168 42.1L425.408 42.84C425.174 42.9333 424.958 43.0033 424.758 43.05C424.564 43.0967 424.331 43.12 424.058 43.12ZM428.424 43.12C428.19 43.12 427.97 43.0867 427.764 43.02C427.564 42.9533 427.39 42.86 427.244 42.74C427.097 42.6133 426.98 42.4633 426.894 42.29C426.814 42.1167 426.774 41.9233 426.774 41.71C426.774 41.4367 426.837 41.1967 426.964 40.99C427.097 40.7833 427.3 40.6067 427.574 40.46C427.854 40.3133 428.21 40.1933 428.644 40.1C429.084 40.0067 429.61 39.9367 430.224 39.89C430.21 39.59 430.11 39.3333 429.924 39.12C429.744 38.9067 429.437 38.8 429.004 38.8C428.704 38.8 428.41 38.8567 428.124 38.97C427.844 39.0833 427.584 39.21 427.344 39.35L426.974 38.68C427.107 38.6 427.257 38.52 427.424 38.44C427.59 38.3533 427.767 38.2767 427.954 38.21C428.147 38.1433 428.344 38.09 428.544 38.05C428.75 38.01 428.96 37.99 429.174 37.99C429.854 37.99 430.364 38.1733 430.704 38.54C431.044 38.9067 431.214 39.4133 431.214 40.06V43H430.404L430.324 42.37H430.294C430.034 42.57 429.74 42.7467 429.414 42.9C429.094 43.0467 428.764 43.12 428.424 43.12ZM428.704 42.33C428.964 42.33 429.217 42.2733 429.464 42.16C429.717 42.0467 429.97 41.8867 430.224 41.68V40.52C429.744 40.56 429.344 40.6133 429.024 40.68C428.704 40.74 428.447 40.82 428.254 40.92C428.067 41.0133 427.934 41.12 427.854 41.24C427.774 41.36 427.734 41.4933 427.734 41.64C427.734 41.8867 427.827 42.0633 428.014 42.17C428.207 42.2767 428.437 42.33 428.704 42.33ZM435.93 43.12C435.57 43.12 435.263 43.07 435.01 42.97C434.763 42.87 434.563 42.73 434.41 42.55C434.263 42.37 434.156 42.1567 434.09 41.91C434.023 41.6567 433.99 41.3767 433.99 41.07V38.91H432.65V38.16L434.03 38.11L434.16 36.56H434.98V38.11H437.29V38.91H434.98V41.07C434.98 41.49 435.063 41.8033 435.23 42.01C435.403 42.2167 435.713 42.32 436.16 42.32C436.373 42.32 436.57 42.3033 436.75 42.27C436.93 42.23 437.106 42.1767 437.28 42.11L437.48 42.84C437.26 42.9133 437.026 42.9767 436.78 43.03C436.533 43.09 436.25 43.12 435.93 43.12ZM441.306 43.12C440.933 43.12 440.586 43.0633 440.266 42.95C439.946 42.8367 439.666 42.67 439.426 42.45C439.186 42.23 438.996 41.96 438.856 41.64C438.723 41.32 438.656 40.9567 438.656 40.55C438.656 40.15 438.726 39.7933 438.866 39.48C439.006 39.16 439.189 38.89 439.416 38.67C439.649 38.45 439.916 38.2833 440.216 38.17C440.516 38.05 440.829 37.99 441.156 37.99C441.516 37.99 441.836 38.0467 442.116 38.16C442.396 38.2733 442.629 38.4333 442.816 38.64C443.009 38.84 443.156 39.0833 443.256 39.37C443.356 39.65 443.406 39.96 443.406 40.3C443.406 40.4067 443.403 40.5067 443.396 40.6C443.389 40.6933 443.379 40.7733 443.366 40.84H439.646C439.699 41.3467 439.889 41.7233 440.216 41.97C440.549 42.2167 440.956 42.34 441.436 42.34C441.709 42.34 441.959 42.3033 442.186 42.23C442.413 42.15 442.636 42.0433 442.856 41.91L443.206 42.54C442.953 42.7067 442.666 42.8467 442.346 42.96C442.033 43.0667 441.686 43.12 441.306 43.12ZM441.186 38.77C440.999 38.77 440.823 38.8 440.656 38.86C440.489 38.9133 440.339 38.9967 440.206 39.11C440.073 39.2233 439.959 39.3633 439.866 39.53C439.773 39.6967 439.706 39.89 439.666 40.11H442.516C442.483 39.6633 442.346 39.33 442.106 39.11C441.873 38.8833 441.566 38.77 441.186 38.77ZM446.672 43.12C446.352 43.12 446.062 43.0633 445.802 42.95C445.549 42.8367 445.329 42.67 445.142 42.45C444.955 42.23 444.812 41.9633 444.712 41.65C444.612 41.33 444.562 40.9667 444.562 40.56C444.562 40.16 444.622 39.8033 444.742 39.49C444.869 39.17 445.032 38.9 445.232 38.68C445.439 38.46 445.672 38.29 445.932 38.17C446.199 38.05 446.472 37.99 446.752 37.99C447.039 37.99 447.292 38.0433 447.512 38.15C447.739 38.2567 447.952 38.4067 448.152 38.6H448.182L448.132 37.73V35.91H449.122V43H448.312L448.232 42.4H448.202C448.009 42.5933 447.779 42.7633 447.512 42.91C447.245 43.05 446.965 43.12 446.672 43.12ZM446.902 42.3C447.342 42.3 447.752 42.08 448.132 41.64V39.32C447.939 39.1333 447.745 39.0033 447.552 38.93C447.359 38.8567 447.165 38.82 446.972 38.82C446.779 38.82 446.599 38.86 446.432 38.94C446.265 39.02 446.119 39.1367 445.992 39.29C445.865 39.4367 445.765 39.6167 445.692 39.83C445.619 40.0433 445.582 40.2833 445.582 40.55C445.582 41.1167 445.695 41.55 445.922 41.85C446.155 42.15 446.482 42.3 446.902 42.3ZM458.664 43.12C458.344 43.12 458.054 43.0633 457.794 42.95C457.541 42.8367 457.321 42.67 457.134 42.45C456.947 42.23 456.804 41.9633 456.704 41.65C456.604 41.33 456.554 40.9667 456.554 40.56C456.554 40.16 456.614 39.8033 456.734 39.49C456.861 39.17 457.024 38.9 457.224 38.68C457.431 38.46 457.664 38.29 457.924 38.17C458.191 38.05 458.464 37.99 458.744 37.99C459.031 37.99 459.284 38.0433 459.504 38.15C459.731 38.2567 459.944 38.4067 460.144 38.6H460.174L460.124 37.73V35.91H461.114V43H460.304L460.224 42.4H460.194C460.001 42.5933 459.771 42.7633 459.504 42.91C459.237 43.05 458.957 43.12 458.664 43.12ZM458.894 42.3C459.334 42.3 459.744 42.08 460.124 41.64V39.32C459.931 39.1333 459.737 39.0033 459.544 38.93C459.351 38.8567 459.157 38.82 458.964 38.82C458.771 38.82 458.591 38.86 458.424 38.94C458.257 39.02 458.111 39.1367 457.984 39.29C457.857 39.4367 457.757 39.6167 457.684 39.83C457.611 40.0433 457.574 40.2833 457.574 40.55C457.574 41.1167 457.687 41.55 457.914 41.85C458.147 42.15 458.474 42.3 458.894 42.3ZM465.05 43V38.91H462.86V38.11H466.04V43H465.05ZM465.46 37.16C465.247 37.16 465.07 37.0967 464.93 36.97C464.79 36.8367 464.72 36.6633 464.72 36.45C464.72 36.2367 464.79 36.0667 464.93 35.94C465.07 35.8067 465.247 35.74 465.46 35.74C465.674 35.74 465.85 35.8067 465.99 35.94C466.13 36.0667 466.2 36.2367 466.2 36.45C466.2 36.6633 466.13 36.8367 465.99 36.97C465.85 37.0967 465.674 37.16 465.46 37.16ZM471.046 43.12C470.58 43.12 470.14 43.0467 469.726 42.9C469.313 42.7467 468.956 42.5667 468.656 42.36L469.096 41.72C469.383 41.92 469.693 42.0767 470.026 42.19C470.366 42.3033 470.75 42.36 471.176 42.36C471.556 42.36 471.836 42.2967 472.016 42.17C472.196 42.0367 472.286 41.8767 472.286 41.69C472.286 41.6033 472.27 41.5233 472.236 41.45C472.203 41.3767 472.133 41.31 472.026 41.25C471.926 41.1833 471.783 41.12 471.596 41.06C471.41 41 471.163 40.9367 470.856 40.87C470.21 40.7367 469.73 40.5567 469.416 40.33C469.11 40.0967 468.956 39.7933 468.956 39.42C468.956 39.2133 469 39.0233 469.086 38.85C469.18 38.6767 469.313 38.5267 469.486 38.4C469.666 38.2733 469.886 38.1733 470.146 38.1C470.406 38.0267 470.706 37.99 471.046 37.99C471.433 37.99 471.8 38.0567 472.146 38.19C472.5 38.3167 472.8 38.4633 473.046 38.63L472.586 39.25C472.353 39.0967 472.096 38.9767 471.816 38.89C471.543 38.7967 471.256 38.75 470.956 38.75C470.583 38.75 470.32 38.81 470.166 38.93C470.02 39.05 469.946 39.1967 469.946 39.37C469.946 39.5633 470.05 39.71 470.256 39.81C470.463 39.91 470.806 40.01 471.286 40.11C471.686 40.1967 472.013 40.29 472.266 40.39C472.526 40.49 472.73 40.6 472.876 40.72C473.03 40.84 473.136 40.9767 473.196 41.13C473.256 41.2767 473.286 41.4433 473.286 41.63C473.286 41.8367 473.236 42.03 473.136 42.21C473.036 42.39 472.89 42.55 472.696 42.69C472.51 42.8233 472.276 42.9267 471.996 43C471.723 43.08 471.406 43.12 471.046 43.12ZM477.902 43.12C477.542 43.12 477.236 43.07 476.982 42.97C476.736 42.87 476.536 42.73 476.382 42.55C476.236 42.37 476.129 42.1567 476.062 41.91C475.996 41.6567 475.962 41.3767 475.962 41.07V38.91H474.622V38.16L476.002 38.11L476.132 36.56H476.952V38.11H479.262V38.91H476.952V41.07C476.952 41.49 477.036 41.8033 477.202 42.01C477.376 42.2167 477.686 42.32 478.132 42.32C478.346 42.32 478.542 42.3033 478.722 42.27C478.902 42.23 479.079 42.1767 479.252 42.11L479.452 42.84C479.232 42.9133 478.999 42.9767 478.752 43.03C478.506 43.09 478.222 43.12 477.902 43.12ZM482.389 43.12C482.155 43.12 481.935 43.0867 481.729 43.02C481.529 42.9533 481.355 42.86 481.209 42.74C481.062 42.6133 480.945 42.4633 480.859 42.29C480.779 42.1167 480.739 41.9233 480.739 41.71C480.739 41.4367 480.802 41.1967 480.929 40.99C481.062 40.7833 481.265 40.6067 481.539 40.46C481.819 40.3133 482.175 40.1933 482.609 40.1C483.049 40.0067 483.575 39.9367 484.189 39.89C484.175 39.59 484.075 39.3333 483.889 39.12C483.709 38.9067 483.402 38.8 482.969 38.8C482.669 38.8 482.375 38.8567 482.089 38.97C481.809 39.0833 481.549 39.21 481.309 39.35L480.939 38.68C481.072 38.6 481.222 38.52 481.389 38.44C481.555 38.3533 481.732 38.2767 481.919 38.21C482.112 38.1433 482.309 38.09 482.509 38.05C482.715 38.01 482.925 37.99 483.139 37.99C483.819 37.99 484.329 38.1733 484.669 38.54C485.009 38.9067 485.179 39.4133 485.179 40.06V43H484.369L484.289 42.37H484.259C483.999 42.57 483.705 42.7467 483.379 42.9C483.059 43.0467 482.729 43.12 482.389 43.12ZM482.669 42.33C482.929 42.33 483.182 42.2733 483.429 42.16C483.682 42.0467 483.935 41.8867 484.189 41.68V40.52C483.709 40.56 483.309 40.6133 482.989 40.68C482.669 40.74 482.412 40.82 482.219 40.92C482.032 41.0133 481.899 41.12 481.819 41.24C481.739 41.36 481.699 41.4933 481.699 41.64C481.699 41.8867 481.792 42.0633 481.979 42.17C482.172 42.2767 482.402 42.33 482.669 42.33ZM486.855 43V38.11H487.665L487.745 38.9H487.785C488.031 38.6467 488.298 38.4333 488.585 38.26C488.871 38.08 489.205 37.99 489.585 37.99C490.158 37.99 490.578 38.16 490.845 38.5C491.111 38.84 491.245 39.33 491.245 39.97V43H490.255V40.1C490.255 39.6733 490.178 39.36 490.025 39.16C489.871 38.9533 489.608 38.85 489.235 38.85C488.975 38.85 488.741 38.9167 488.535 39.05C488.328 39.1767 488.098 39.37 487.845 39.63V43H486.855ZM495.421 43.12C495.041 43.12 494.684 43.0633 494.351 42.95C494.024 42.8367 493.741 42.67 493.501 42.45C493.261 42.23 493.071 41.9633 492.931 41.65C492.797 41.33 492.731 40.9667 492.731 40.56C492.731 40.1533 492.804 39.79 492.951 39.47C493.097 39.15 493.297 38.88 493.551 38.66C493.804 38.44 494.094 38.2733 494.421 38.16C494.754 38.0467 495.107 37.99 495.481 37.99C495.881 37.99 496.231 38.06 496.531 38.2C496.831 38.3333 497.081 38.4967 497.281 38.69L496.801 39.32C496.607 39.16 496.407 39.0367 496.201 38.95C495.994 38.8567 495.771 38.81 495.531 38.81C495.271 38.81 495.031 38.8533 494.811 38.94C494.591 39.02 494.401 39.1367 494.241 39.29C494.087 39.4433 493.967 39.63 493.881 39.85C493.794 40.0633 493.751 40.3 493.751 40.56C493.751 40.82 493.791 41.06 493.871 41.28C493.957 41.4933 494.077 41.6767 494.231 41.83C494.391 41.9833 494.577 42.1033 494.791 42.19C495.004 42.27 495.241 42.31 495.501 42.31C495.801 42.31 496.067 42.2533 496.301 42.14C496.541 42.0267 496.757 41.89 496.951 41.73L497.381 42.37C497.101 42.61 496.794 42.7967 496.461 42.93C496.127 43.0567 495.781 43.12 495.421 43.12ZM501.267 43.12C500.893 43.12 500.547 43.0633 500.227 42.95C499.907 42.8367 499.627 42.67 499.387 42.45C499.147 42.23 498.957 41.96 498.817 41.64C498.683 41.32 498.617 40.9567 498.617 40.55C498.617 40.15 498.687 39.7933 498.827 39.48C498.967 39.16 499.15 38.89 499.377 38.67C499.61 38.45 499.877 38.2833 500.177 38.17C500.477 38.05 500.79 37.99 501.117 37.99C501.477 37.99 501.797 38.0467 502.077 38.16C502.357 38.2733 502.59 38.4333 502.777 38.64C502.97 38.84 503.117 39.0833 503.217 39.37C503.317 39.65 503.367 39.96 503.367 40.3C503.367 40.4067 503.363 40.5067 503.357 40.6C503.35 40.6933 503.34 40.7733 503.327 40.84H499.607C499.66 41.3467 499.85 41.7233 500.177 41.97C500.51 42.2167 500.917 42.34 501.397 42.34C501.67 42.34 501.92 42.3033 502.147 42.23C502.373 42.15 502.597 42.0433 502.817 41.91L503.167 42.54C502.913 42.7067 502.627 42.8467 502.307 42.96C501.993 43.0667 501.647 43.12 501.267 43.12ZM501.147 38.77C500.96 38.77 500.783 38.8 500.617 38.86C500.45 38.9133 500.3 38.9967 500.167 39.11C500.033 39.2233 499.92 39.3633 499.827 39.53C499.733 39.6967 499.667 39.89 499.627 40.11H502.477C502.443 39.6633 502.307 39.33 502.067 39.11C501.833 38.8833 501.527 38.77 501.147 38.77Z" fill="#30394B"/>
<path d="M305.136 73V61H306.696V73H305.136ZM313.604 70V68.176H309.932V66.964L313.112 62.38H315.248V66.832H316.208V68.176H315.248V70H313.604ZM311.636 66.832H313.604V65.548C313.604 65.308 313.608 65.032 313.616 64.72C313.632 64.4 313.648 64.12 313.664 63.88H313.616C313.488 64.096 313.352 64.312 313.208 64.528C313.064 64.744 312.924 64.96 312.788 65.176L311.636 66.832ZM324.742 66.664V65.416H330.262V66.664H324.742ZM341.881 70.144C341.441 70.144 341.045 70.096 340.693 70C340.341 69.896 340.041 69.752 339.793 69.568C339.545 69.384 339.353 69.164 339.217 68.908C339.089 68.652 339.025 68.368 339.025 68.056C339.025 67.824 339.061 67.616 339.133 67.432C339.213 67.24 339.317 67.068 339.445 66.916C339.581 66.764 339.733 66.628 339.901 66.508C340.077 66.388 340.265 66.28 340.465 66.184V66.136C340.145 65.912 339.877 65.66 339.661 65.38C339.453 65.092 339.349 64.744 339.349 64.336C339.349 64.016 339.413 63.728 339.541 63.472C339.669 63.208 339.845 62.984 340.069 62.8C340.301 62.616 340.577 62.476 340.897 62.38C341.217 62.284 341.565 62.236 341.941 62.236C342.325 62.236 342.669 62.288 342.973 62.392C343.285 62.488 343.549 62.628 343.765 62.812C343.981 62.988 344.145 63.208 344.257 63.472C344.377 63.728 344.437 64.012 344.437 64.324C344.437 64.684 344.329 65.004 344.113 65.284C343.905 65.564 343.649 65.8 343.345 65.992V66.04C343.545 66.136 343.733 66.248 343.909 66.376C344.085 66.496 344.237 66.636 344.365 66.796C344.493 66.956 344.593 67.14 344.665 67.348C344.737 67.548 344.773 67.776 344.773 68.032C344.773 68.336 344.709 68.616 344.581 68.872C344.453 69.128 344.265 69.352 344.017 69.544C343.777 69.728 343.477 69.876 343.117 69.988C342.757 70.092 342.345 70.144 341.881 70.144ZM342.409 65.56C342.793 65.216 342.985 64.844 342.985 64.444C342.985 64.148 342.893 63.912 342.709 63.736C342.525 63.552 342.257 63.46 341.905 63.46C341.625 63.46 341.385 63.532 341.185 63.676C340.993 63.82 340.897 64.04 340.897 64.336C340.897 64.648 341.037 64.892 341.317 65.068C341.597 65.244 341.961 65.408 342.409 65.56ZM341.929 68.92C342.289 68.92 342.577 68.844 342.793 68.692C343.017 68.532 343.129 68.292 343.129 67.972C343.129 67.796 343.085 67.648 342.997 67.528C342.909 67.408 342.781 67.3 342.613 67.204C342.453 67.1 342.261 67.008 342.037 66.928C341.813 66.84 341.565 66.744 341.293 66.64C341.077 66.8 340.897 66.98 340.753 67.18C340.617 67.38 340.549 67.604 340.549 67.852C340.549 68.188 340.681 68.452 340.945 68.644C341.209 68.828 341.537 68.92 341.929 68.92ZM348.308 73V61H349.868V73H348.308Z" fill="#30394B"/>
<path d="M305.136 98V86H306.696V98H305.136ZM313.316 95.144C312.924 95.144 312.544 95.072 312.176 94.928C311.808 94.784 311.48 94.56 311.192 94.256C310.904 93.952 310.672 93.564 310.496 93.092C310.32 92.612 310.232 92.036 310.232 91.364C310.232 90.652 310.324 90.036 310.508 89.516C310.692 88.996 310.936 88.568 311.24 88.232C311.552 87.896 311.904 87.648 312.296 87.488C312.688 87.32 313.096 87.236 313.52 87.236C314.064 87.236 314.54 87.328 314.948 87.512C315.356 87.688 315.688 87.9 315.944 88.148L315.02 89.204C314.86 89.06 314.66 88.936 314.42 88.832C314.18 88.72 313.932 88.664 313.676 88.664C313.444 88.664 313.22 88.708 313.004 88.796C312.796 88.876 312.608 89.012 312.44 89.204C312.28 89.388 312.148 89.632 312.044 89.936C311.94 90.24 311.88 90.616 311.864 91.064C312.136 90.8 312.436 90.596 312.764 90.452C313.1 90.308 313.412 90.236 313.7 90.236C314.036 90.236 314.344 90.284 314.624 90.38C314.912 90.476 315.16 90.62 315.368 90.812C315.584 91.004 315.752 91.248 315.872 91.544C315.992 91.84 316.052 92.188 316.052 92.588C316.052 92.988 315.976 93.344 315.824 93.656C315.68 93.968 315.48 94.236 315.224 94.46C314.976 94.684 314.688 94.856 314.36 94.976C314.032 95.088 313.684 95.144 313.316 95.144ZM313.28 93.824C313.432 93.824 313.576 93.8 313.712 93.752C313.856 93.704 313.98 93.632 314.084 93.536C314.196 93.432 314.284 93.304 314.348 93.152C314.412 92.992 314.444 92.804 314.444 92.588C314.444 92.196 314.34 91.916 314.132 91.748C313.924 91.572 313.652 91.484 313.316 91.484C313.092 91.484 312.86 91.54 312.62 91.652C312.38 91.764 312.144 91.956 311.912 92.228C311.96 92.532 312.028 92.788 312.116 92.996C312.212 93.196 312.32 93.36 312.44 93.488C312.56 93.608 312.692 93.696 312.836 93.752C312.98 93.8 313.128 93.824 313.28 93.824ZM324.742 91.664V90.416H330.262V91.664H324.742ZM341.881 95.144C341.441 95.144 341.045 95.096 340.693 95C340.341 94.896 340.041 94.752 339.793 94.568C339.545 94.384 339.353 94.164 339.217 93.908C339.089 93.652 339.025 93.368 339.025 93.056C339.025 92.824 339.061 92.616 339.133 92.432C339.213 92.24 339.317 92.068 339.445 91.916C339.581 91.764 339.733 91.628 339.901 91.508C340.077 91.388 340.265 91.28 340.465 91.184V91.136C340.145 90.912 339.877 90.66 339.661 90.38C339.453 90.092 339.349 89.744 339.349 89.336C339.349 89.016 339.413 88.728 339.541 88.472C339.669 88.208 339.845 87.984 340.069 87.8C340.301 87.616 340.577 87.476 340.897 87.38C341.217 87.284 341.565 87.236 341.941 87.236C342.325 87.236 342.669 87.288 342.973 87.392C343.285 87.488 343.549 87.628 343.765 87.812C343.981 87.988 344.145 88.208 344.257 88.472C344.377 88.728 344.437 89.012 344.437 89.324C344.437 89.684 344.329 90.004 344.113 90.284C343.905 90.564 343.649 90.8 343.345 90.992V91.04C343.545 91.136 343.733 91.248 343.909 91.376C344.085 91.496 344.237 91.636 344.365 91.796C344.493 91.956 344.593 92.14 344.665 92.348C344.737 92.548 344.773 92.776 344.773 93.032C344.773 93.336 344.709 93.616 344.581 93.872C344.453 94.128 344.265 94.352 344.017 94.544C343.777 94.728 343.477 94.876 343.117 94.988C342.757 95.092 342.345 95.144 341.881 95.144ZM342.409 90.56C342.793 90.216 342.985 89.844 342.985 89.444C342.985 89.148 342.893 88.912 342.709 88.736C342.525 88.552 342.257 88.46 341.905 88.46C341.625 88.46 341.385 88.532 341.185 88.676C340.993 88.82 340.897 89.04 340.897 89.336C340.897 89.648 341.037 89.892 341.317 90.068C341.597 90.244 341.961 90.408 342.409 90.56ZM341.929 93.92C342.289 93.92 342.577 93.844 342.793 93.692C343.017 93.532 343.129 93.292 343.129 92.972C343.129 92.796 343.085 92.648 342.997 92.528C342.909 92.408 342.781 92.3 342.613 92.204C342.453 92.1 342.261 92.008 342.037 91.928C341.813 91.84 341.565 91.744 341.293 91.64C341.077 91.8 340.897 91.98 340.753 92.18C340.617 92.38 340.549 92.604 340.549 92.852C340.549 93.188 340.681 93.452 340.945 93.644C341.209 93.828 341.537 93.92 341.929 93.92ZM348.308 98V86H349.868V98H348.308Z" fill="#30394B"/>
<path d="M305.136 125V113H306.696V125H305.136ZM310.46 122V120.572H312.512V116.168H310.82V115.076C311.076 115.036 311.304 114.996 311.504 114.956C311.712 114.908 311.9 114.856 312.068 114.8C312.236 114.744 312.392 114.684 312.536 114.62C312.688 114.548 312.836 114.468 312.98 114.38H314.276V120.572H316.004V122H310.46ZM324.742 118.664V117.416H330.262V118.664H324.742ZM341.881 122.144C341.441 122.144 341.045 122.096 340.693 122C340.341 121.896 340.041 121.752 339.793 121.568C339.545 121.384 339.353 121.164 339.217 120.908C339.089 120.652 339.025 120.368 339.025 120.056C339.025 119.824 339.061 119.616 339.133 119.432C339.213 119.24 339.317 119.068 339.445 118.916C339.581 118.764 339.733 118.628 339.901 118.508C340.077 118.388 340.265 118.28 340.465 118.184V118.136C340.145 117.912 339.877 117.66 339.661 117.38C339.453 117.092 339.349 116.744 339.349 116.336C339.349 116.016 339.413 115.728 339.541 115.472C339.669 115.208 339.845 114.984 340.069 114.8C340.301 114.616 340.577 114.476 340.897 114.38C341.217 114.284 341.565 114.236 341.941 114.236C342.325 114.236 342.669 114.288 342.973 114.392C343.285 114.488 343.549 114.628 343.765 114.812C343.981 114.988 344.145 115.208 344.257 115.472C344.377 115.728 344.437 116.012 344.437 116.324C344.437 116.684 344.329 117.004 344.113 117.284C343.905 117.564 343.649 117.8 343.345 117.992V118.04C343.545 118.136 343.733 118.248 343.909 118.376C344.085 118.496 344.237 118.636 344.365 118.796C344.493 118.956 344.593 119.14 344.665 119.348C344.737 119.548 344.773 119.776 344.773 120.032C344.773 120.336 344.709 120.616 344.581 120.872C344.453 121.128 344.265 121.352 344.017 121.544C343.777 121.728 343.477 121.876 343.117 121.988C342.757 122.092 342.345 122.144 341.881 122.144ZM342.409 117.56C342.793 117.216 342.985 116.844 342.985 116.444C342.985 116.148 342.893 115.912 342.709 115.736C342.525 115.552 342.257 115.46 341.905 115.46C341.625 115.46 341.385 115.532 341.185 115.676C340.993 115.82 340.897 116.04 340.897 116.336C340.897 116.648 341.037 116.892 341.317 117.068C341.597 117.244 341.961 117.408 342.409 117.56ZM341.929 120.92C342.289 120.92 342.577 120.844 342.793 120.692C343.017 120.532 343.129 120.292 343.129 119.972C343.129 119.796 343.085 119.648 342.997 119.528C342.909 119.408 342.781 119.3 342.613 119.204C342.453 119.1 342.261 119.008 342.037 118.928C341.813 118.84 341.565 118.744 341.293 118.64C341.077 118.8 340.897 118.98 340.753 119.18C340.617 119.38 340.549 119.604 340.549 119.852C340.549 120.188 340.681 120.452 340.945 120.644C341.209 120.828 341.537 120.92 341.929 120.92ZM348.308 125V113H349.868V125H348.308Z" fill="#30394B"/>
<path d="M305.136 153V141H306.696V153H305.136ZM310.208 150V148.992C310.752 148.536 311.248 148.112 311.696 147.72C312.144 147.32 312.528 146.948 312.848 146.604C313.168 146.26 313.416 145.936 313.592 145.632C313.768 145.328 313.856 145.04 313.856 144.768C313.856 144.392 313.748 144.108 313.532 143.916C313.316 143.716 313.008 143.616 312.608 143.616C312.304 143.616 312.024 143.696 311.768 143.856C311.52 144.008 311.288 144.188 311.072 144.396L310.124 143.448C310.324 143.248 310.52 143.072 310.712 142.92C310.912 142.768 311.12 142.644 311.336 142.548C311.56 142.444 311.792 142.368 312.032 142.32C312.28 142.264 312.552 142.236 312.848 142.236C313.248 142.236 313.612 142.296 313.94 142.416C314.268 142.528 314.548 142.692 314.78 142.908C315.02 143.116 315.204 143.368 315.332 143.664C315.468 143.96 315.536 144.292 315.536 144.66C315.536 144.98 315.46 145.308 315.308 145.644C315.156 145.972 314.948 146.304 314.684 146.64C314.428 146.968 314.132 147.3 313.796 147.636C313.46 147.964 313.108 148.288 312.74 148.608C312.956 148.584 313.188 148.564 313.436 148.548C313.692 148.524 313.92 148.512 314.12 148.512H315.932V150H310.208ZM324.742 146.664V145.416H330.262V146.664H324.742ZM341.881 150.144C341.441 150.144 341.045 150.096 340.693 150C340.341 149.896 340.041 149.752 339.793 149.568C339.545 149.384 339.353 149.164 339.217 148.908C339.089 148.652 339.025 148.368 339.025 148.056C339.025 147.824 339.061 147.616 339.133 147.432C339.213 147.24 339.317 147.068 339.445 146.916C339.581 146.764 339.733 146.628 339.901 146.508C340.077 146.388 340.265 146.28 340.465 146.184V146.136C340.145 145.912 339.877 145.66 339.661 145.38C339.453 145.092 339.349 144.744 339.349 144.336C339.349 144.016 339.413 143.728 339.541 143.472C339.669 143.208 339.845 142.984 340.069 142.8C340.301 142.616 340.577 142.476 340.897 142.38C341.217 142.284 341.565 142.236 341.941 142.236C342.325 142.236 342.669 142.288 342.973 142.392C343.285 142.488 343.549 142.628 343.765 142.812C343.981 142.988 344.145 143.208 344.257 143.472C344.377 143.728 344.437 144.012 344.437 144.324C344.437 144.684 344.329 145.004 344.113 145.284C343.905 145.564 343.649 145.8 343.345 145.992V146.04C343.545 146.136 343.733 146.248 343.909 146.376C344.085 146.496 344.237 146.636 344.365 146.796C344.493 146.956 344.593 147.14 344.665 147.348C344.737 147.548 344.773 147.776 344.773 148.032C344.773 148.336 344.709 148.616 344.581 148.872C344.453 149.128 344.265 149.352 344.017 149.544C343.777 149.728 343.477 149.876 343.117 149.988C342.757 150.092 342.345 150.144 341.881 150.144ZM342.409 145.56C342.793 145.216 342.985 144.844 342.985 144.444C342.985 144.148 342.893 143.912 342.709 143.736C342.525 143.552 342.257 143.46 341.905 143.46C341.625 143.46 341.385 143.532 341.185 143.676C340.993 143.82 340.897 144.04 340.897 144.336C340.897 144.648 341.037 144.892 341.317 145.068C341.597 145.244 341.961 145.408 342.409 145.56ZM341.929 148.92C342.289 148.92 342.577 148.844 342.793 148.692C343.017 148.532 343.129 148.292 343.129 147.972C343.129 147.796 343.085 147.648 342.997 147.528C342.909 147.408 342.781 147.3 342.613 147.204C342.453 147.1 342.261 147.008 342.037 146.928C341.813 146.84 341.565 146.744 341.293 146.64C341.077 146.8 340.897 146.98 340.753 147.18C340.617 147.38 340.549 147.604 340.549 147.852C340.549 148.188 340.681 148.452 340.945 148.644C341.209 148.828 341.537 148.92 341.929 148.92ZM348.308 153V141H349.868V153H348.308Z" fill="#30394B"/>
<path d="M134.5 28.5H517C517.828 28.5 518.5 29.1716 518.5 30V160C518.5 160.828 517.828 161.5 517 161.5H136C135.172 161.5 134.5 160.828 134.5 160V28.5Z" stroke="#EFF1F6"/>
<path d="M3.5 28.5H92C92.8284 28.5 93.5 29.1716 93.5 30V77C93.5 77.8284 92.8284 78.5 92 78.5H5C4.17157 78.5 3.5 77.8284 3.5 77V28.5Z" stroke="#EFF1F6"/>
<line x1="186.5" y1="28" x2="186.5" y2="162" stroke="#EFF1F6"/>
<line x1="280.5" y1="28" x2="280.5" y2="162" stroke="#EFF1F6"/>
<line x1="374.5" y1="28" x2="374.5" y2="162" stroke="#EFF1F6"/>
<line x1="134" y1="53.5" x2="519" y2="53.5" stroke="#EFF1F6"/>
<line x1="3" y1="53.5" x2="94" y2="53.5" stroke="#EFF1F6"/>
<line x1="134" y1="28.5" x2="402" y2="28.5" stroke="#EFF1F6"/>
<line x1="3" y1="28.5" x2="94" y2="28.5" stroke="#EFF1F6"/>
<line x1="134" y1="78.5" x2="519" y2="78.5" stroke="#EFF1F6"/>
<line x1="134" y1="103.5" x2="519" y2="103.5" stroke="#EFF1F6"/>
<line x1="134" y1="132.5" x2="519" y2="132.5" stroke="#EFF1F6"/>
</svg>
