<svg width="856" height="261" viewBox="0 0 856 261" fill="none" xmlns="http://www.w3.org/2000/svg">
<g clip-path="url(#clip0)">
<rect width="856" height="261" fill="white"/>
<line x1="31.5" y1="4" x2="31.5" y2="225" stroke="black"/>
<line x1="317.5" y1="4" x2="317.5" y2="225" stroke="black"/>
<line x1="603.5" y1="4" x2="603.5" y2="225" stroke="black"/>
<line x1="31" y1="224.5" x2="252" y2="224.5" stroke="black"/>
<line x1="317" y1="224.5" x2="538" y2="224.5" stroke="black"/>
<line x1="603" y1="224.5" x2="824" y2="224.5" stroke="black"/>
<path d="M19.224 128.332L20.304 128.584C20.376 128.368 20.424 128.14 20.424 127.816C20.424 126.532 19.596 125.92 18.264 125.428L12.108 123.292V124.624L15 125.512C15.528 125.656 16.116 125.812 16.656 125.956V126.004C16.104 126.184 15.516 126.352 15 126.52L12.108 127.54V128.944L17.928 126.628L18.3 126.736C18.888 126.928 19.308 127.288 19.308 127.912C19.308 128.056 19.26 128.224 19.224 128.332ZM15.48 122.642L15.48 119.786H14.472L14.472 122.642H15.48ZM16.416 118.655C17.448 118.655 18.144 117.935 18.144 116.903C18.144 116.207 17.796 115.607 17.352 115.079V115.043L18 114.935V113.807H14.508C12.864 113.807 11.964 114.527 11.964 116.003C11.964 116.939 12.324 117.767 12.732 118.415L13.656 117.911C13.344 117.395 13.08 116.843 13.08 116.255C13.08 115.463 13.608 115.199 14.232 115.187C14.496 117.599 15.156 118.655 16.416 118.655ZM16.308 117.311C15.72 117.311 15.3 116.783 15.096 115.187H16.416C16.824 115.619 17.064 115.991 17.064 116.471C17.064 116.963 16.836 117.311 16.308 117.311ZM18 112.83V111.39L16.836 110.766C16.476 110.598 16.128 110.418 15.792 110.25V110.202C16.128 109.998 16.488 109.794 16.836 109.602L18 108.882V107.394L15.084 109.266L12.108 107.526V108.954L13.224 109.518C13.548 109.662 13.896 109.83 14.22 109.974V110.022C13.896 110.202 13.548 110.394 13.224 110.562L12.108 111.222V112.71L14.928 110.958L18 112.83ZM11.076 105.649C11.076 105.157 10.752 104.797 10.296 104.797C9.828 104.797 9.504 105.157 9.504 105.649C9.504 106.141 9.828 106.501 10.296 106.501C10.752 106.501 11.076 106.141 11.076 105.649ZM18 106.345V104.965H12.108V106.345H18ZM17.328 103.792C17.796 103.216 18.144 102.364 18.144 101.56C18.144 100.072 17.328 99.2681 16.32 99.2681C15.216 99.2681 14.832 100.156 14.532 100.96C14.304 101.596 14.112 102.184 13.656 102.184C13.284 102.184 13.008 101.908 13.008 101.32C13.008 100.852 13.212 100.432 13.512 100.024L12.672 99.3881C12.3 99.8681 11.964 100.528 11.964 101.344C11.964 102.664 12.696 103.492 13.728 103.492C14.712 103.492 15.156 102.616 15.444 101.836C15.684 101.212 15.9 100.576 16.392 100.576C16.8 100.576 17.1 100.876 17.1 101.512C17.1 102.112 16.848 102.616 16.44 103.144L17.328 103.792Z" fill="black"/>
<path d="M126.756 247H128.196L128.82 245.836C128.988 245.476 129.168 245.128 129.336 244.792H129.384C129.588 245.128 129.792 245.488 129.984 245.836L130.704 247H132.192L130.32 244.084L132.06 241.108H130.632L130.068 242.224C129.924 242.548 129.756 242.896 129.612 243.22H129.564C129.384 242.896 129.192 242.548 129.024 242.224L128.364 241.108H126.876L128.628 243.928L126.756 247ZM132.682 244.48H135.538V243.472H132.682V244.48ZM136.669 245.416C136.669 246.448 137.389 247.144 138.421 247.144C139.117 247.144 139.717 246.796 140.245 246.352H140.281L140.389 247H141.517V243.508C141.517 241.864 140.797 240.964 139.321 240.964C138.385 240.964 137.557 241.324 136.909 241.732L137.413 242.656C137.929 242.344 138.481 242.08 139.069 242.08C139.861 242.08 140.125 242.608 140.137 243.232C137.725 243.496 136.669 244.156 136.669 245.416ZM138.013 245.308C138.013 244.72 138.541 244.3 140.137 244.096V245.416C139.705 245.824 139.333 246.064 138.853 246.064C138.361 246.064 138.013 245.836 138.013 245.308ZM142.494 247H143.934L144.558 245.836C144.726 245.476 144.906 245.128 145.074 244.792H145.122C145.326 245.128 145.53 245.488 145.722 245.836L146.442 247H147.93L146.058 244.084L147.798 241.108H146.37L145.806 242.224C145.662 242.548 145.494 242.896 145.35 243.22H145.302C145.122 242.896 144.93 242.548 144.762 242.224L144.102 241.108H142.614L144.366 243.928L142.494 247ZM149.676 240.076C150.168 240.076 150.528 239.752 150.528 239.296C150.528 238.828 150.168 238.504 149.676 238.504C149.184 238.504 148.824 238.828 148.824 239.296C148.824 239.752 149.184 240.076 149.676 240.076ZM148.98 247H150.36V241.108H148.98V247ZM151.532 246.328C152.108 246.796 152.96 247.144 153.764 247.144C155.252 247.144 156.056 246.328 156.056 245.32C156.056 244.216 155.168 243.832 154.364 243.532C153.728 243.304 153.14 243.112 153.14 242.656C153.14 242.284 153.416 242.008 154.004 242.008C154.472 242.008 154.892 242.212 155.3 242.512L155.936 241.672C155.456 241.3 154.796 240.964 153.98 240.964C152.66 240.964 151.832 241.696 151.832 242.728C151.832 243.712 152.708 244.156 153.488 244.444C154.112 244.684 154.748 244.9 154.748 245.392C154.748 245.8 154.448 246.1 153.812 246.1C153.212 246.1 152.708 245.848 152.18 245.44L151.532 246.328Z" fill="black"/>
<path opacity="0.25" d="M547.486 58.1667C547.578 57.6222 547.211 57.1061 546.667 57.014L537.793 55.5133C537.248 55.4212 536.732 55.788 536.64 56.3326C536.548 56.8771 536.915 57.3932 537.459 57.4853L545.347 58.8193L544.013 66.7073C543.921 67.2518 544.288 67.7679 544.833 67.86C545.377 67.9521 545.893 67.5853 545.985 67.0407L547.486 58.1667ZM327.579 214.815L547.079 58.8151L545.921 57.1849L326.421 213.185L327.579 214.815Z" fill="#BB6BD9"/>
<path opacity="0.25" d="M262.2 38.714C262.595 38.3273 262.601 37.6941 262.214 37.2998L255.912 30.8747C255.525 30.4804 254.892 30.4743 254.498 30.861C254.103 31.2478 254.097 31.8809 254.484 32.2752L260.086 37.9864L254.375 43.5884C253.98 43.9751 253.974 44.6082 254.361 45.0025C254.748 45.3968 255.381 45.4029 255.775 45.0162L262.2 38.714ZM42.4983 214.942C38.7449 150.633 42.0677 106.367 71.7497 78.289C86.5988 64.2426 108.136 54.1604 138.947 47.7211C169.759 41.2815 209.771 38.5003 261.49 39L261.51 37.0001C209.729 36.4998 169.554 39.2812 138.538 45.7634C107.52 52.246 85.5887 62.445 70.3753 76.8361C39.9323 105.634 36.7551 150.867 40.5017 215.058L42.4983 214.942Z" fill="#31CB8A"/>
<path opacity="0.25" d="M833.399 18.5615C833.157 18.0651 832.558 17.8591 832.061 18.1013L823.973 22.0482C823.477 22.2904 823.271 22.8891 823.513 23.3855C823.755 23.8818 824.354 24.0878 824.85 23.8456L832.04 20.3373L835.548 27.5269C835.79 28.0233 836.389 28.2293 836.885 27.9871C837.382 27.7449 837.588 27.1462 837.346 26.6498L833.399 18.5615ZM613 215C644.086 215 680.703 220.411 718.748 198.555C756.812 176.687 796.167 127.657 833.446 19.3254L831.554 18.6746C794.333 126.843 755.188 175.313 717.752 196.82C680.297 218.339 644.414 213 613 213V215Z" fill="#29A1F8"/>
<path d="M833.399 213.029C833.157 213.525 832.558 213.731 832.061 213.489L823.973 209.542C823.477 209.3 823.271 208.701 823.513 208.205C823.755 207.709 824.354 207.503 824.85 207.745L832.04 211.253L835.548 204.063C835.79 203.567 836.389 203.361 836.885 203.603C837.382 203.845 837.588 204.444 837.346 204.94L833.399 213.029ZM613 16.5903C644.086 16.5903 680.703 11.179 718.748 33.0357C756.812 54.9034 796.167 103.933 833.446 212.265L831.554 212.916C794.333 104.748 755.188 56.2773 717.752 34.7699C680.297 13.2517 644.414 18.5903 613 18.5903V16.5903Z" fill="#29A1F8"/>
<path opacity="0.25" d="M172.55 15.6734L172.381 7.82719L173.76 7.79743L173.904 14.4679L177.587 14.3884L177.613 15.5641L172.55 15.6734ZM181.906 15.6155C181.522 15.6238 181.149 15.5639 180.786 15.4357C180.423 15.3075 180.103 15.1143 179.825 14.8563C179.548 14.5982 179.321 14.279 179.144 13.8987C178.976 13.5183 178.887 13.0841 178.876 12.5962C178.866 12.1083 178.936 11.6707 179.088 11.2833C179.248 10.8958 179.461 10.5671 179.727 10.2973C179.993 10.0275 180.305 9.82074 180.662 9.677C181.019 9.52527 181.389 9.44526 181.773 9.43698C182.157 9.4287 182.53 9.49266 182.893 9.62886C183.256 9.75706 183.576 9.9502 183.854 10.2083C184.132 10.4663 184.354 10.7856 184.523 11.1661C184.699 11.5464 184.792 11.9804 184.803 12.4683C184.813 12.9562 184.739 13.3939 184.579 13.7815C184.427 14.1688 184.219 14.4974 183.952 14.7672C183.686 15.037 183.374 15.2438 183.017 15.3875C182.66 15.5313 182.29 15.6073 181.906 15.6155ZM181.882 14.4878C182.362 14.4775 182.734 14.2934 182.998 13.9356C183.262 13.5698 183.388 13.091 183.375 12.4991C183.362 11.8993 183.216 11.4263 182.937 11.0803C182.657 10.7262 182.277 10.5544 181.797 10.5647C181.317 10.5751 180.945 10.7631 180.681 11.1289C180.417 11.4867 180.291 11.9655 180.304 12.5654C180.317 13.1573 180.463 13.6302 180.743 13.9843C181.022 14.3303 181.402 14.4982 181.882 14.4878ZM188.985 17.9234C188.577 17.9322 188.208 17.9081 187.879 17.8512C187.55 17.7943 187.264 17.7005 187.021 17.5697C186.786 17.4467 186.603 17.2866 186.47 17.0894C186.338 16.9002 186.269 16.6737 186.264 16.4097C186.253 15.9299 186.556 15.5112 187.173 15.1538L187.172 15.1059C187.01 15.0133 186.867 14.8924 186.744 14.743C186.62 14.5856 186.556 14.383 186.551 14.135C186.546 13.9431 186.606 13.7457 186.73 13.543C186.853 13.3403 187.022 13.1646 187.235 13.016L187.234 12.968C187.022 12.8205 186.838 12.6205 186.68 12.3678C186.531 12.115 186.452 11.8126 186.445 11.4607C186.438 11.1248 186.495 10.8234 186.617 10.5567C186.748 10.2899 186.919 10.0661 187.131 9.88551C187.351 9.69672 187.604 9.55123 187.89 9.44904C188.184 9.34668 188.495 9.29196 188.822 9.28489C189.158 9.27764 189.467 9.31899 189.749 9.40893L192.161 9.3569L192.184 10.4127L190.828 10.4419C190.934 10.5516 191.025 10.6937 191.101 10.8681C191.185 11.0343 191.229 11.2134 191.233 11.4054C191.24 11.7333 191.182 12.0226 191.059 12.2733C190.945 12.5239 190.781 12.7354 190.569 12.9081C190.365 13.0805 190.12 13.2138 189.833 13.308C189.547 13.4022 189.24 13.4528 188.913 13.4599C188.633 13.466 188.331 13.4164 188.009 13.3114C187.772 13.4605 187.656 13.6471 187.661 13.871C187.669 14.2389 188.045 14.4149 188.789 14.3988L189.988 14.3729C190.756 14.3564 191.335 14.4559 191.723 14.6716C192.12 14.8791 192.324 15.2428 192.335 15.7626C192.341 16.0506 192.267 16.3242 192.113 16.5836C191.958 16.843 191.735 17.0679 191.443 17.2582C191.159 17.4564 190.807 17.612 190.385 17.7252C189.971 17.8461 189.505 17.9122 188.985 17.9234ZM188.894 12.5841C189.198 12.5776 189.455 12.472 189.667 12.2674C189.886 12.0546 189.992 11.7602 189.984 11.3843C189.976 11.0244 189.858 10.7429 189.63 10.5398C189.409 10.3365 189.147 10.2381 188.843 10.2447C188.539 10.2512 188.278 10.3609 188.058 10.5737C187.847 10.7863 187.745 11.0726 187.753 11.4325C187.761 11.8084 187.875 12.098 188.095 12.3013C188.324 12.4964 188.59 12.5907 188.894 12.5841ZM189.133 17.008C189.421 17.0018 189.68 16.9682 189.911 16.9072C190.142 16.8542 190.341 16.7819 190.507 16.6903C190.673 16.5987 190.798 16.4959 190.884 16.3821C190.97 16.2682 191.011 16.1473 191.008 16.0193C191.003 15.7874 190.9 15.6336 190.698 15.5579C190.505 15.49 190.208 15.4604 189.808 15.4691L188.872 15.4893C188.496 15.4974 188.196 15.4758 187.971 15.4247C187.765 15.5491 187.62 15.6763 187.535 15.8062C187.45 15.936 187.408 16.069 187.411 16.2049C187.417 16.4689 187.565 16.6697 187.857 16.8075C188.156 16.9531 188.581 17.0199 189.133 17.008ZM195.514 15.322C195.226 15.3282 194.961 15.2899 194.719 15.2071C194.477 15.1323 194.267 15.0208 194.088 14.8726C193.908 14.7245 193.768 14.5474 193.668 14.3416C193.567 14.1277 193.514 13.8928 193.509 13.6368C193.502 13.3089 193.571 13.0193 193.718 12.7681C193.865 12.5089 194.1 12.2878 194.424 12.1047C194.748 11.9217 195.165 11.7687 195.674 11.6456C196.184 11.5226 196.802 11.4293 197.529 11.3656C197.497 11.0302 197.372 10.7568 197.151 10.5455C196.93 10.3343 196.58 10.2338 196.1 10.2441C195.764 10.2514 195.434 10.3225 195.109 10.4576C194.791 10.5845 194.482 10.7351 194.182 10.9097L193.658 9.99675C194.014 9.78103 194.422 9.58419 194.882 9.40622C195.342 9.22825 195.824 9.13383 196.328 9.12296C197.152 9.10519 197.784 9.31159 198.226 9.74217C198.667 10.1648 198.897 10.7879 198.914 11.6118L198.99 15.1029L197.862 15.1273L197.738 14.3978L197.702 14.3986C197.395 14.6452 197.052 14.8607 196.672 15.0449C196.3 15.221 195.913 15.3133 195.514 15.322ZM195.91 14.2332C196.206 14.2268 196.489 14.1567 196.758 14.0228C197.035 13.8808 197.307 13.6989 197.574 13.4771L197.547 12.2294C197.02 12.2808 196.582 12.3462 196.231 12.4258C195.881 12.4974 195.603 12.5874 195.397 12.6959C195.191 12.8043 195.046 12.9275 194.961 13.0654C194.876 13.1952 194.835 13.3402 194.838 13.5001C194.844 13.7641 194.948 13.9539 195.15 14.0695C195.361 14.185 195.614 14.2395 195.91 14.2332ZM201.444 15.05L201.317 9.15935L202.457 9.13477L202.606 10.4639L202.642 10.4631C202.935 9.97665 203.291 9.60488 203.71 9.34779C204.136 9.08253 204.605 8.94438 205.117 8.93334C205.357 8.92816 205.562 8.94376 205.73 8.98012C205.907 9.00832 206.084 9.06451 206.262 9.14869L205.999 10.3186C205.806 10.2588 205.633 10.2185 205.481 10.1978C205.336 10.1689 205.152 10.1569 204.928 10.1617C204.52 10.1705 204.13 10.2949 203.76 10.535C203.389 10.7751 203.057 11.1863 202.766 11.7687L202.836 15.02L201.444 15.05ZM210.642 14.8516L210.538 10.0527L207.983 10.1078L207.959 9.01606L211.894 8.93117L212.021 14.8218L210.642 14.8516ZM211.091 7.86824C210.811 7.87428 210.573 7.79539 210.378 7.63157C210.19 7.46758 210.093 7.24561 210.087 6.96568C210.081 6.68574 210.168 6.45981 210.349 6.28788C210.537 6.10778 210.771 6.01471 211.051 6.00867C211.331 6.00263 211.565 6.08561 211.752 6.2576C211.948 6.42142 212.049 6.6433 212.055 6.92323C212.061 7.20317 211.97 7.42918 211.781 7.60129C211.601 7.77322 211.371 7.8622 211.091 7.86824ZM218.966 14.816C218.518 14.8257 218.137 14.7739 217.822 14.6606C217.516 14.5472 217.264 14.3846 217.068 14.1728C216.879 13.9528 216.737 13.6878 216.642 13.3778C216.556 13.0676 216.508 12.7245 216.5 12.3486L216.448 9.92517L214.876 9.95908L214.854 8.92732L216.484 8.83213L216.624 6.98068L217.764 6.95609L217.804 8.80366L220.491 8.74568L220.515 9.83743L217.828 9.89541L217.88 12.3188C217.89 12.8067 217.998 13.1645 218.203 13.3921C218.416 13.6116 218.774 13.7159 219.278 13.705C219.526 13.6997 219.754 13.6747 219.961 13.6303C220.168 13.5778 220.366 13.5135 220.557 13.4374L220.842 14.4394C220.58 14.5331 220.298 14.6152 219.995 14.6858C219.693 14.7643 219.35 14.8077 218.966 14.816ZM222.449 14.5968L222.267 6.12678L223.658 6.09676L223.705 8.28025L223.649 9.54177L223.685 9.54099C223.935 9.26353 224.226 9.0212 224.557 8.814C224.889 8.6068 225.283 8.49828 225.738 8.48845C226.418 8.47378 226.923 8.67095 227.252 9.07995C227.58 9.48095 227.753 10.0654 227.769 10.8332L227.848 14.4803L226.457 14.5104L226.382 11.0432C226.371 10.5633 226.28 10.2172 226.107 10.0048C225.942 9.78435 225.656 9.6785 225.248 9.6873C224.96 9.69351 224.706 9.76702 224.485 9.90782C224.264 10.0486 224.02 10.2619 223.754 10.5477L223.841 14.5668L222.449 14.5968ZM229.211 14.4509L229.084 8.5603L230.152 8.53727L230.276 9.27876L230.312 9.27799C230.434 9.01929 230.594 8.8038 230.79 8.63152C230.986 8.45925 231.256 8.3694 231.6 8.36198C232.152 8.35007 232.515 8.67032 232.689 9.32272C232.819 9.03185 232.986 8.79219 233.19 8.60375C233.394 8.41531 233.668 8.31738 234.012 8.30996C234.428 8.30098 234.751 8.45804 234.982 8.78113C235.221 9.09606 235.347 9.54945 235.36 10.1413L235.45 14.3163L234.118 14.3451L234.03 10.266C234.019 9.74614 233.857 9.48956 233.545 9.49629C233.385 9.49974 233.251 9.56666 233.142 9.69705C233.04 9.81926 232.932 10.0056 232.818 10.2562L232.906 14.3712L231.755 14.3961L231.667 10.317C231.661 10.0611 231.621 9.86989 231.546 9.74347C231.471 9.60906 231.35 9.54366 231.182 9.54728C231.022 9.55074 230.887 9.61765 230.778 9.74804C230.677 9.87026 230.573 10.0565 230.466 10.3069L230.555 14.4219L229.211 14.4509ZM239.416 14.2308L239.313 9.43188L236.757 9.48701L236.734 8.39527L240.669 8.31037L240.796 14.201L239.416 14.2308ZM239.866 7.24745C239.586 7.25349 239.348 7.1746 239.152 7.01078C238.965 6.84678 238.868 6.62482 238.862 6.34489C238.856 6.06495 238.943 5.83902 239.123 5.66709C239.311 5.48699 239.546 5.39392 239.825 5.38788C240.105 5.38184 240.339 5.46481 240.527 5.6368C240.723 5.80062 240.823 6.0225 240.829 6.30244C240.835 6.58237 240.744 6.80839 240.556 6.98049C240.376 7.15242 240.146 7.24141 239.866 7.24745ZM247.177 14.2074C246.713 14.2174 246.279 14.1587 245.877 14.0314C245.482 13.9039 245.134 13.7113 244.832 13.4538C244.538 13.196 244.303 12.877 244.127 12.4967C243.959 12.1163 243.869 11.6821 243.859 11.1942C243.848 10.7063 243.927 10.2685 244.095 9.88084C244.27 9.49296 244.507 9.16377 244.806 8.89328C245.104 8.62278 245.455 8.41515 245.86 8.27038C246.265 8.11761 246.692 8.0364 247.139 8.02674C247.619 8.01638 248.041 8.0873 248.404 8.2395C248.776 8.39153 249.088 8.58084 249.341 8.80744L248.7 9.68547C248.464 9.50652 248.225 9.37164 247.983 9.28084C247.749 9.18987 247.5 9.14723 247.236 9.15292C246.644 9.16569 246.168 9.356 245.808 9.72385C245.447 10.0837 245.274 10.5636 245.287 11.1634C245.293 11.4594 245.347 11.7263 245.448 11.9641C245.549 12.202 245.686 12.4071 245.857 12.5794C246.037 12.7436 246.248 12.8711 246.49 12.9619C246.732 13.0447 246.996 13.083 247.284 13.0768C247.62 13.0695 247.923 12.999 248.192 12.8652C248.469 12.7311 248.722 12.5737 248.95 12.3927L249.545 13.2681C249.207 13.5714 248.832 13.8036 248.42 13.9645C248.015 14.1173 247.601 14.1982 247.177 14.2074ZM211.484 29.9809C210.988 29.9916 210.522 29.9136 210.087 29.747C209.659 29.5802 209.285 29.3282 208.966 28.991C208.647 28.6538 208.39 28.2352 208.195 27.7353C208.008 27.2352 207.908 26.6613 207.894 26.0134C207.88 25.3656 207.955 24.7878 208.12 24.2801C208.293 23.7723 208.532 23.339 208.836 22.9804C209.149 22.6216 209.519 22.3455 209.947 22.1522C210.383 21.9588 210.857 21.8565 211.369 21.8455C211.888 21.8343 212.331 21.9288 212.695 22.129C213.067 22.321 213.372 22.5385 213.609 22.7814L212.86 23.6618C212.672 23.4818 212.465 23.3342 212.238 23.2191C212.02 23.1038 211.739 23.0498 211.395 23.0572C211.083 23.064 210.796 23.1381 210.535 23.2798C210.282 23.4133 210.062 23.6061 209.876 23.8582C209.697 24.1021 209.559 24.4011 209.463 24.7553C209.367 25.1094 209.323 25.5065 209.333 25.9464C209.352 26.8422 209.547 27.5421 209.918 28.0462C210.297 28.5422 210.838 28.7826 211.542 28.7674C211.75 28.7629 211.949 28.7306 212.14 28.6705C212.331 28.6023 212.481 28.5111 212.59 28.3967L212.554 26.7051L211.198 26.7343L211.173 25.5946L213.789 25.5382L213.863 28.9934C213.613 29.2548 213.278 29.4821 212.858 29.6752C212.446 29.8681 211.988 29.97 211.484 29.9809ZM216.155 29.7361L216.028 23.8455L217.168 23.8209L217.317 25.15L217.353 25.1492C217.646 24.6628 218.002 24.291 218.421 24.0339C218.847 23.7686 219.316 23.6305 219.828 23.6195C220.068 23.6143 220.272 23.6299 220.441 23.6662C220.618 23.6944 220.795 23.7506 220.973 23.8348L220.71 25.0047C220.517 24.9449 220.344 24.9046 220.191 24.8839C220.047 24.855 219.863 24.843 219.639 24.8478C219.231 24.8566 218.841 24.9811 218.47 25.2211C218.099 25.4612 217.768 25.8724 217.477 26.4548L217.547 29.7061L216.155 29.7361ZM225.391 29.6809C225.008 29.6891 224.634 29.6292 224.271 29.501C223.908 29.3728 223.588 29.1796 223.311 28.9216C223.033 28.6635 222.806 28.3443 222.63 27.964C222.462 27.5836 222.372 27.1494 222.362 26.6615C222.351 26.1736 222.422 25.736 222.573 25.3486C222.733 24.9611 222.946 24.6324 223.212 24.3626C223.479 24.0928 223.79 23.8861 224.147 23.7423C224.504 23.5906 224.874 23.5106 225.258 23.5023C225.642 23.494 226.016 23.558 226.379 23.6942C226.741 23.8224 227.062 24.0155 227.339 24.2736C227.617 24.5317 227.84 24.8509 228.008 25.2314C228.184 25.6117 228.278 26.0458 228.288 26.5336C228.299 27.0215 228.224 27.4592 228.065 27.8468C227.913 28.2341 227.704 28.5627 227.438 28.8325C227.171 29.1023 226.86 29.3091 226.503 29.4528C226.146 29.5966 225.775 29.6726 225.391 29.6809ZM225.367 28.5531C225.847 28.5428 226.219 28.3587 226.483 28.0009C226.748 27.6351 226.873 27.1563 226.861 26.5645C226.848 25.9646 226.701 25.4916 226.422 25.1456C226.142 24.7915 225.762 24.6197 225.283 24.63C224.803 24.6404 224.431 24.8285 224.166 25.1942C223.902 25.552 223.776 26.0309 223.789 26.6307C223.802 27.2226 223.948 27.6955 224.228 28.0496C224.508 28.3956 224.887 28.5635 225.367 28.5531ZM230.171 29.4337L228.928 23.5672L230.283 23.5379L230.877 26.5858C230.924 26.8729 230.966 27.156 231.004 27.4353C231.05 27.7064 231.096 27.9854 231.142 28.2725L231.178 28.2717C231.212 27.9829 231.249 27.6981 231.291 27.4171C231.341 27.1359 231.395 26.8547 231.453 26.5734L231.939 24.0783L233.079 24.0537L233.661 26.5258C233.731 26.8123 233.797 27.095 233.859 27.3737C233.929 27.6442 233.987 27.9231 234.033 28.2101L234.081 28.2091C234.115 27.9203 234.145 27.6396 234.171 27.367C234.197 27.0863 234.227 26.8016 234.261 26.5128L234.698 23.4427L235.982 23.415L235.029 29.3289L233.35 29.3651L232.807 27.0243C232.709 26.5623 232.613 25.9842 232.518 25.2901L232.47 25.2912C232.436 25.596 232.403 25.8928 232.369 26.1815C232.343 26.4622 232.309 26.747 232.267 27.0359L231.838 29.3977L230.171 29.4337ZM240.871 29.3469C240.423 29.3566 240.041 29.3048 239.727 29.1915C239.42 29.0781 239.169 28.9155 238.972 28.7037C238.783 28.4837 238.642 28.2187 238.547 27.9087C238.46 27.5985 238.413 27.2554 238.405 26.8795L238.352 24.4561L236.781 24.49L236.759 23.4582L238.389 23.363L238.529 21.5116L239.669 21.487L239.709 23.3346L242.396 23.2766L242.419 24.3683L239.732 24.4263L239.784 26.8498C239.795 27.3376 239.903 27.6954 240.108 27.923C240.32 28.1425 240.679 28.2468 241.183 28.2359C241.431 28.2306 241.658 28.2057 241.865 28.1612C242.072 28.1087 242.271 28.0444 242.461 27.9683L242.747 28.9704C242.485 29.064 242.202 29.1461 241.9 29.2167C241.598 29.2952 241.254 29.3386 240.871 29.3469ZM244.354 29.1277L244.171 20.6577L245.563 20.6277L245.61 22.8112L245.553 24.0727L245.589 24.0719C245.839 23.7944 246.13 23.5521 246.462 23.3449C246.793 23.1377 247.187 23.0292 247.643 23.0194C248.323 23.0047 248.827 23.2019 249.156 23.6109C249.485 24.0119 249.657 24.5963 249.674 25.3641L249.753 29.0113L248.361 29.0413L248.286 25.5741C248.276 25.0942 248.184 24.7481 248.012 24.5358C247.847 24.3153 247.561 24.2094 247.153 24.2182C246.865 24.2244 246.61 24.2979 246.389 24.4387C246.168 24.5795 245.925 24.7928 245.659 25.0786L245.746 29.0977L244.354 29.1277Z" fill="#31CB8A"/>
<path d="M262.2 214.229C262.595 214.616 262.601 215.249 262.214 215.643L255.912 222.068C255.525 222.463 254.892 222.469 254.498 222.082C254.103 221.695 254.097 221.062 254.484 220.668L260.086 214.957L254.375 209.355C253.98 208.968 253.974 208.335 254.361 207.941C254.748 207.546 255.381 207.54 255.775 207.927L262.2 214.229ZM42.4983 38.0013C38.7449 102.31 42.0677 146.577 71.7497 174.654C86.5988 188.701 108.136 198.783 138.947 205.222C169.759 211.662 209.771 214.443 261.49 213.943L261.51 215.943C209.729 216.443 169.554 213.662 138.538 207.18C107.52 200.697 85.5887 190.498 70.3753 176.107C39.9323 147.31 36.7551 102.076 40.5017 37.8848L42.4983 38.0013Z" fill="#31CB8A"/>
<path d="M171.443 188.524L171.587 180.678L172.967 180.703L172.845 187.374L176.528 187.441L176.507 188.617L171.443 188.524ZM180.795 188.84C180.411 188.833 180.04 188.758 179.683 188.615C179.325 188.473 179.013 188.267 178.746 187.998C178.479 187.729 178.265 187.401 178.104 187.014C177.951 186.627 177.879 186.19 177.888 185.702C177.897 185.214 177.984 184.779 178.151 184.398C178.326 184.018 178.552 183.698 178.829 183.439C179.106 183.18 179.426 182.986 179.788 182.856C180.151 182.719 180.524 182.654 180.908 182.661C181.292 182.668 181.662 182.746 182.02 182.897C182.377 183.04 182.689 183.245 182.956 183.514C183.224 183.783 183.434 184.111 183.587 184.498C183.748 184.885 183.824 185.322 183.815 185.81C183.806 186.298 183.714 186.733 183.539 187.114C183.372 187.495 183.15 187.815 182.873 188.074C182.596 188.333 182.277 188.527 181.914 188.656C181.552 188.785 181.179 188.847 180.795 188.84ZM180.815 187.712C181.295 187.721 181.674 187.551 181.953 187.205C182.231 186.85 182.376 186.376 182.387 185.784C182.398 185.184 182.271 184.706 182.005 184.349C181.74 183.984 181.367 183.797 180.887 183.788C180.407 183.78 180.028 183.953 179.749 184.308C179.471 184.655 179.326 185.128 179.315 185.728C179.304 186.32 179.432 186.798 179.697 187.163C179.963 187.52 180.335 187.703 180.815 187.712ZM187.776 191.428C187.368 191.42 187 191.382 186.674 191.312C186.347 191.242 186.065 191.136 185.827 190.996C185.598 190.864 185.421 190.697 185.296 190.494C185.172 190.3 185.112 190.071 185.117 189.807C185.126 189.327 185.445 188.921 186.075 188.588L186.076 188.54C185.918 188.441 185.78 188.315 185.663 188.161C185.546 187.998 185.49 187.793 185.494 187.545C185.498 187.353 185.565 187.159 185.697 186.961C185.829 186.763 186.004 186.595 186.222 186.455L186.223 186.407C186.018 186.251 185.842 186.044 185.695 185.785C185.555 185.526 185.489 185.221 185.495 184.869C185.502 184.533 185.571 184.234 185.704 183.973C185.845 183.711 186.025 183.494 186.244 183.322C186.471 183.143 186.73 183.007 187.019 182.917C187.317 182.826 187.63 182.784 187.958 182.79C188.294 182.796 188.601 182.85 188.879 182.951L191.291 182.995L191.271 184.051L189.916 184.026C190.018 184.14 190.103 184.285 190.172 184.463C190.249 184.632 190.285 184.813 190.282 185.005C190.276 185.333 190.206 185.619 190.074 185.865C189.949 186.111 189.778 186.316 189.559 186.48C189.348 186.644 189.097 186.767 188.808 186.85C188.518 186.933 188.209 186.971 187.881 186.965C187.601 186.96 187.303 186.898 186.985 186.781C186.742 186.92 186.619 187.102 186.615 187.326C186.608 187.694 186.976 187.885 187.72 187.898L188.92 187.92C189.688 187.934 190.262 188.057 190.642 188.288C191.03 188.511 191.219 188.882 191.209 189.402C191.204 189.69 191.119 189.961 190.954 190.214C190.79 190.467 190.558 190.683 190.258 190.861C189.967 191.048 189.608 191.189 189.183 191.286C188.765 191.39 188.296 191.437 187.776 191.428ZM187.897 186.089C188.201 186.095 188.463 186 188.683 185.804C188.911 185.6 189.028 185.31 189.035 184.934C189.041 184.574 188.935 184.288 188.714 184.076C188.502 183.864 188.244 183.755 187.94 183.75C187.636 183.744 187.371 183.843 187.143 184.047C186.923 184.251 186.81 184.533 186.803 184.893C186.796 185.269 186.899 185.563 187.111 185.775C187.331 185.979 187.594 186.084 187.897 186.089ZM187.96 190.519C188.248 190.524 188.509 190.501 188.742 190.449C188.975 190.406 189.176 190.341 189.345 190.256C189.515 190.172 189.645 190.074 189.735 189.963C189.825 189.853 189.871 189.734 189.873 189.606C189.878 189.374 189.781 189.216 189.582 189.133C189.391 189.057 189.096 189.016 188.696 189.008L187.76 188.991C187.384 188.984 187.085 188.951 186.862 188.891C186.652 189.007 186.502 189.128 186.411 189.255C186.321 189.381 186.275 189.512 186.272 189.648C186.267 189.912 186.407 190.119 186.693 190.268C186.986 190.425 187.408 190.509 187.96 190.519ZM194.403 189.089C194.115 189.084 193.852 189.035 193.613 188.942C193.375 188.858 193.169 188.738 192.996 188.583C192.823 188.428 192.69 188.245 192.598 188.036C192.506 187.818 192.462 187.581 192.467 187.325C192.473 186.997 192.554 186.711 192.711 186.465C192.867 186.212 193.111 186.001 193.442 185.831C193.774 185.661 194.196 185.524 194.71 185.422C195.224 185.319 195.845 185.251 196.574 185.216C196.556 184.88 196.441 184.601 196.229 184.381C196.017 184.162 195.671 184.047 195.192 184.038C194.856 184.032 194.522 184.09 194.192 184.212C193.87 184.326 193.555 184.465 193.248 184.627L192.761 183.694C193.125 183.492 193.541 183.312 194.008 183.153C194.475 182.993 194.96 182.918 195.464 182.927C196.288 182.942 196.912 183.174 197.336 183.622C197.76 184.061 197.964 184.693 197.949 185.517L197.885 189.009L196.757 188.988L196.663 188.254L196.627 188.253C196.31 188.488 195.959 188.689 195.571 188.858C195.192 189.019 194.803 189.096 194.403 189.089ZM194.843 188.017C195.139 188.022 195.424 187.963 195.698 187.84C195.98 187.709 196.26 187.539 196.536 187.328L196.558 186.08C196.03 186.11 195.589 186.158 195.236 186.224C194.882 186.281 194.601 186.36 194.391 186.46C194.181 186.56 194.031 186.678 193.941 186.812C193.85 186.938 193.804 187.082 193.801 187.241C193.796 187.505 193.892 187.699 194.09 187.823C194.296 187.947 194.547 188.011 194.843 188.017ZM200.34 189.054L200.448 183.163L201.588 183.183L201.683 184.517L201.719 184.518C202.032 184.044 202.403 183.686 202.831 183.446C203.268 183.198 203.742 183.079 204.254 183.088C204.494 183.093 204.697 183.116 204.865 183.159C205.04 183.195 205.215 183.258 205.389 183.349L205.08 184.508C204.889 184.44 204.718 184.393 204.566 184.366C204.423 184.331 204.239 184.312 204.015 184.308C203.607 184.301 203.213 184.409 202.833 184.634C202.453 184.86 202.106 185.257 201.791 185.828L201.732 189.079L200.34 189.054ZM209.538 189.222L209.626 184.423L207.07 184.376L207.09 183.284L211.025 183.356L210.917 189.247L209.538 189.222ZM210.265 182.262C209.985 182.257 209.751 182.169 209.562 181.997C209.381 181.826 209.293 181.6 209.298 181.32C209.303 181.04 209.4 180.818 209.587 180.653C209.782 180.481 210.019 180.397 210.299 180.402C210.579 180.408 210.81 180.5 210.99 180.679C211.179 180.851 211.271 181.076 211.266 181.356C211.261 181.636 211.161 181.858 210.966 182.023C210.779 182.188 210.545 182.267 210.265 182.262ZM217.857 189.518C217.409 189.51 217.03 189.443 216.72 189.318C216.419 189.192 216.174 189.019 215.986 188.8C215.806 188.573 215.675 188.302 215.593 187.989C215.518 187.675 215.485 187.331 215.491 186.955L215.536 184.531L213.964 184.502L213.983 183.47L215.616 183.44L215.83 181.596L216.969 181.617L216.936 183.464L219.623 183.514L219.603 184.606L216.916 184.556L216.871 186.98C216.862 187.468 216.956 187.83 217.151 188.065C217.355 188.293 217.709 188.411 218.213 188.421C218.461 188.425 218.689 188.409 218.898 188.373C219.107 188.329 219.308 188.273 219.501 188.204L219.747 189.217C219.481 189.3 219.196 189.371 218.891 189.429C218.585 189.496 218.241 189.525 217.857 189.518ZM221.346 189.438L221.501 180.968L222.893 180.993L222.853 183.177L222.746 184.435L222.782 184.436C223.043 184.168 223.343 183.938 223.683 183.744C224.023 183.55 224.42 183.458 224.876 183.466C225.556 183.478 226.052 183.695 226.365 184.117C226.677 184.531 226.826 185.122 226.812 185.89L226.745 189.537L225.354 189.512L225.417 186.044C225.426 185.564 225.348 185.215 225.184 184.996C225.028 184.769 224.747 184.652 224.339 184.644C224.051 184.639 223.793 184.702 223.567 184.834C223.341 184.966 223.089 185.169 222.812 185.444L222.738 189.464L221.346 189.438ZM228.108 189.562L228.216 183.671L229.284 183.691L229.379 184.436L229.415 184.437C229.547 184.184 229.715 183.975 229.918 183.81C230.121 183.646 230.395 183.567 230.739 183.573C231.29 183.583 231.64 183.918 231.788 184.577C231.93 184.291 232.106 184.058 232.317 183.878C232.529 183.698 232.806 183.611 233.15 183.617C233.566 183.625 233.883 183.795 234.101 184.127C234.327 184.451 234.435 184.909 234.424 185.501L234.347 189.676L233.016 189.652L233.09 185.573C233.1 185.053 232.949 184.79 232.637 184.784C232.477 184.781 232.34 184.843 232.225 184.969C232.119 185.087 232.004 185.269 231.879 185.514L231.804 189.63L230.652 189.609L230.727 185.529C230.731 185.273 230.699 185.081 230.629 184.951C230.56 184.814 230.441 184.744 230.273 184.741C230.113 184.738 229.976 184.799 229.862 184.925C229.756 185.043 229.644 185.225 229.528 185.471L229.452 189.587L228.108 189.562ZM238.314 189.749L238.402 184.95L235.846 184.903L235.866 183.811L239.802 183.883L239.694 189.774L238.314 189.749ZM239.042 182.789C238.762 182.784 238.527 182.696 238.338 182.524C238.157 182.353 238.07 182.127 238.075 181.847C238.08 181.567 238.176 181.345 238.363 181.18C238.558 181.008 238.796 180.924 239.076 180.929C239.356 180.935 239.586 181.027 239.767 181.206C239.956 181.378 240.048 181.603 240.042 181.883C240.037 182.163 239.937 182.385 239.742 182.55C239.555 182.715 239.322 182.794 239.042 182.789ZM246.069 190.035C245.606 190.027 245.175 189.951 244.777 189.807C244.388 189.664 244.048 189.458 243.757 189.189C243.473 188.919 243.251 188.591 243.09 188.204C242.938 187.817 242.866 187.38 242.874 186.892C242.883 186.404 242.979 185.97 243.162 185.589C243.353 185.208 243.603 184.889 243.912 184.631C244.221 184.372 244.58 184.179 244.991 184.05C245.401 183.914 245.831 183.85 246.279 183.858C246.759 183.867 247.177 183.954 247.534 184.121C247.899 184.288 248.203 184.489 248.447 184.726L247.771 185.577C247.543 185.389 247.309 185.245 247.071 185.145C246.841 185.044 246.594 184.992 246.33 184.987C245.738 184.976 245.255 185.147 244.88 185.5C244.506 185.846 244.313 186.318 244.302 186.918C244.297 187.214 244.34 187.483 244.431 187.725C244.523 187.966 244.651 188.177 244.816 188.356C244.989 188.527 245.194 188.663 245.433 188.763C245.671 188.856 245.934 188.904 246.222 188.91C246.558 188.916 246.863 188.857 247.137 188.734C247.42 188.612 247.679 188.464 247.914 188.293L248.473 189.191C248.124 189.481 247.74 189.698 247.321 189.842C246.911 189.978 246.493 190.043 246.069 190.035ZM192.247 203.908L192.391 196.061L194.455 196.099C195.614 196.12 196.512 196.461 197.148 197.12C197.792 197.78 198.103 198.758 198.079 200.054C198.067 200.702 197.972 201.272 197.795 201.765C197.618 202.258 197.371 202.669 197.053 203C196.735 203.322 196.35 203.563 195.899 203.723C195.448 203.882 194.943 203.957 194.383 203.947L192.247 203.908ZM193.66 202.806L194.248 202.816C194.999 202.83 195.584 202.613 196 202.164C196.416 201.708 196.633 200.996 196.651 200.028C196.669 199.068 196.477 198.364 196.078 197.917C195.678 197.47 195.102 197.239 194.35 197.225L193.762 197.214L193.66 202.806ZM202.462 204.239C202.014 204.231 201.596 204.155 201.206 204.012C200.817 203.861 200.477 203.65 200.186 203.381C199.902 203.112 199.68 202.784 199.519 202.397C199.358 202.01 199.282 201.572 199.291 201.084C199.3 200.604 199.392 200.178 199.567 199.805C199.742 199.424 199.972 199.104 200.257 198.846C200.55 198.579 200.877 198.381 201.24 198.252C201.61 198.114 201.995 198.049 202.395 198.057C202.835 198.065 203.222 198.144 203.555 198.294C203.889 198.436 204.169 198.633 204.397 198.885C204.624 199.13 204.795 199.425 204.908 199.771C205.022 200.117 205.075 200.494 205.068 200.902C205.065 201.038 205.055 201.17 205.036 201.298C205.026 201.417 205.012 201.517 204.995 201.597L200.664 201.518C200.734 202.071 200.946 202.483 201.301 202.753C201.656 203.024 202.11 203.164 202.662 203.174C202.974 203.18 203.262 203.141 203.528 203.058C203.794 202.975 204.06 202.86 204.326 202.713L204.779 203.585C204.463 203.787 204.104 203.949 203.702 204.07C203.307 204.19 202.894 204.247 202.462 204.239ZM202.412 199.125C202.004 199.118 201.642 199.231 201.325 199.465C201.017 199.7 200.815 200.056 200.718 200.534L203.849 200.592C203.81 200.111 203.665 199.748 203.413 199.504C203.17 199.259 202.836 199.133 202.412 199.125ZM209.824 204.374C209.36 204.365 208.93 204.289 208.532 204.146C208.143 204.003 207.803 203.797 207.511 203.527C207.228 203.258 207.006 202.93 206.845 202.543C206.692 202.156 206.62 201.719 206.629 201.231C206.638 200.743 206.734 200.308 206.917 199.928C207.108 199.547 207.358 199.228 207.667 198.969C207.976 198.711 208.335 198.518 208.746 198.389C209.156 198.252 209.585 198.188 210.033 198.197C210.513 198.205 210.932 198.293 211.289 198.46C211.654 198.626 211.958 198.828 212.202 199.064L211.526 199.916C211.298 199.728 211.064 199.584 210.826 199.483C210.596 199.383 210.349 199.331 210.085 199.326C209.493 199.315 209.01 199.486 208.635 199.839C208.261 200.184 208.068 200.657 208.057 201.257C208.052 201.553 208.095 201.822 208.186 202.063C208.278 202.305 208.406 202.515 208.571 202.695C208.744 202.866 208.949 203.002 209.187 203.102C209.426 203.194 209.689 203.243 209.977 203.248C210.313 203.255 210.618 203.196 210.892 203.073C211.175 202.95 211.433 202.803 211.668 202.631L212.228 203.53C211.879 203.819 211.495 204.036 211.076 204.181C210.665 204.317 210.248 204.382 209.824 204.374ZM214.453 204.315L214.561 198.423L215.701 198.444L215.797 199.778L215.833 199.779C216.145 199.305 216.516 198.947 216.945 198.707C217.381 198.459 217.855 198.34 218.367 198.349C218.607 198.354 218.811 198.377 218.978 198.42C219.154 198.456 219.328 198.519 219.503 198.61L219.193 199.769C219.003 199.701 218.832 199.654 218.68 199.627C218.537 199.592 218.353 199.573 218.129 199.569C217.721 199.562 217.327 199.67 216.947 199.895C216.567 200.121 216.219 200.518 215.905 201.089L215.845 204.34L214.453 204.315ZM224.045 204.634C223.597 204.626 223.178 204.55 222.788 204.407C222.399 204.256 222.059 204.046 221.768 203.776C221.485 203.507 221.263 203.179 221.102 202.792C220.941 202.405 220.865 201.968 220.874 201.48C220.883 201 220.974 200.573 221.149 200.2C221.324 199.82 221.554 199.5 221.839 199.241C222.132 198.974 222.46 198.776 222.822 198.647C223.193 198.51 223.578 198.445 223.978 198.452C224.418 198.46 224.804 198.539 225.138 198.689C225.471 198.831 225.751 199.028 225.979 199.281C226.206 199.525 226.377 199.82 226.491 200.166C226.604 200.512 226.658 200.889 226.65 201.297C226.648 201.433 226.637 201.565 226.619 201.693C226.609 201.813 226.595 201.912 226.577 201.992L222.246 201.913C222.316 202.466 222.528 202.878 222.884 203.149C223.239 203.419 223.692 203.56 224.244 203.57C224.556 203.575 224.845 203.537 225.11 203.453C225.376 203.37 225.642 203.255 225.909 203.108L226.361 203.98C226.045 204.183 225.686 204.344 225.284 204.465C224.89 204.586 224.476 204.642 224.045 204.634ZM223.994 199.52C223.586 199.513 223.224 199.626 222.908 199.861C222.599 200.095 222.397 200.451 222.3 200.93L225.432 200.987C225.392 200.506 225.247 200.143 224.995 199.899C224.752 199.654 224.418 199.528 223.994 199.52ZM230.099 204.745C229.811 204.74 229.548 204.691 229.309 204.599C229.071 204.514 228.865 204.394 228.692 204.239C228.519 204.084 228.386 203.902 228.294 203.692C228.202 203.474 228.158 203.237 228.163 202.981C228.169 202.653 228.25 202.367 228.407 202.122C228.563 201.868 228.807 201.657 229.138 201.487C229.469 201.317 229.892 201.181 230.406 201.078C230.92 200.975 231.541 200.907 232.27 200.872C232.252 200.536 232.137 200.258 231.925 200.038C231.713 199.818 231.367 199.703 230.887 199.695C230.551 199.688 230.218 199.746 229.888 199.868C229.566 199.983 229.251 200.121 228.944 200.283L228.457 199.35C228.821 199.149 229.236 198.968 229.703 198.809C230.17 198.649 230.656 198.574 231.16 198.583C231.984 198.599 232.608 198.83 233.031 199.278C233.455 199.718 233.66 200.35 233.645 201.173L233.581 204.665L232.453 204.644L232.358 203.91L232.322 203.91C232.006 204.144 231.654 204.345 231.267 204.514C230.888 204.676 230.499 204.752 230.099 204.745ZM230.539 203.673C230.834 203.678 231.12 203.62 231.394 203.497C231.676 203.366 231.956 203.195 232.231 202.984L232.254 201.736C231.726 201.766 231.285 201.814 230.931 201.88C230.578 201.937 230.297 202.016 230.087 202.116C229.877 202.217 229.727 202.334 229.636 202.468C229.546 202.595 229.499 202.738 229.497 202.898C229.492 203.162 229.588 203.355 229.786 203.479C229.992 203.603 230.243 203.668 230.539 203.673ZM238.109 204.892C237.557 204.882 237.031 204.784 236.53 204.599C236.029 204.406 235.597 204.182 235.234 203.927L235.85 203.062C236.206 203.301 236.582 203.492 236.98 203.635C237.385 203.77 237.828 203.842 238.308 203.851C238.716 203.859 239.017 203.796 239.211 203.664C239.414 203.531 239.517 203.365 239.521 203.165C239.522 203.069 239.504 202.985 239.465 202.912C239.427 202.832 239.348 202.754 239.229 202.68C239.111 202.606 238.944 202.535 238.729 202.467C238.523 202.399 238.248 202.326 237.905 202.248C237.116 202.073 236.54 201.839 236.178 201.544C235.823 201.249 235.65 200.878 235.658 200.43C235.668 199.91 235.899 199.49 236.353 199.171C236.807 198.851 237.45 198.699 238.282 198.714C238.77 198.723 239.224 198.811 239.645 198.979C240.066 199.147 240.427 199.333 240.727 199.539L240.076 200.379C239.791 200.19 239.486 200.04 239.16 199.93C238.834 199.82 238.495 199.762 238.143 199.756C237.751 199.748 237.47 199.807 237.299 199.932C237.129 200.049 237.043 200.199 237.039 200.383C237.035 200.591 237.152 200.75 237.391 200.858C237.629 200.966 238.018 201.085 238.56 201.215C239.03 201.328 239.416 201.447 239.718 201.573C240.02 201.698 240.257 201.839 240.43 201.994C240.612 202.141 240.737 202.307 240.805 202.493C240.874 202.678 240.906 202.887 240.902 203.119C240.897 203.375 240.833 203.613 240.709 203.835C240.585 204.049 240.405 204.238 240.17 204.401C239.935 204.557 239.645 204.68 239.299 204.77C238.954 204.859 238.557 204.9 238.109 204.892ZM245.627 205.029C245.179 205.021 244.76 204.946 244.371 204.802C243.981 204.651 243.641 204.441 243.35 204.172C243.067 203.902 242.845 203.574 242.684 203.187C242.523 202.8 242.447 202.363 242.456 201.875C242.465 201.395 242.557 200.969 242.732 200.596C242.907 200.215 243.136 199.895 243.421 199.636C243.714 199.369 244.042 199.171 244.404 199.042C244.775 198.905 245.16 198.84 245.56 198.847C246 198.855 246.387 198.934 246.72 199.084C247.053 199.227 247.334 199.424 247.561 199.676C247.789 199.92 247.959 200.215 248.073 200.561C248.187 200.908 248.24 201.285 248.232 201.693C248.23 201.829 248.219 201.96 248.201 202.088C248.191 202.208 248.177 202.308 248.16 202.387L243.828 202.308C243.898 202.861 244.111 203.273 244.466 203.544C244.821 203.814 245.274 203.955 245.826 203.965C246.138 203.971 246.427 203.932 246.693 203.849C246.958 203.766 247.224 203.65 247.491 203.503L247.943 204.376C247.627 204.578 247.268 204.739 246.866 204.86C246.472 204.981 246.059 205.037 245.627 205.029ZM245.576 199.916C245.169 199.908 244.806 200.022 244.49 200.256C244.182 200.49 243.979 200.847 243.882 201.325L247.014 201.382C246.975 200.901 246.829 200.539 246.578 200.294C246.334 200.05 246 199.923 245.576 199.916Z" fill="#31CB8A"/>
<path opacity="0.25" d="M452.007 111.799L447.492 105.379L448.621 104.586L452.459 110.043L455.473 107.924L456.149 108.885L452.007 111.799ZM459.63 106.437L456.868 102.511L454.778 103.982L454.149 103.089L457.369 100.824L460.759 105.644L459.63 106.437ZM456.11 100.39C455.881 100.551 455.639 100.618 455.386 100.591C455.138 100.559 454.934 100.429 454.773 100.2C454.612 99.9708 454.558 99.7347 454.612 99.4914C454.668 99.237 454.811 99.0292 455.04 98.8681C455.269 98.7071 455.509 98.6456 455.761 98.6837C456.014 98.7106 456.222 98.8386 456.383 99.0677C456.544 99.2967 456.594 99.5351 456.534 99.783C456.48 100.026 456.339 100.228 456.11 100.39ZM463.405 103.782L460.015 98.963L460.948 98.3071L461.547 98.9714L461.586 98.9437C461.654 98.5536 461.768 98.1801 461.928 97.8233C462.089 97.4552 462.357 97.14 462.73 96.8777C463.286 96.4865 463.815 96.369 464.316 96.5252C464.812 96.6748 465.281 97.0637 465.723 97.6919L467.822 100.676L466.683 101.477L464.688 98.6399C464.412 98.2473 464.143 98.011 463.881 97.931C463.622 97.8398 463.325 97.9116 462.991 98.1463C462.756 98.312 462.585 98.5149 462.48 98.755C462.375 98.9951 462.292 99.3079 462.231 99.6934L464.543 102.982L463.405 103.782ZM471.807 98.0487C471.441 98.3064 471.058 98.4924 470.659 98.6067C470.256 98.7144 469.857 98.7455 469.463 98.6998C469.076 98.6496 468.703 98.5157 468.344 98.2983C467.986 98.0808 467.667 97.7725 467.386 97.3734C467.11 96.9807 466.932 96.5823 466.853 96.1781C466.77 95.7674 466.767 95.3735 466.844 94.9965C466.923 94.6083 467.071 94.2551 467.287 93.9367C467.505 93.6072 467.778 93.3274 468.105 93.0973C468.465 92.8442 468.824 92.6799 469.181 92.6044C469.534 92.5223 469.877 92.516 470.209 92.5854C470.537 92.6482 470.849 92.7858 471.145 92.9981C471.441 93.2105 471.707 93.4835 471.941 93.8172C472.02 93.9285 472.089 94.041 472.15 94.1549C472.212 94.2577 472.26 94.3464 472.293 94.421L468.749 96.9132C469.132 97.3187 469.547 97.5258 469.993 97.5347C470.44 97.5435 470.889 97.3891 471.34 97.0716C471.595 96.8921 471.806 96.6904 471.971 96.4666C472.136 96.2427 472.283 95.9927 472.412 95.7165L473.291 96.154C473.156 96.5036 472.961 96.8458 472.708 97.1806C472.461 97.5108 472.161 97.8002 471.807 98.0487ZM468.749 93.9502C468.415 94.1849 468.19 94.4902 468.072 94.866C467.962 95.2372 468.009 95.6444 468.213 96.0876L470.775 94.2858C470.459 93.9208 470.128 93.7138 469.78 93.6648C469.439 93.6111 469.095 93.7063 468.749 93.9502ZM476.76 94.5652C476.525 94.7309 476.283 94.8467 476.037 94.9128C475.794 94.9855 475.557 95.0102 475.326 94.9872C475.095 94.9641 474.88 94.8951 474.682 94.7802C474.479 94.6587 474.304 94.4933 474.156 94.2839C473.968 94.0156 473.864 93.7363 473.846 93.446C473.823 93.1492 473.895 92.8345 474.062 92.5018C474.229 92.1691 474.49 91.8097 474.844 91.4236C475.199 91.0374 475.66 90.6153 476.227 90.1572C476.015 89.8962 475.758 89.7395 475.457 89.6871C475.156 89.6347 474.809 89.7465 474.416 90.0227C474.141 90.216 473.907 90.4593 473.712 90.7527C473.519 91.0349 473.347 91.3322 473.195 91.6445L472.251 91.1787C472.426 90.8014 472.655 90.4106 472.938 90.0063C473.221 89.6019 473.568 89.2548 473.98 88.9649C474.654 88.4908 475.295 88.3095 475.901 88.4209C476.503 88.5257 477.041 88.9151 477.515 89.5891L479.524 92.4454L478.601 93.0943L478.092 92.5577L478.062 92.5784C477.945 92.9542 477.78 93.3245 477.567 93.6894C477.357 94.0431 477.087 94.3351 476.76 94.5652ZM476.483 93.4402C476.725 93.2699 476.92 93.0542 477.069 92.793C477.22 92.5207 477.344 92.2179 477.442 91.8848L476.725 90.864C476.316 91.2004 475.988 91.4994 475.741 91.7607C475.49 92.0156 475.31 92.2454 475.199 92.4501C475.089 92.6548 475.037 92.8381 475.043 93C475.045 93.1553 475.092 93.2984 475.184 93.4293C475.336 93.6452 475.528 93.7448 475.761 93.7279C476 93.7063 476.24 93.6104 476.483 93.4402ZM481.532 91.0329L478.143 86.2135L479.075 85.5577L479.94 86.5782L479.969 86.5575C479.942 85.9899 480.03 85.4828 480.234 85.036C480.44 84.5781 480.753 84.2019 481.171 83.9073C481.368 83.7693 481.546 83.6683 481.706 83.6043C481.869 83.5293 482.047 83.4771 482.242 83.4478L482.676 84.5656C482.482 84.6237 482.316 84.6867 482.178 84.7545C482.042 84.8111 481.882 84.9039 481.699 85.0328C481.365 85.2675 481.111 85.5879 480.937 85.994C480.763 86.4 480.717 86.9261 480.8 87.5721L482.671 90.2321L481.532 91.0329ZM495.447 81.4222C495.041 81.7076 494.611 81.9025 494.157 82.0071C493.709 82.107 493.258 82.1061 492.805 82.0042C492.352 81.9023 491.905 81.6982 491.465 81.3918C491.031 81.0808 490.627 80.6603 490.255 80.1302C489.882 79.6002 489.622 79.0784 489.476 78.5649C489.337 78.0468 489.294 77.5541 489.346 77.0867C489.406 76.6147 489.559 76.1791 489.806 75.7801C490.061 75.3765 490.397 75.0274 490.816 74.7328C491.241 74.4337 491.661 74.2656 492.075 74.2287C492.491 74.1805 492.865 74.1912 493.198 74.2606L493.067 75.4091C492.81 75.3645 492.556 75.3575 492.304 75.3882C492.058 75.4143 491.794 75.5263 491.513 75.7242C491.258 75.9037 491.061 76.125 490.924 76.3881C490.788 76.6401 490.713 76.9227 490.698 77.236C490.686 77.5382 490.738 77.8631 490.856 78.2109C490.973 78.5586 491.159 78.9125 491.412 79.2724C491.927 80.0052 492.479 80.4775 493.068 80.6892C493.659 80.8898 494.243 80.7875 494.819 80.3825C494.989 80.2629 495.136 80.1249 495.261 79.9687C495.381 79.8059 495.455 79.6464 495.482 79.4904L494.509 78.1064L493.4 78.8865L492.744 77.954L494.884 76.4491L496.872 79.2759C496.81 79.6326 496.658 80.0081 496.417 80.4026C496.183 80.7924 495.859 81.1323 495.447 81.4222ZM499.189 78.6148L495.799 73.7954L496.731 73.1396L497.596 74.1601L497.625 74.1394C497.598 73.5719 497.686 73.0647 497.89 72.6179C498.096 72.16 498.409 71.7838 498.828 71.4892C499.024 71.3512 499.202 71.2502 499.363 71.1862C499.525 71.1112 499.704 71.059 499.898 71.0297L500.332 72.1475C500.138 72.2056 499.972 72.2686 499.834 72.3364C499.698 72.393 499.538 72.4858 499.355 72.6147C499.021 72.8494 498.767 73.1698 498.593 73.5759C498.419 73.9819 498.374 74.508 498.456 75.154L500.327 77.814L499.189 78.6148ZM506.825 73.4196C506.511 73.6405 506.168 73.7989 505.795 73.8948C505.422 73.9906 505.049 74.0088 504.675 73.9494C504.3 73.8899 503.934 73.7515 503.576 73.534C503.224 73.312 502.908 73.0014 502.627 72.6022C502.346 72.203 502.161 71.8004 502.071 71.3943C501.987 70.9835 501.981 70.5919 502.051 70.2195C502.122 69.8471 502.265 69.5017 502.482 69.1834C502.693 68.8585 502.956 68.5856 503.27 68.3647C503.584 68.1438 503.93 67.9887 504.307 67.8993C504.68 67.8035 505.053 67.7853 505.428 67.8447C505.802 67.9042 506.165 68.045 506.517 68.267C506.875 68.4844 507.195 68.7927 507.476 69.1919C507.756 69.5911 507.938 69.996 508.022 70.4068C508.112 70.8129 508.122 71.2022 508.051 71.5746C507.981 71.947 507.837 72.2924 507.621 72.6107C507.405 72.9291 507.139 73.1987 506.825 73.4196ZM506.176 72.497C506.569 72.2208 506.775 71.8606 506.795 71.4162C506.811 70.9652 506.648 70.4976 506.308 70.0134C505.962 69.5226 505.577 69.2115 505.152 69.0801C504.723 68.9421 504.312 69.0112 503.919 69.2873C503.526 69.5635 503.322 69.927 503.307 70.3779C503.287 70.8223 503.45 71.2899 503.795 71.7807C504.135 72.2649 504.52 72.576 504.95 72.714C505.375 72.8455 505.784 72.7731 506.176 72.497ZM510.655 70.5501L506.353 66.3727L507.462 65.5926L509.654 67.7918C509.852 68.0044 510.045 68.216 510.233 68.4266C510.422 68.626 510.616 68.8321 510.814 69.0446L510.843 69.0239C510.71 68.7653 510.583 68.5077 510.461 68.2511C510.346 67.9898 510.234 67.7263 510.125 67.4604L509.138 65.118L510.07 64.4622L511.931 66.1902C512.149 66.389 512.362 66.5867 512.569 66.7835C512.777 66.9692 512.981 67.1683 513.179 67.3809L513.219 67.3533C513.086 67.0947 512.954 66.845 512.824 66.6041C512.689 66.3566 512.555 66.1036 512.422 65.845L511.074 63.0522L512.124 62.3135L514.63 67.7542L513.256 68.7207L511.501 67.0799C511.162 66.751 510.759 66.3249 510.294 65.8016L510.254 65.8292C510.396 66.1009 510.534 66.366 510.667 66.6246C510.802 66.872 510.933 67.1273 511.059 67.3905L512.019 69.5905L510.655 70.5501ZM519.489 64.5127C519.123 64.7704 518.778 64.9399 518.453 65.0213C518.136 65.098 517.836 65.1033 517.555 65.037C517.276 64.9597 517.01 64.8187 516.759 64.6141C516.514 64.4049 516.283 64.1466 516.067 63.839L514.672 61.8563L513.386 62.7607L512.793 61.9165L514.093 60.9286L513.177 59.3135L514.11 58.6576L515.173 60.1692L517.372 58.6228L518 59.5161L515.801 61.0624L517.196 63.0451C517.476 63.4443 517.765 63.6812 518.062 63.7559C518.361 63.8195 518.717 63.7063 519.129 63.4164C519.332 63.2737 519.507 63.1262 519.654 62.9738C519.797 62.8149 519.926 62.6507 520.041 62.4814L520.837 63.154C520.672 63.3779 520.483 63.6034 520.271 63.8306C520.064 64.0644 519.804 64.2918 519.489 64.5127ZM522.259 62.3887L517.385 55.459L518.524 54.6582L519.78 56.4446L520.436 57.5236L520.466 57.5028C520.519 57.1331 520.625 56.7698 520.785 56.4129C520.945 56.056 521.211 55.7464 521.584 55.4841C522.14 55.0929 522.669 54.9753 523.17 55.1315C523.666 55.2812 524.136 55.6701 524.577 56.2983L526.676 59.2821L525.537 60.0829L523.542 57.2463C523.266 56.8537 522.997 56.6173 522.736 56.5373C522.476 56.4461 522.179 56.5179 521.845 56.7526C521.61 56.9183 521.44 57.1212 521.335 57.3613C521.23 57.6014 521.146 57.9142 521.085 58.2997L523.398 61.5879L522.259 62.3887Z" fill="#BB6BD9"/>
<path d="M434.567 155.529L439.12 149.137L440.244 149.937L436.373 155.372L439.374 157.509L438.692 158.467L434.567 155.529ZM442.158 160.935L444.942 157.026L442.86 155.543L443.494 154.653L446.7 156.937L443.282 161.736L442.158 160.935ZM446.691 155.605C446.463 155.442 446.32 155.237 446.261 154.989C446.208 154.745 446.263 154.509 446.426 154.281C446.588 154.053 446.793 153.924 447.04 153.894C447.299 153.862 447.542 153.927 447.77 154.089C447.998 154.252 448.136 154.458 448.184 154.708C448.243 154.957 448.191 155.195 448.029 155.423C447.866 155.651 447.658 155.778 447.404 155.803C447.157 155.833 446.919 155.767 446.691 155.605ZM445.917 163.613L449.335 158.814L450.264 159.475L449.837 160.261L449.876 160.289C450.266 160.223 450.656 160.206 451.046 160.238C451.447 160.268 451.833 160.416 452.205 160.68C452.758 161.075 453.045 161.534 453.064 162.059C453.088 162.577 452.878 163.148 452.432 163.774L450.316 166.745L449.182 165.938L451.194 163.113C451.472 162.722 451.606 162.39 451.594 162.116C451.594 161.841 451.427 161.585 451.095 161.349C450.86 161.181 450.612 161.088 450.351 161.069C450.09 161.05 449.767 161.076 449.383 161.146L447.051 164.42L445.917 163.613ZM454.119 169.631C453.754 169.371 453.451 169.072 453.211 168.733C452.975 168.389 452.813 168.023 452.725 167.636C452.644 167.254 452.646 166.858 452.732 166.448C452.818 166.038 453.002 165.634 453.285 165.236C453.564 164.845 453.881 164.545 454.235 164.336C454.595 164.121 454.965 163.987 455.347 163.935C455.739 163.88 456.121 163.902 456.493 164C456.877 164.096 457.231 164.26 457.557 164.492C457.916 164.747 458.19 165.031 458.38 165.343C458.575 165.649 458.695 165.97 458.74 166.307C458.79 166.637 458.764 166.977 458.662 167.327C458.56 167.676 458.391 168.018 458.154 168.35C458.075 168.461 457.992 168.564 457.905 168.659C457.829 168.752 457.761 168.826 457.701 168.882L454.173 166.369C453.918 166.865 453.86 167.325 454 167.749C454.14 168.173 454.435 168.545 454.885 168.865C455.139 169.046 455.399 169.177 455.665 169.259C455.931 169.34 456.216 169.396 456.519 169.425L456.399 170.4C456.024 170.389 455.637 170.319 455.237 170.191C454.843 170.068 454.471 169.881 454.119 169.631ZM456.967 165.383C456.635 165.146 456.272 165.035 455.878 165.05C455.492 165.069 455.123 165.248 454.773 165.588L457.324 167.405C457.563 166.986 457.648 166.605 457.579 166.261C457.516 165.922 457.312 165.629 456.967 165.383ZM459.051 173.143C458.816 172.976 458.627 172.787 458.482 172.576C458.333 172.372 458.231 172.157 458.176 171.931C458.121 171.705 458.115 171.479 458.157 171.254C458.204 171.023 458.302 170.803 458.45 170.594C458.641 170.327 458.87 170.136 459.137 170.023C459.41 169.902 459.73 169.865 460.1 169.912C460.469 169.959 460.895 170.086 461.377 170.291C461.859 170.497 462.41 170.792 463.031 171.175C463.206 170.887 463.269 170.593 463.218 170.292C463.167 169.99 462.947 169.701 462.556 169.422C462.282 169.227 461.974 169.087 461.633 169.001C461.303 168.913 460.965 168.849 460.62 168.81L460.745 167.765C461.159 167.804 461.604 167.89 462.079 168.022C462.555 168.155 462.998 168.367 463.408 168.659C464.079 169.137 464.463 169.681 464.56 170.29C464.661 170.892 464.473 171.529 463.995 172.2L461.969 175.045L461.05 174.39L461.387 173.731L461.358 173.711C460.964 173.725 460.56 173.693 460.145 173.613C459.742 173.532 459.377 173.375 459.051 173.143ZM460.02 172.507C460.261 172.679 460.529 172.792 460.825 172.845C461.132 172.897 461.459 172.913 461.806 172.895L462.53 171.879C462.076 171.605 461.686 171.395 461.357 171.25C461.033 171.098 460.756 171.004 460.527 170.968C460.297 170.932 460.107 170.944 459.956 171.003C459.81 171.057 459.691 171.148 459.598 171.279C459.445 171.494 459.415 171.708 459.508 171.922C459.608 172.14 459.779 172.335 460.02 172.507ZM463.969 176.469L467.387 171.67L468.316 172.331L467.641 173.486L467.67 173.507C468.196 173.292 468.704 173.207 469.193 173.251C469.693 173.293 470.152 173.462 470.569 173.759C470.765 173.898 470.919 174.033 471.033 174.163C471.158 174.291 471.266 174.442 471.359 174.616L470.449 175.397C470.329 175.234 470.215 175.098 470.105 174.99C470.006 174.881 469.866 174.761 469.683 174.631C469.351 174.394 468.964 174.261 468.523 174.232C468.083 174.203 467.571 174.335 466.989 174.628L465.103 177.277L463.969 176.469ZM475.183 184.455L479.735 178.063L481.417 179.26C482.361 179.933 482.91 180.721 483.062 181.625C483.22 182.533 482.923 183.515 482.172 184.571C481.796 185.099 481.395 185.516 480.971 185.822C480.546 186.129 480.11 186.329 479.66 186.421C479.216 186.508 478.763 186.489 478.3 186.366C477.838 186.243 477.379 186.019 476.923 185.694L475.183 184.455ZM476.971 184.344L477.45 184.685C478.062 185.121 478.667 185.272 479.264 185.137C479.865 184.996 480.447 184.531 481.008 183.743C481.565 182.961 481.805 182.272 481.728 181.677C481.651 181.082 481.306 180.566 480.694 180.13L480.215 179.789L476.971 184.344ZM483.423 190.501C483.058 190.241 482.756 189.942 482.515 189.604C482.279 189.259 482.118 188.893 482.03 188.506C481.948 188.124 481.95 187.728 482.036 187.318C482.122 186.908 482.307 186.504 482.59 186.106C482.868 185.715 483.185 185.415 483.54 185.207C483.9 184.991 484.27 184.857 484.651 184.805C485.044 184.75 485.426 184.772 485.798 184.87C486.181 184.966 486.536 185.13 486.862 185.362C487.22 185.618 487.494 185.901 487.684 186.214C487.879 186.519 487.999 186.84 488.044 187.177C488.094 187.507 488.068 187.847 487.966 188.197C487.864 188.547 487.695 188.888 487.458 189.22C487.38 189.331 487.296 189.434 487.209 189.529C487.133 189.622 487.065 189.696 487.006 189.752L483.477 187.239C483.222 187.735 483.165 188.195 483.305 188.619C483.445 189.043 483.74 189.415 484.189 189.735C484.443 189.916 484.704 190.047 484.97 190.129C485.236 190.21 485.52 190.266 485.824 190.295L485.704 191.27C485.329 191.259 484.941 191.189 484.541 191.061C484.148 190.938 483.775 190.751 483.423 190.501ZM486.271 186.253C485.939 186.016 485.576 185.905 485.183 185.92C484.796 185.939 484.427 186.119 484.077 186.458L486.629 188.275C486.868 187.857 486.953 187.475 486.884 187.131C486.821 186.792 486.617 186.499 486.271 186.253ZM489.421 194.772C489.043 194.503 488.731 194.197 488.484 193.854C488.243 193.516 488.079 193.153 487.991 192.767C487.91 192.385 487.912 191.988 487.998 191.578C488.09 191.173 488.278 190.771 488.561 190.374C488.844 189.976 489.169 189.672 489.535 189.461C489.908 189.255 490.294 189.133 490.695 189.094C491.096 189.056 491.502 189.099 491.913 189.225C492.329 189.344 492.719 189.534 493.084 189.794C493.475 190.072 493.771 190.381 493.971 190.72C494.178 191.064 494.315 191.402 494.383 191.735L493.344 192.056C493.262 191.772 493.151 191.521 493.011 191.303C492.878 191.091 492.703 190.908 492.488 190.755C492.006 190.411 491.511 190.279 491.002 190.359C490.498 190.432 490.072 190.713 489.724 191.202C489.553 191.443 489.436 191.689 489.375 191.94C489.314 192.192 489.301 192.438 489.336 192.678C489.382 192.917 489.474 193.146 489.614 193.363C489.759 193.574 489.948 193.763 490.183 193.93C490.456 194.125 490.741 194.249 491.037 194.303C491.339 194.361 491.636 194.385 491.927 194.377L491.881 195.434C491.429 195.476 490.99 195.438 490.563 195.32C490.147 195.201 489.766 195.018 489.421 194.772ZM493.274 197.339L496.692 192.54L497.62 193.201L496.945 194.356L496.975 194.377C497.501 194.162 498.008 194.077 498.497 194.121C498.998 194.163 499.457 194.332 499.874 194.629C500.069 194.768 500.224 194.903 500.337 195.033C500.462 195.161 500.571 195.312 500.663 195.486L499.753 196.267C499.634 196.104 499.519 195.968 499.409 195.86C499.311 195.751 499.17 195.631 498.988 195.501C498.655 195.264 498.269 195.131 497.828 195.102C497.387 195.073 496.876 195.205 496.294 195.498L494.407 198.147L493.274 197.339ZM501.006 203.023C500.641 202.763 500.338 202.464 500.098 202.126C499.862 201.781 499.7 201.415 499.612 201.028C499.531 200.646 499.533 200.25 499.619 199.84C499.705 199.43 499.889 199.026 500.173 198.628C500.451 198.237 500.768 197.937 501.123 197.729C501.482 197.513 501.853 197.379 502.234 197.327C502.626 197.272 503.008 197.294 503.381 197.392C503.764 197.488 504.118 197.652 504.444 197.884C504.803 198.14 505.077 198.423 505.267 198.736C505.462 199.041 505.582 199.362 505.627 199.699C505.677 200.029 505.651 200.369 505.549 200.719C505.447 201.069 505.278 201.41 505.041 201.742C504.962 201.853 504.879 201.956 504.792 202.051C504.716 202.144 504.648 202.218 504.588 202.274L501.06 199.761C500.805 200.257 500.747 200.717 500.887 201.141C501.028 201.565 501.322 201.937 501.772 202.257C502.026 202.438 502.286 202.569 502.552 202.651C502.818 202.732 503.103 202.788 503.406 202.817L503.286 203.792C502.912 203.781 502.524 203.711 502.124 203.583C501.73 203.46 501.358 203.273 501.006 203.023ZM503.854 198.775C503.522 198.539 503.159 198.427 502.766 198.442C502.379 198.461 502.01 198.641 501.66 198.981L504.211 200.797C504.451 200.379 504.536 199.997 504.466 199.653C504.403 199.314 504.199 199.021 503.854 198.775ZM505.938 206.535C505.704 206.368 505.514 206.179 505.37 205.968C505.221 205.764 505.118 205.549 505.063 205.323C505.008 205.097 505.002 204.872 505.044 204.646C505.091 204.415 505.189 204.195 505.338 203.986C505.528 203.719 505.757 203.529 506.024 203.415C506.297 203.294 506.618 203.258 506.987 203.305C507.356 203.351 507.782 203.478 508.264 203.684C508.746 203.889 509.297 204.184 509.918 204.567C510.093 204.28 510.156 203.985 510.105 203.684C510.055 203.383 509.834 203.093 509.443 202.814C509.169 202.619 508.861 202.479 508.52 202.393C508.19 202.305 507.852 202.241 507.507 202.202L507.633 201.157C508.046 201.196 508.491 201.282 508.966 201.414C509.442 201.547 509.885 201.759 510.295 202.051C510.967 202.529 511.35 203.073 511.447 203.682C511.548 204.284 511.36 204.921 510.882 205.592L508.856 208.437L507.938 207.783L508.274 207.124L508.245 207.103C507.851 207.117 507.447 207.085 507.032 207.005C506.629 206.924 506.264 206.767 505.938 206.535ZM506.907 205.899C507.148 206.071 507.416 206.184 507.712 206.237C508.019 206.289 508.346 206.306 508.693 206.287L509.417 205.271C508.964 204.997 508.573 204.788 508.244 204.642C507.92 204.49 507.644 204.396 507.414 204.36C507.184 204.324 506.994 204.336 506.843 204.396C506.697 204.449 506.578 204.541 506.485 204.671C506.332 204.886 506.302 205.1 506.395 205.314C506.495 205.533 506.666 205.728 506.907 205.899ZM512.464 211.183C512.014 210.863 511.635 210.485 511.327 210.049C511.023 209.607 510.793 209.178 510.637 208.762L511.634 208.397C511.793 208.795 511.995 209.165 512.242 209.508C512.5 209.849 512.825 210.158 513.216 210.437C513.548 210.674 513.832 210.792 514.067 210.793C514.309 210.798 514.488 210.719 514.604 210.556C514.66 210.478 514.692 210.398 514.701 210.316C514.715 210.228 514.694 210.12 514.638 209.991C514.582 209.863 514.485 209.71 514.346 209.533C514.214 209.36 514.028 209.144 513.79 208.886C513.238 208.296 512.895 207.778 512.762 207.329C512.636 206.886 512.703 206.482 512.963 206.117C513.265 205.693 513.693 205.478 514.248 205.471C514.803 205.463 515.42 205.701 516.098 206.184C516.495 206.467 516.82 206.797 517.073 207.173C517.325 207.549 517.517 207.907 517.649 208.246L516.637 208.571C516.509 208.254 516.341 207.958 516.135 207.683C515.928 207.408 515.681 207.169 515.394 206.964C515.075 206.737 514.81 206.627 514.599 206.634C514.392 206.634 514.236 206.709 514.129 206.859C514.008 207.028 514.015 207.225 514.151 207.449C514.286 207.673 514.54 207.991 514.914 208.405C515.238 208.763 515.489 209.08 515.667 209.354C515.845 209.628 515.961 209.878 516.017 210.104C516.083 210.328 516.092 210.536 516.044 210.727C515.996 210.919 515.905 211.109 515.77 211.298C515.621 211.507 515.433 211.667 515.206 211.78C514.983 211.887 514.728 211.941 514.441 211.943C514.16 211.939 513.851 211.876 513.515 211.755C513.179 211.633 512.829 211.443 512.464 211.183ZM518.589 215.545C518.224 215.285 517.921 214.986 517.681 214.648C517.445 214.303 517.283 213.937 517.195 213.551C517.114 213.168 517.116 212.772 517.202 212.362C517.288 211.952 517.472 211.548 517.755 211.15C518.034 210.759 518.35 210.459 518.705 210.251C519.065 210.035 519.435 209.901 519.817 209.849C520.209 209.794 520.591 209.816 520.963 209.914C521.347 210.01 521.701 210.174 522.027 210.406C522.385 210.662 522.66 210.945 522.85 211.258C523.045 211.563 523.165 211.884 523.21 212.221C523.259 212.551 523.233 212.891 523.132 213.241C523.03 213.591 522.86 213.932 522.624 214.264C522.545 214.375 522.462 214.478 522.375 214.573C522.298 214.666 522.231 214.74 522.171 214.796L518.643 212.283C518.388 212.779 518.33 213.239 518.47 213.663C518.61 214.087 518.905 214.459 519.355 214.779C519.609 214.96 519.869 215.091 520.135 215.173C520.401 215.254 520.686 215.31 520.989 215.339L520.869 216.314C520.494 216.303 520.107 216.233 519.707 216.105C519.313 215.982 518.94 215.795 518.589 215.545ZM521.437 211.297C521.104 211.061 520.742 210.95 520.348 210.964C519.961 210.983 519.593 211.163 519.243 211.503L521.794 213.32C522.033 212.901 522.118 212.519 522.049 212.175C521.986 211.836 521.782 211.543 521.437 211.297Z" fill="#BB6BD9"/>
<path d="M547.486 213.833C547.578 214.378 547.211 214.894 546.667 214.986L537.793 216.487C537.248 216.579 536.732 216.212 536.64 215.667C536.548 215.123 536.915 214.607 537.459 214.515L545.347 213.181L544.013 205.293C543.921 204.748 544.288 204.232 544.833 204.14C545.377 204.048 545.893 204.415 545.985 204.959L547.486 213.833ZM327.579 57.1849L547.079 213.185L545.921 214.815L326.421 58.8151L327.579 57.1849Z" fill="#BB6BD9"/>
<path opacity="0.25" d="M775.795 75.9446L768.643 72.7139L770.713 68.1317L771.785 68.6158L770.288 71.9295L772.114 72.7544L773.384 69.9439L774.456 70.428L773.186 73.2385L775.297 74.1919L776.843 70.7689L777.915 71.253L775.795 75.9446ZM778.501 69.9559L776.591 66.7496L773.19 67.3992L773.808 66.0322L775.141 65.7917C775.326 65.7701 775.522 65.7445 775.729 65.7148C775.928 65.6819 776.127 65.649 776.326 65.6161L776.346 65.5724C776.229 65.423 776.112 65.2647 775.994 65.0975C775.877 64.9303 775.763 64.7736 775.654 64.6275L774.934 63.5388L775.532 62.2155L777.419 65.2669L780.961 64.5098L780.343 65.8768L778.932 66.1741C778.74 66.2103 778.534 66.2488 778.313 66.2897C778.096 66.3233 777.886 66.3603 777.684 66.4005L777.664 66.4442C777.778 66.6187 777.894 66.7896 778.012 66.9568C778.125 67.1135 778.243 67.2807 778.365 67.4585L779.098 68.6327L778.501 69.9559ZM783.737 64.0179L776.246 60.6341L776.715 59.5951L777.372 59.7733L777.387 59.7405C777.281 59.4117 777.226 59.0666 777.223 58.7051C777.215 58.333 777.281 57.9939 777.419 57.6877C777.577 57.3377 777.783 57.0575 778.036 56.847C778.285 56.6259 778.571 56.4786 778.894 56.405C779.22 56.3241 779.572 56.3121 779.95 56.3688C780.332 56.4182 780.73 56.5368 781.146 56.7245C781.605 56.9319 781.987 57.1836 782.293 57.4795C782.591 57.7721 782.813 58.0874 782.958 58.4254C783.1 58.7528 783.171 59.092 783.17 59.4429C783.173 59.7865 783.105 60.1114 782.967 60.4176C782.855 60.6655 782.685 60.896 782.457 61.109C782.233 61.3148 781.97 61.4773 781.671 61.5965L781.656 61.6293L782.626 61.9885L784.31 62.7493L783.737 64.0179ZM781.81 60.2108C781.984 59.8244 781.976 59.4344 781.785 59.0409C781.587 58.6441 781.181 58.3074 780.569 58.0308C780.029 57.7871 779.566 57.6962 779.178 57.758C778.79 57.8198 778.497 58.0695 778.3 58.5069C778.208 58.711 778.165 58.9419 778.171 59.1994C778.178 59.4569 778.245 59.7461 778.372 60.0669L780.789 61.1586C781.06 61.0441 781.278 60.9013 781.443 60.7301C781.612 60.5516 781.734 60.3785 781.81 60.2108ZM785.786 54.1774C785.628 54.5273 785.413 54.8384 785.14 55.1105C784.868 55.3826 784.556 55.5882 784.203 55.7274C783.851 55.8666 783.465 55.9337 783.046 55.9288C782.63 55.9165 782.2 55.8099 781.755 55.609C781.31 55.4082 780.946 55.1558 780.662 54.8519C780.381 54.5407 780.176 54.2068 780.048 53.8503C779.919 53.4937 779.867 53.1234 779.891 52.7393C779.908 52.352 779.996 51.9833 780.154 51.6333C780.312 51.2834 780.531 50.974 780.81 50.7052C781.082 50.4331 781.394 50.2275 781.747 50.0883C782.1 49.949 782.484 49.8856 782.9 49.8978C783.319 49.9028 783.751 50.0057 784.195 50.2066C784.64 50.4075 785.003 50.6635 785.284 50.9747C785.568 51.2786 785.774 51.6088 785.903 51.9654C786.031 52.322 786.084 52.6923 786.059 53.0763C786.035 53.4604 785.944 53.8274 785.786 54.1774ZM784.758 53.713C784.955 53.2756 784.95 52.8605 784.741 52.4677C784.525 52.0716 784.147 51.7517 783.608 51.508C783.061 51.261 782.571 51.189 782.138 51.292C781.698 51.3917 781.379 51.6602 781.182 52.0977C780.984 52.5351 780.993 52.9519 781.209 53.348C781.418 53.7408 781.796 54.0607 782.343 54.3076C782.882 54.5513 783.372 54.6234 783.812 54.5237C784.245 54.4207 784.56 54.1505 784.758 53.713ZM787.54 49.9448L782.17 47.5193L782.639 46.4804L783.493 46.7475L783.513 46.7038C783.373 46.3333 783.281 45.9538 783.237 45.5653C783.189 45.1662 783.259 44.7588 783.447 44.3433C783.727 43.7235 784.122 43.3535 784.633 43.2331C785.136 43.1094 785.738 43.2057 786.438 43.5218L789.763 45.0236L789.19 46.2921L786.029 44.8645C785.592 44.6669 785.24 44.6002 784.974 44.6644C784.704 44.718 784.485 44.9307 784.317 45.3026C784.198 45.565 784.155 45.8263 784.187 46.0864C784.218 46.3466 784.306 46.6582 784.449 47.0214L788.113 48.6762L787.54 49.9448ZM791.858 40.7346C791.674 41.1428 791.439 41.4976 791.153 41.7989C790.861 42.0968 790.533 42.3264 790.171 42.4874C789.812 42.6412 789.423 42.7156 789.003 42.7107C788.584 42.7057 788.152 42.6028 787.708 42.4019C787.27 42.2043 786.915 41.9515 786.641 41.6436C786.36 41.3325 786.157 40.9949 786.032 40.6311C785.903 40.2567 785.85 39.8774 785.874 39.4933C785.895 39.0987 785.987 38.7191 786.152 38.3546C786.333 37.9536 786.558 37.6296 786.828 37.3827C787.09 37.1325 787.382 36.9527 787.703 36.8433C788.018 36.7307 788.356 36.6905 788.719 36.7228C789.082 36.755 789.449 36.8551 789.821 37.0231C789.945 37.079 790.062 37.1407 790.172 37.208C790.278 37.2646 790.365 37.3167 790.431 37.3643L788.648 41.3122C789.184 41.4665 789.646 41.434 790.035 41.2146C790.424 40.9952 790.732 40.6339 790.959 40.1309C791.087 39.8465 791.166 39.5659 791.194 39.2891C791.223 39.0123 791.222 38.7223 791.192 38.4192L792.172 38.3483C792.233 38.7183 792.24 39.1119 792.192 39.5291C792.147 39.939 792.036 40.3409 791.858 40.7346ZM787.14 38.7614C786.972 39.1332 786.933 39.5107 787.023 39.8938C787.117 40.2697 787.364 40.5965 787.766 40.8743L789.055 38.02C788.598 37.8661 788.207 37.8565 787.883 37.991C787.562 38.1182 787.314 38.375 787.14 38.7614ZM793.464 36.83L788.094 34.4046L788.563 33.3656L789.417 33.6328L789.437 33.589C789.297 33.2186 789.205 32.8391 789.161 32.4506C789.113 32.0514 789.183 31.6441 789.371 31.2285C789.651 30.6088 790.046 30.2388 790.557 30.1184C791.06 29.9947 791.662 30.0909 792.362 30.4071L795.687 31.9088L795.114 33.1774L791.953 31.7498C791.516 31.5522 791.164 31.4855 790.898 31.5497C790.628 31.6033 790.409 31.816 790.241 32.1878C790.122 32.4503 790.079 32.7116 790.111 32.9717C790.142 33.2318 790.23 33.5435 790.373 33.9066L794.037 35.5615L793.464 36.83ZM798.083 26.9527C797.899 27.361 797.688 27.6826 797.45 27.9175C797.215 28.1452 796.96 28.302 796.684 28.3881C796.404 28.4636 796.104 28.4772 795.784 28.429C795.466 28.3734 795.136 28.2683 794.794 28.1135L792.585 27.1156L791.938 28.5483L790.997 28.1234L791.614 26.6114L790.004 25.6866L790.473 24.6477L792.158 25.4085L793.264 22.9588L794.259 23.4083L793.153 25.858L795.362 26.8558C795.807 27.0567 796.176 27.1138 796.47 27.027C796.759 26.9297 797.008 26.6513 797.215 26.192C797.318 25.966 797.393 25.75 797.442 25.544C797.484 25.3347 797.512 25.1277 797.525 24.9231L798.553 25.0974C798.524 25.3742 798.477 25.6644 798.41 25.9677C798.35 26.2744 798.241 26.6028 798.083 26.9527ZM800.45 21.3641L796.075 19.3881L795.023 21.7175L794.028 21.268L795.648 17.6809L801.018 20.1064L800.45 21.3641ZM794.343 17.9472C794.228 18.2024 794.054 18.3829 793.822 18.4887C793.593 18.5872 793.351 18.5788 793.096 18.4636C792.841 18.3483 792.674 18.1723 792.597 17.9354C792.516 17.688 792.532 17.4367 792.648 17.1815C792.763 16.9263 792.939 16.7511 793.175 16.6559C793.407 16.5501 793.651 16.5548 793.906 16.6701C794.161 16.7853 794.326 16.965 794.4 17.2092C794.477 17.446 794.458 17.692 794.343 17.9472ZM803.237 15.544C803.118 15.8065 802.969 16.0289 802.79 16.2114C802.619 16.3972 802.427 16.539 802.216 16.6369C802.005 16.7347 801.785 16.7845 801.556 16.7864C801.32 16.785 801.085 16.7316 800.852 16.6262C800.553 16.4911 800.322 16.3033 800.158 16.0627C799.987 15.8188 799.889 15.5112 799.864 15.1398C799.839 14.7684 799.88 14.3264 799.989 13.8137C800.098 13.301 800.28 12.703 800.536 12.0198C800.22 11.9033 799.919 11.8991 799.633 12.007C799.347 12.1149 799.106 12.3876 798.908 12.8251C798.77 13.1313 798.691 13.4602 798.673 13.8118C798.651 14.1528 798.654 14.4965 798.682 14.8427L797.632 14.9216C797.591 14.5079 797.589 14.055 797.627 13.563C797.665 13.071 797.787 12.5953 797.995 12.136C798.334 11.3851 798.793 10.9033 799.372 10.6907C799.943 10.4749 800.605 10.5365 801.356 10.8758L804.538 12.3133L804.074 13.3412L803.362 13.1383L803.347 13.1711C803.438 13.5543 803.484 13.9571 803.486 14.3795C803.484 14.7913 803.401 15.1795 803.237 15.544ZM802.425 14.7166C802.547 14.4469 802.606 14.1617 802.601 13.8611C802.592 13.55 802.546 13.226 802.461 12.8892L801.323 12.3755C801.142 12.8731 801.012 13.2972 800.933 13.6476C800.847 13.9947 800.808 14.2845 800.817 14.5168C800.826 14.7492 800.875 14.9335 800.962 15.0697C801.043 15.2026 801.156 15.3019 801.302 15.3678C801.542 15.4765 801.758 15.4644 801.95 15.3315C802.145 15.1914 802.303 14.9864 802.425 14.7166ZM807.019 7.17124C806.735 7.79824 806.337 8.19345 805.825 8.35687C805.315 8.513 804.729 8.44122 804.065 8.14153L799.297 5.98775L798.487 7.78126L797.492 7.33174L798.87 4.28057L804.699 6.91352C805.064 7.07819 805.364 7.10396 805.599 6.99085C805.831 6.86716 806.007 6.67043 806.129 6.40068C806.257 6.11634 806.326 5.77884 806.336 5.38819L807.399 5.5128C807.383 5.82138 807.35 6.09655 807.303 6.33832C807.255 6.5801 807.16 6.85773 807.019 7.17124ZM805.577 46.8C805.373 47.2521 805.102 47.6387 804.764 47.9599C804.429 48.2739 804.04 48.5022 803.599 48.645C803.157 48.7877 802.668 48.8392 802.133 48.7994C801.601 48.7523 801.04 48.5954 800.45 48.3286C799.859 48.0619 799.37 47.7446 798.983 47.3767C798.6 47.0015 798.312 46.5993 798.12 46.1701C797.931 45.7336 797.841 45.2806 797.851 44.8111C797.865 44.3344 797.977 43.8627 798.188 43.3961C798.402 42.9222 798.677 42.564 799.015 42.3216C799.349 42.0685 799.677 41.8874 799.998 41.778L800.469 42.8336C800.226 42.9255 800.003 43.0489 799.802 43.2036C799.604 43.3511 799.434 43.5815 799.292 43.895C799.164 44.1794 799.107 44.4698 799.122 44.7664C799.134 45.0524 799.213 45.3339 799.36 45.611C799.503 45.8775 799.713 46.1306 799.991 46.3703C800.269 46.6099 800.609 46.8204 801.01 47.0015C801.826 47.3703 802.542 47.4961 803.157 47.3788C803.767 47.2509 804.218 46.8661 804.508 46.2246C804.593 46.035 804.65 45.8412 804.678 45.6432C804.699 45.4418 804.681 45.2671 804.625 45.1189L803.083 44.4224L802.525 45.6582L801.486 45.1889L802.563 42.8048L805.712 44.2275C805.84 44.5662 805.901 44.9666 805.894 45.4288C805.89 45.8836 805.785 46.3407 805.577 46.8ZM807.371 42.48L802.001 40.0545L802.471 39.0156L803.734 39.4545L803.749 39.4217C803.436 38.9471 803.254 38.4655 803.203 37.977C803.148 37.4779 803.225 36.9951 803.436 36.5285C803.535 36.3097 803.637 36.1321 803.743 35.9954C803.844 35.8482 803.971 35.7125 804.124 35.5883L805.066 36.33C804.929 36.4786 804.818 36.6172 804.733 36.7459C804.645 36.8639 804.555 37.025 804.463 37.2292C804.295 37.601 804.239 38.006 804.296 38.4442C804.352 38.8823 804.58 39.3585 804.98 39.8727L807.944 41.2114L807.371 42.48ZM811.304 34.1227C811.146 34.4727 810.931 34.7837 810.659 35.0558C810.386 35.3279 810.074 35.5336 809.721 35.6728C809.369 35.812 808.983 35.8791 808.564 35.8741C808.148 35.8619 807.718 35.7553 807.273 35.5544C806.828 35.3535 806.464 35.1011 806.18 34.7972C805.899 34.486 805.694 34.1522 805.566 33.7956C805.437 33.4391 805.385 33.0687 805.409 32.6847C805.426 32.2973 805.514 31.9287 805.672 31.5787C805.83 31.2287 806.049 30.9194 806.328 30.6506C806.6 30.3785 806.913 30.1728 807.265 30.0336C807.618 29.8944 808.002 29.8309 808.418 29.8432C808.837 29.8482 809.269 29.9511 809.713 30.152C810.158 30.3529 810.521 30.6089 810.802 30.9201C811.086 31.224 811.292 31.5542 811.421 31.9108C811.549 32.2673 811.602 32.6376 811.577 33.0217C811.553 33.4058 811.462 33.7728 811.304 34.1227ZM810.276 33.6584C810.473 33.2209 810.468 32.8058 810.259 32.413C810.043 32.017 809.665 31.6971 809.126 31.4534C808.579 31.2064 808.089 31.1344 807.656 31.2373C807.216 31.337 806.897 31.6056 806.7 32.043C806.502 32.4805 806.511 32.8973 806.728 33.2933C806.936 33.6861 807.314 34.006 807.861 34.253C808.4 34.4967 808.89 34.5687 809.33 34.469C809.763 34.366 810.078 34.0958 810.276 33.6584ZM813.142 29.7042L807.313 28.2958L807.871 27.06L810.877 27.8385C811.156 27.9206 811.43 28.0047 811.698 28.0908C811.962 28.1663 812.234 28.2451 812.513 28.3273L812.528 28.2944C812.282 28.1394 812.041 27.9824 811.805 27.8234C811.573 27.6571 811.343 27.4872 811.114 27.3136L809.073 25.7989L809.542 24.76L812.023 25.3013C812.312 25.3616 812.595 25.4238 812.874 25.488C813.148 25.5417 813.424 25.6096 813.703 25.6917L813.723 25.6479C813.477 25.4929 813.237 25.3448 813.002 25.2037C812.76 25.0593 812.516 24.9096 812.27 24.7545L809.689 23.0356L810.217 21.8654L815.142 25.2751L814.451 26.8062L812.105 26.2863C811.646 26.1755 811.083 26.0133 810.415 25.7997L810.396 25.8435C810.656 26.0051 810.909 26.1634 811.155 26.3184C811.397 26.4628 811.64 26.6162 811.882 26.7785L813.828 28.1841L813.142 29.7042ZM817.677 20.0128C817.493 20.4211 817.282 20.7427 817.044 20.9776C816.81 21.2053 816.554 21.3621 816.278 21.4482C815.999 21.5237 815.698 21.5373 815.378 21.4891C815.061 21.4335 814.731 21.3284 814.388 21.1736L812.179 20.1757L811.532 21.6084L810.591 21.1835L811.208 19.6715L809.598 18.7467L810.068 17.7078L811.752 18.4686L812.858 16.0189L813.853 16.4684L812.747 18.9181L814.956 19.9159C815.401 20.1168 815.77 20.1739 816.064 20.0871C816.353 19.9898 816.602 19.7114 816.81 19.2521C816.912 19.0261 816.987 18.8101 817.036 18.6041C817.078 18.3948 817.106 18.1878 817.119 17.9832L818.147 18.1575C818.118 18.4343 818.071 18.7245 818.004 19.0278C817.944 19.3345 817.835 19.6629 817.677 20.0128ZM818.982 16.7754L811.261 13.2879L811.834 12.0193L813.824 12.9183L814.938 13.5136L814.953 13.4808C814.81 13.1355 814.717 12.7686 814.673 12.38C814.629 11.9915 814.701 11.5894 814.889 11.1739C815.169 10.5542 815.564 10.1841 816.075 10.0637C816.578 9.94006 817.18 10.0363 817.88 10.3525L821.205 11.8542L820.632 13.1228L817.471 11.6951C817.034 11.4975 816.682 11.4308 816.416 11.495C816.146 11.5486 815.927 11.7613 815.759 12.1332C815.64 12.3956 815.597 12.6569 815.629 12.9171C815.66 13.1772 815.748 13.4888 815.891 13.852L819.555 15.5068L818.982 16.7754Z" fill="#29A1F8"/>
<path d="M781.317 141.743L788.501 138.583L790.525 143.185L789.449 143.659L787.985 140.33L786.15 141.137L787.392 143.96L786.316 144.434L785.074 141.611L782.954 142.543L784.466 145.981L783.39 146.455L781.317 141.743ZM783.963 147.758L787.624 148.481L789.414 145.517L790.018 146.89L789.306 148.043C789.198 148.195 789.086 148.358 788.97 148.531C788.861 148.701 788.753 148.871 788.644 149.042L788.663 149.085C788.853 149.098 789.049 149.117 789.252 149.141C789.455 149.166 789.647 149.186 789.829 149.202L791.12 149.395L791.704 150.724L788.173 150.088L786.369 153.228L785.765 151.855L786.488 150.606C786.589 150.439 786.698 150.26 786.815 150.069C786.935 149.885 787.048 149.704 787.153 149.527L787.134 149.483C786.928 149.451 786.723 149.423 786.52 149.399C786.328 149.379 786.125 149.354 785.911 149.326L784.548 149.087L783.963 147.758ZM784.879 155.622L792.403 152.312L792.862 153.356L792.291 153.725L792.305 153.758C792.621 153.899 792.914 154.089 793.185 154.328C793.467 154.571 793.675 154.846 793.811 155.154C793.965 155.505 794.036 155.846 794.024 156.175C794.022 156.508 793.94 156.819 793.779 157.108C793.621 157.405 793.394 157.675 793.099 157.918C792.808 158.169 792.453 158.386 792.036 158.57C791.574 158.773 791.132 158.889 790.708 158.918C790.291 158.944 789.908 158.898 789.559 158.781C789.221 158.667 788.921 158.493 788.661 158.258C788.403 158.031 788.207 157.763 788.072 157.456C787.962 157.207 787.904 156.926 787.898 156.614C787.895 156.31 787.95 156.006 788.061 155.703L788.047 155.671L787.131 156.152L785.439 156.896L784.879 155.622ZM788.999 156.733C789.17 157.121 789.465 157.376 789.886 157.497C790.313 157.614 790.835 157.538 791.45 157.267C791.992 157.029 792.369 156.745 792.582 156.415C792.796 156.085 792.806 155.701 792.612 155.261C792.522 155.056 792.379 154.87 792.183 154.703C791.987 154.536 791.728 154.392 791.404 154.272L788.976 155.34C788.88 155.618 788.841 155.876 788.858 156.113C788.878 156.358 788.925 156.565 788.999 156.733ZM790.829 163.723C790.674 163.372 790.587 163.004 790.566 162.62C790.546 162.235 790.601 161.866 790.734 161.51C790.866 161.155 791.074 160.823 791.358 160.515C791.645 160.214 792.011 159.965 792.458 159.768C792.905 159.572 793.336 159.47 793.752 159.461C794.171 159.461 794.556 159.532 794.908 159.674C795.259 159.817 795.569 160.026 795.838 160.3C796.115 160.572 796.331 160.883 796.486 161.235C796.64 161.586 796.724 161.956 796.737 162.343C796.758 162.728 796.702 163.097 796.57 163.453C796.438 163.808 796.228 164.136 795.941 164.437C795.657 164.746 795.292 164.998 794.845 165.195C794.398 165.391 793.965 165.49 793.546 165.491C793.13 165.499 792.747 165.432 792.396 165.289C792.045 165.146 791.734 164.937 791.465 164.663C791.195 164.388 790.983 164.075 790.829 163.723ZM791.861 163.269C792.054 163.708 792.367 163.982 792.799 164.089C793.238 164.193 793.728 164.126 794.27 163.888C794.819 163.646 795.2 163.33 795.413 162.939C795.633 162.545 795.646 162.128 795.453 161.689C795.26 161.25 794.944 160.978 794.505 160.874C794.073 160.767 793.582 160.834 793.033 161.076C792.491 161.314 792.11 161.63 791.89 162.024C791.678 162.415 791.668 162.83 791.861 163.269ZM792.804 167.857L798.198 165.485L798.657 166.528L797.887 166.984L797.907 167.028C798.276 167.172 798.619 167.357 798.938 167.584C799.267 167.815 799.523 168.14 799.707 168.557C799.98 169.18 799.991 169.721 799.739 170.181C799.495 170.639 799.021 171.022 798.318 171.331L794.979 172.8L794.418 171.526L797.593 170.129C798.032 169.936 798.317 169.719 798.447 169.478C798.587 169.242 798.576 168.937 798.411 168.563C798.295 168.3 798.13 168.093 797.915 167.942C797.701 167.792 797.41 167.649 797.045 167.513L793.365 169.131L792.804 167.857ZM796.768 177.225C796.588 176.815 796.481 176.403 796.447 175.99C796.421 175.573 796.47 175.176 796.592 174.799C796.718 174.429 796.923 174.09 797.206 173.781C797.49 173.473 797.856 173.22 798.302 173.024C798.742 172.831 799.167 172.735 799.579 172.738C799.998 172.737 800.385 172.811 800.739 172.961C801.104 173.115 801.421 173.33 801.691 173.605C801.971 173.884 802.191 174.206 802.353 174.572C802.53 174.975 802.62 175.359 802.623 175.725C802.634 176.087 802.573 176.424 802.439 176.736C802.313 177.045 802.117 177.324 801.85 177.572C801.583 177.821 801.263 178.027 800.89 178.191C800.766 178.246 800.641 178.292 800.518 178.329C800.405 178.37 800.308 178.399 800.229 178.417L798.484 174.451C798.011 174.747 797.727 175.113 797.63 175.548C797.533 175.984 797.596 176.455 797.818 176.96C797.944 177.246 798.1 177.492 798.287 177.698C798.474 177.904 798.69 178.097 798.935 178.278L798.333 179.054C798.017 178.852 797.72 178.594 797.442 178.279C797.167 177.972 796.942 177.621 796.768 177.225ZM801.389 175.035C801.225 174.662 800.97 174.38 800.625 174.192C800.283 174.01 799.874 173.975 799.4 174.088L800.661 176.955C801.081 176.718 801.349 176.434 801.466 176.103C801.586 175.779 801.56 175.423 801.389 175.035ZM798.599 181.029L803.992 178.657L804.451 179.701L803.682 180.157L803.701 180.201C804.07 180.344 804.414 180.53 804.732 180.757C805.061 180.988 805.317 181.312 805.501 181.73C805.775 182.352 805.786 182.893 805.534 183.354C805.289 183.811 804.815 184.194 804.112 184.504L800.773 185.972L800.213 184.698L803.387 183.302C803.827 183.109 804.111 182.892 804.241 182.651C804.382 182.414 804.37 182.109 804.206 181.736C804.09 181.472 803.925 181.265 803.71 181.115C803.495 180.964 803.205 180.821 802.839 180.685L799.159 182.304L798.599 181.029ZM802.857 191.068C802.677 190.658 802.579 190.286 802.563 189.952C802.55 189.625 802.604 189.331 802.725 189.068C802.856 188.809 803.046 188.577 803.296 188.371C803.55 188.172 803.849 187.997 804.193 187.845L806.412 186.869L805.779 185.43L806.723 185.015L807.435 186.485L809.199 185.905L809.658 186.949L807.967 187.693L809.049 190.153L808.05 190.593L806.967 188.132L804.748 189.109C804.302 189.305 804.013 189.541 803.881 189.818C803.759 190.099 803.8 190.47 804.003 190.931C804.103 191.158 804.213 191.359 804.333 191.533C804.461 191.704 804.597 191.863 804.74 192.01L803.923 192.657C803.737 192.451 803.553 192.221 803.372 191.969C803.183 191.72 803.012 191.419 802.857 191.068ZM805.432 196.564L809.826 194.631L808.797 192.291L809.796 191.851L811.381 195.454L805.988 197.827L805.432 196.564ZM812.056 194.305C811.943 194.049 811.925 193.799 812.001 193.556C812.081 193.32 812.249 193.145 812.505 193.033C812.761 192.92 813.004 192.914 813.231 193.015C813.47 193.12 813.645 193.3 813.758 193.557C813.871 193.813 813.884 194.061 813.797 194.3C813.72 194.543 813.554 194.721 813.298 194.834C813.041 194.947 812.798 194.949 812.567 194.841C812.339 194.74 812.168 194.562 812.056 194.305ZM807.898 202.527C807.782 202.263 807.716 202.004 807.7 201.749C807.677 201.497 807.699 201.26 807.767 201.037C807.835 200.815 807.945 200.618 808.097 200.446C808.256 200.272 808.453 200.133 808.687 200.03C808.988 199.898 809.282 199.851 809.57 199.89C809.866 199.926 810.16 200.059 810.453 200.289C810.746 200.518 811.047 200.844 811.356 201.268C811.665 201.691 811.987 202.227 812.324 202.874C812.622 202.717 812.827 202.496 812.937 202.211C813.048 201.926 813.007 201.564 812.814 201.125C812.678 200.817 812.486 200.539 812.237 200.29C811.998 200.046 811.741 199.818 811.464 199.608L812.107 198.774C812.443 199.02 812.781 199.321 813.121 199.679C813.462 200.036 813.734 200.445 813.937 200.906C814.268 201.66 814.32 202.324 814.091 202.896C813.87 203.466 813.382 203.916 812.627 204.248L809.431 205.654L808.977 204.622L809.603 204.228L809.589 204.195C809.244 204.006 808.913 203.771 808.597 203.491C808.292 203.214 808.059 202.893 807.898 202.527ZM809.056 202.476C809.175 202.747 809.348 202.981 809.575 203.179C809.812 203.38 810.084 203.562 810.391 203.724L811.534 203.222C811.284 202.755 811.056 202.374 810.848 202.081C810.648 201.785 810.458 201.562 810.279 201.414C810.1 201.265 809.931 201.178 809.771 201.152C809.618 201.123 809.469 201.141 809.323 201.205C809.081 201.312 808.945 201.48 808.916 201.712C808.89 201.951 808.937 202.205 809.056 202.476ZM811.597 210.936C811.32 210.307 811.292 209.746 811.514 209.256C811.738 208.773 812.183 208.384 812.85 208.091L817.639 205.985L816.846 204.183L817.846 203.743L819.194 206.808L813.34 209.383C812.973 209.545 812.754 209.75 812.68 210.001C812.618 210.256 812.646 210.519 812.765 210.79C812.891 211.075 813.096 211.352 813.38 211.621L812.577 212.328C812.358 212.109 812.175 211.902 812.027 211.704C811.879 211.507 811.736 211.251 811.597 210.936ZM776.158 167.267L783.341 164.107L784.172 165.996C784.639 167.058 784.707 168.016 784.375 168.87C784.046 169.731 783.288 170.423 782.102 170.945C781.508 171.206 780.951 171.359 780.429 171.405C779.908 171.451 779.43 171.399 778.997 171.248C778.571 171.095 778.191 170.847 777.857 170.504C777.523 170.162 777.243 169.734 777.018 169.222L776.158 167.267ZM777.751 168.087L777.987 168.625C778.29 169.313 778.732 169.752 779.314 169.942C779.903 170.129 780.641 170.027 781.527 169.637C782.405 169.251 782.964 168.782 783.202 168.232C783.441 167.681 783.409 167.062 783.106 166.373L782.869 165.835L777.751 168.087ZM780.141 176.679C779.96 176.269 779.853 175.857 779.82 175.443C779.794 175.027 779.842 174.63 779.965 174.252C780.09 173.882 780.295 173.543 780.579 173.235C780.863 172.926 781.228 172.674 781.675 172.478C782.114 172.284 782.54 172.189 782.952 172.191C783.371 172.19 783.757 172.265 784.112 172.415C784.477 172.569 784.794 172.783 785.063 173.058C785.343 173.337 785.564 173.66 785.725 174.026C785.902 174.428 785.992 174.813 785.996 175.178C786.007 175.541 785.945 175.878 785.812 176.19C785.686 176.499 785.489 176.778 785.223 177.026C784.956 177.274 784.636 177.481 784.263 177.645C784.138 177.7 784.014 177.746 783.89 177.782C783.777 177.823 783.681 177.853 783.601 177.87L781.857 173.905C781.384 174.201 781.099 174.566 781.002 175.002C780.906 175.438 780.968 175.908 781.191 176.414C781.316 176.699 781.473 176.945 781.659 177.151C781.846 177.358 782.062 177.551 782.308 177.731L781.705 178.508C781.389 178.306 781.092 178.048 780.814 177.733C780.539 177.426 780.315 177.074 780.141 176.679ZM784.762 174.489C784.598 174.115 784.343 173.834 783.998 173.645C783.655 173.463 783.247 173.429 782.772 173.542L784.033 176.409C784.453 176.171 784.722 175.887 784.838 175.556C784.958 175.233 784.933 174.877 784.762 174.489ZM783.105 183.419C782.919 182.994 782.807 182.571 782.77 182.151C782.737 181.737 782.782 181.342 782.904 180.964C783.03 180.594 783.235 180.255 783.518 179.947C783.805 179.646 784.172 179.397 784.619 179.2C785.066 179.004 785.5 178.909 785.923 178.915C786.348 178.929 786.743 179.022 787.107 179.194C787.471 179.366 787.798 179.611 788.086 179.93C788.382 180.246 788.621 180.608 788.801 181.018C788.994 181.458 789.09 181.874 789.089 182.268C789.09 182.67 789.035 183.031 788.923 183.351L787.866 183.095C787.941 182.808 787.974 182.536 787.965 182.278C787.96 182.026 787.904 181.78 787.797 181.539C787.559 180.997 787.201 180.63 786.723 180.438C786.253 180.243 785.743 180.266 785.194 180.508C784.923 180.627 784.697 180.779 784.516 180.963C784.335 181.148 784.198 181.352 784.104 181.577C784.021 181.806 783.984 182.049 783.993 182.307C784.009 182.563 784.075 182.822 784.191 183.086C784.326 183.393 784.507 183.646 784.734 183.843C784.964 184.048 785.206 184.221 785.461 184.362L784.88 185.247C784.47 185.052 784.112 184.794 783.806 184.474C783.51 184.159 783.276 183.807 783.105 183.419ZM785.101 187.597L790.494 185.224L790.953 186.268L789.782 186.914L789.796 186.947C790.358 187.032 790.838 187.218 791.236 187.507C791.644 187.799 791.951 188.179 792.157 188.648C792.254 188.868 792.318 189.063 792.349 189.232C792.39 189.406 792.406 189.592 792.397 189.788L791.215 189.993C791.196 189.792 791.167 189.617 791.128 189.468C791.1 189.323 791.04 189.148 790.95 188.943C790.786 188.57 790.522 188.258 790.158 188.007C789.794 187.756 789.287 187.608 788.638 187.561L785.661 188.871L785.101 187.597ZM788.832 196.438C788.652 196.028 788.545 195.616 788.512 195.202C788.486 194.785 788.534 194.388 788.656 194.011C788.782 193.641 788.987 193.302 789.271 192.994C789.554 192.685 789.92 192.433 790.366 192.236C790.806 192.043 791.231 191.948 791.643 191.95C792.062 191.949 792.449 192.024 792.804 192.174C793.168 192.328 793.486 192.542 793.755 192.817C794.035 193.096 794.256 193.418 794.417 193.784C794.594 194.187 794.684 194.571 794.688 194.937C794.698 195.299 794.637 195.636 794.503 195.949C794.377 196.258 794.181 196.536 793.914 196.785C793.648 197.033 793.328 197.239 792.954 197.404C792.83 197.458 792.706 197.504 792.582 197.541C792.469 197.582 792.373 197.611 792.293 197.629L790.549 193.664C790.076 193.959 789.791 194.325 789.694 194.761C789.597 195.197 789.66 195.667 789.882 196.172C790.008 196.458 790.164 196.704 790.351 196.91C790.538 197.116 790.754 197.31 791 197.49L790.397 198.266C790.081 198.065 789.784 197.806 789.506 197.492C789.231 197.184 789.006 196.833 788.832 196.438ZM793.454 194.247C793.289 193.874 793.035 193.593 792.689 193.404C792.347 193.222 791.939 193.188 791.464 193.3L792.725 196.167C793.145 195.93 793.413 195.646 793.53 195.315C793.65 194.991 793.624 194.636 793.454 194.247ZM791.271 201.98C791.155 201.717 791.089 201.457 791.072 201.202C791.049 200.95 791.071 200.713 791.14 200.491C791.208 200.269 791.318 200.072 791.47 199.9C791.629 199.725 791.825 199.586 792.06 199.483C792.36 199.351 792.654 199.305 792.942 199.344C793.238 199.38 793.532 199.513 793.826 199.742C794.119 199.971 794.42 200.298 794.728 200.722C795.037 201.145 795.36 201.68 795.697 202.327C795.995 202.17 796.199 201.949 796.31 201.665C796.421 201.38 796.379 201.018 796.186 200.578C796.051 200.271 795.859 199.993 795.609 199.744C795.371 199.499 795.113 199.272 794.837 199.061L795.48 198.228C795.815 198.474 796.153 198.775 796.494 199.132C796.834 199.489 797.106 199.898 797.309 200.36C797.641 201.114 797.692 201.777 797.464 202.35C797.242 202.919 796.754 203.37 796 203.702L792.804 205.108L792.349 204.075L792.976 203.682L792.961 203.649C792.616 203.46 792.286 203.225 791.97 202.944C791.665 202.668 791.432 202.347 791.271 201.98ZM792.428 201.93C792.547 202.201 792.72 202.435 792.947 202.633C793.184 202.834 793.456 203.016 793.764 203.178L794.906 202.675C794.657 202.208 794.428 201.828 794.221 201.535C794.02 201.238 793.831 201.016 793.652 200.867C793.473 200.719 793.304 200.632 793.144 200.606C792.991 200.577 792.841 200.595 792.695 200.659C792.453 200.765 792.318 200.934 792.289 201.165C792.262 201.404 792.309 201.659 792.428 201.93ZM794.496 209.314C794.274 208.808 794.142 208.29 794.1 207.757C794.066 207.222 794.088 206.736 794.167 206.299L795.21 206.496C795.143 206.919 795.127 207.34 795.164 207.761C795.211 208.186 795.331 208.619 795.524 209.058C795.689 209.431 795.872 209.679 796.074 209.8C796.279 209.928 796.473 209.952 796.656 209.871C796.744 209.833 796.812 209.78 796.862 209.715C796.919 209.646 796.957 209.542 796.974 209.403C796.992 209.265 796.986 209.083 796.958 208.86C796.933 208.644 796.884 208.364 796.811 208.02C796.639 207.23 796.61 206.609 796.726 206.157C796.845 205.711 797.109 205.398 797.519 205.218C797.995 205.008 798.473 205.043 798.954 205.321C799.435 205.599 799.842 206.118 800.177 206.88C800.374 207.327 800.484 207.776 800.508 208.229C800.533 208.681 800.515 209.087 800.454 209.446L799.418 209.207C799.47 208.869 799.478 208.529 799.441 208.187C799.404 207.845 799.315 207.513 799.173 207.191C799.016 206.832 798.844 206.601 798.659 206.499C798.482 206.394 798.309 206.378 798.141 206.452C797.95 206.536 797.856 206.708 797.857 206.97C797.859 207.231 797.914 207.635 798.023 208.182C798.118 208.656 798.172 209.056 798.184 209.382C798.197 209.709 798.169 209.983 798.101 210.206C798.043 210.432 797.944 210.615 797.805 210.755C797.666 210.895 797.49 211.012 797.277 211.105C797.043 211.209 796.799 211.25 796.546 211.231C796.3 211.208 796.053 211.124 795.806 210.979C795.566 210.831 795.333 210.619 795.106 210.343C794.88 210.067 794.677 209.724 794.496 209.314ZM797.524 216.196C797.344 215.786 797.237 215.374 797.203 214.961C797.177 214.544 797.226 214.147 797.348 213.77C797.474 213.4 797.679 213.061 797.962 212.752C798.246 212.444 798.611 212.191 799.058 211.995C799.498 211.802 799.923 211.706 800.335 211.709C800.754 211.708 801.141 211.782 801.495 211.932C801.86 212.086 802.177 212.301 802.447 212.576C802.727 212.855 802.947 213.177 803.108 213.543C803.286 213.946 803.376 214.33 803.379 214.696C803.39 215.058 803.329 215.395 803.195 215.707C803.069 216.016 802.873 216.295 802.606 216.543C802.339 216.792 802.019 216.998 801.646 217.162C801.521 217.217 801.397 217.263 801.274 217.3C801.161 217.341 801.064 217.37 800.985 217.388L799.24 213.422C798.767 213.718 798.482 214.084 798.386 214.519C798.289 214.955 798.352 215.426 798.574 215.931C798.7 216.217 798.856 216.463 799.043 216.669C799.23 216.875 799.446 217.068 799.691 217.249L799.089 218.025C798.773 217.823 798.476 217.565 798.197 217.25C797.922 216.943 797.698 216.592 797.524 216.196ZM802.145 214.006C801.981 213.633 801.726 213.352 801.381 213.163C801.039 212.981 800.63 212.946 800.156 213.059L801.417 215.926C801.837 215.689 802.105 215.405 802.222 215.074C802.341 214.75 802.316 214.394 802.145 214.006Z" fill="#29A1F8"/>
</g>
<defs>
<clipPath id="clip0">
<rect width="856" height="261" fill="white"/>
</clipPath>
</defs>
</svg>
